<?xml version='1.0' encoding='utf-8'?>
<svg xmlns="http://www.w3.org/2000/svg" viewBox="50 74 766 254" font-family="'DejaVu Sans', 'Helvetica Neue', Helvetica, Arial, sans-serif" style="background:white">
  <rect x="50" y="74" width="766" height="254" fill="white" />

  
  
  
  <svg x="0" y="0" width="470" height="420" viewBox="130 15 444 265" preserveAspectRatio="xMidYMid meet">
    <defs>
      <marker id="arrowhead" markerWidth="7" markerHeight="5" refX="4" refY="2.5" orient="auto">
        <polygon points="0 0, 7 2.5, 0 5" fill="#555" />
      </marker>
    </defs>

    <g transform="translate(0, 8)">
    
    <g><path d="M735 831Q856 831 908.5 876.0Q961 921 961 1024Q961 1126 908.5 1170.0Q856 1214 735 1214H573V831ZM573 565V0H188V1493H776Q1071 1493 1208.5 1394.0Q1346 1295 1346 1081Q1346 933 1274.5 838.0Q1203 743 1059 698Q1138 680 1200.5 616.5Q1263 553 1327 424L1536 0H1126L944 371Q889 483 832.5 524.0Q776 565 682 565Z" fill="#333" transform="translate(213.3232,50.0000) scale(0.009766,-0.009766)" /><path d="M10 1493H1386V1202H891V0H506V1202H10Z" fill="#333" transform="translate(228.7236,50.0000) scale(0.009766,-0.009766)" /><path d="M1372 82Q1266 27 1151.0 -1.0Q1036 -29 911 -29Q538 -29 320.0 179.5Q102 388 102 745Q102 1103 320.0 1311.5Q538 1520 911 1520Q1036 1520 1151.0 1492.0Q1266 1464 1372 1409V1100Q1265 1173 1161.0 1207.0Q1057 1241 942 1241Q736 1241 618.0 1109.0Q500 977 500 745Q500 514 618.0 382.0Q736 250 942 250Q1057 250 1161.0 284.0Q1265 318 1372 391Z" fill="#333" transform="translate(242.3662,50.0000) scale(0.009766,-0.009766)" /><path d="M72 1120H420L608 348L797 1120H1096L1284 356L1473 1120H1821L1526 0H1135L946 770L758 0H367Z" fill="#333" transform="translate(264.0068,50.0000) scale(0.009766,-0.009766)" /><path d="M172 1120H530V0H172ZM172 1556H530V1264H172Z" fill="#333" transform="translate(282.4834,50.0000) scale(0.009766,-0.009766)" /><path d="M563 1438V1120H932V864H563V389Q563 311 594.0 283.5Q625 256 717 256H901V0H594Q382 0 293.5 88.5Q205 177 205 389V864H27V1120H205V1438Z" fill="#333" transform="translate(289.3389,50.0000) scale(0.009766,-0.009766)" /><path d="M1298 682V0H938V111V520Q938 667 931.5 722.0Q925 777 909 803Q888 838 852.0 857.5Q816 877 770 877Q658 877 594.0 790.5Q530 704 530 551V0H172V1556H530V956Q611 1054 702.0 1100.5Q793 1147 903 1147Q1097 1147 1197.5 1028.0Q1298 909 1298 682Z" fill="#333" transform="translate(298.8994,50.0000) scale(0.009766,-0.009766)" /><path d="M188 1493H1227V1202H573V924H1188V633H573V0H188Z" fill="#333" transform="translate(320.1006,50.0000) scale(0.009766,-0.009766)" /><path d="M172 1556H530V0H172Z" fill="#333" transform="translate(333.7627,50.0000) scale(0.009766,-0.009766)" /><path d="M705 891Q586 891 523.5 805.5Q461 720 461 559Q461 398 523.5 312.5Q586 227 705 227Q822 227 884.0 312.5Q946 398 946 559Q946 720 884.0 805.5Q822 891 705 891ZM705 1147Q994 1147 1156.5 991.0Q1319 835 1319 559Q1319 283 1156.5 127.0Q994 -29 705 -29Q415 -29 251.5 127.0Q88 283 88 559Q88 835 251.5 991.0Q415 1147 705 1147Z" fill="#333" transform="translate(340.6182,50.0000) scale(0.009766,-0.009766)" /><path d="M72 1120H420L608 348L797 1120H1096L1284 356L1473 1120H1821L1526 0H1135L946 770L758 0H367Z" fill="#333" transform="translate(354.3584,50.0000) scale(0.009766,-0.009766)" /><path d="M111 735H739V444H111Z" fill="#333" transform="translate(372.8350,50.0000) scale(0.009766,-0.009766)" /><path d="M188 1493H678L1018 694L1360 1493H1849V0H1485V1092L1141 287H897L553 1092V0H188Z" fill="#333" transform="translate(381.1357,50.0000) scale(0.009766,-0.009766)" /><path d="M674 504Q562 504 505.5 466.0Q449 428 449 354Q449 286 494.5 247.5Q540 209 621 209Q722 209 791.0 281.5Q860 354 860 463V504ZM1221 639V0H860V166Q788 64 698.0 17.5Q608 -29 479 -29Q305 -29 196.5 72.5Q88 174 88 336Q88 533 223.5 625.0Q359 717 649 717H860V745Q860 830 793.0 869.5Q726 909 584 909Q469 909 370.0 886.0Q271 863 186 817V1090Q301 1118 417.0 1132.5Q533 1147 649 1147Q952 1147 1086.5 1027.5Q1221 908 1221 639Z" fill="#333" transform="translate(401.0381,50.0000) scale(0.009766,-0.009766)" /><path d="M563 1438V1120H932V864H563V389Q563 311 594.0 283.5Q625 256 717 256H901V0H594Q382 0 293.5 88.5Q205 177 205 389V864H27V1120H205V1438Z" fill="#333" transform="translate(414.5342,50.0000) scale(0.009766,-0.009766)" /><path d="M1077 1085V793Q1004 843 930.5 867.0Q857 891 778 891Q628 891 544.5 803.5Q461 716 461 559Q461 402 544.5 314.5Q628 227 778 227Q862 227 937.5 252.0Q1013 277 1077 326V33Q993 2 906.5 -13.5Q820 -29 733 -29Q430 -29 259.0 126.5Q88 282 88 559Q88 836 259.0 991.5Q430 1147 733 1147Q821 1147 906.5 1131.5Q992 1116 1077 1085Z" fill="#333" transform="translate(424.0947,50.0000) scale(0.009766,-0.009766)" /><path d="M1298 682V0H938V111V520Q938 667 931.5 722.0Q925 777 909 803Q888 838 852.0 857.5Q816 877 770 877Q658 877 594.0 790.5Q530 704 530 551V0H172V1556H530V956Q611 1054 702.0 1100.5Q793 1147 903 1147Q1097 1147 1197.5 1028.0Q1298 909 1298 682Z" fill="#333" transform="translate(435.9502,50.0000) scale(0.009766,-0.009766)" /><path d="M172 1120H530V0H172ZM172 1556H530V1264H172Z" fill="#333" transform="translate(450.1885,50.0000) scale(0.009766,-0.009766)" /><path d="M1298 682V0H938V111V522Q938 667 931.5 722.0Q925 777 909 803Q888 838 852.0 857.5Q816 877 770 877Q658 877 594.0 790.5Q530 704 530 551V0H172V1120H530V956Q611 1054 702.0 1100.5Q793 1147 903 1147Q1097 1147 1197.5 1028.0Q1298 909 1298 682Z" fill="#333" transform="translate(457.0439,50.0000) scale(0.009766,-0.009766)" /><path d="M934 190Q860 92 771.0 46.0Q682 0 565 0Q360 0 226.0 161.5Q92 323 92 573Q92 824 226.0 984.5Q360 1145 565 1145Q682 1145 771.0 1099.0Q860 1053 934 954V1120H1294V113Q1294 -157 1123.5 -299.5Q953 -442 629 -442Q524 -442 426.0 -426.0Q328 -410 229 -377V-98Q323 -152 413.0 -178.5Q503 -205 594 -205Q770 -205 852.0 -128.0Q934 -51 934 113ZM698 887Q587 887 525.0 805.0Q463 723 463 573Q463 419 523.0 339.5Q583 260 698 260Q810 260 872.0 342.0Q934 424 934 573Q934 723 872.0 805.0Q810 887 698 887Z" fill="#333" transform="translate(471.2822,50.0000) scale(0.009766,-0.009766)" /><path d="M188 1493H573V924H1141V1493H1526V0H1141V633H573V0H188Z" fill="#333" transform="translate(492.5615,50.0000) scale(0.009766,-0.009766)" /><path d="M1290 563V461H453Q466 335 544.0 272.0Q622 209 762 209Q875 209 993.5 242.5Q1112 276 1237 344V68Q1110 20 983.0 -4.5Q856 -29 729 -29Q425 -29 256.5 125.5Q88 280 88 559Q88 833 253.5 990.0Q419 1147 709 1147Q973 1147 1131.5 988.0Q1290 829 1290 563ZM922 682Q922 784 862.5 846.5Q803 909 707 909Q603 909 538.0 850.5Q473 792 457 682Z" fill="#333" transform="translate(509.2998,50.0000) scale(0.009766,-0.009766)" /><path d="M674 504Q562 504 505.5 466.0Q449 428 449 354Q449 286 494.5 247.5Q540 209 621 209Q722 209 791.0 281.5Q860 354 860 463V504ZM1221 639V0H860V166Q788 64 698.0 17.5Q608 -29 479 -29Q305 -29 196.5 72.5Q88 174 88 336Q88 533 223.5 625.0Q359 717 649 717H860V745Q860 830 793.0 869.5Q726 909 584 909Q469 909 370.0 886.0Q271 863 186 817V1090Q301 1118 417.0 1132.5Q533 1147 649 1147Q952 1147 1086.5 1027.5Q1221 908 1221 639Z" fill="#333" transform="translate(522.8643,50.0000) scale(0.009766,-0.009766)" /><path d="M934 956V1556H1294V0H934V162Q860 63 771.0 17.0Q682 -29 565 -29Q358 -29 225.0 135.5Q92 300 92 559Q92 818 225.0 982.5Q358 1147 565 1147Q681 1147 770.5 1100.5Q860 1054 934 956ZM698 231Q813 231 873.5 315.0Q934 399 934 559Q934 719 873.5 803.0Q813 887 698 887Q584 887 523.5 803.0Q463 719 463 559Q463 399 523.5 315.0Q584 231 698 231Z" fill="#333" transform="translate(536.3604,50.0000) scale(0.009766,-0.009766)" /></g><rect x="190" y="72" width="48" height="48" fill="#2e8b57" />
    <rect x="238" y="72" width="48" height="48" fill="#2e8b57" />
    <rect x="286" y="72" width="48" height="48" fill="#5a9e45" />
    <rect x="334" y="72" width="48" height="48" fill="#8bb832" />
    <rect x="382" y="72" width="48" height="48" fill="#bdd01e" />
    <rect x="430" y="72" width="48" height="48" fill="#e8d810" />
    <rect x="478" y="72" width="48" height="48" fill="#e8d810" />
    <rect x="526" y="72" width="48" height="48" fill="#e8d810" />
    <rect x="190" y="72" width="384" height="48" fill="none" stroke="#888" stroke-width="1.5" />
    <line x1="238" y1="72" x2="238" y2="120" stroke="#888" stroke-width="1.2" />
    <line x1="286" y1="72" x2="286" y2="120" stroke="#888" stroke-width="1.2" />
    <line x1="334" y1="72" x2="334" y2="120" stroke="#888" stroke-width="1.2" />
    <line x1="382" y1="72" x2="382" y2="120" stroke="#888" stroke-width="1.2" />
    <line x1="430" y1="72" x2="430" y2="120" stroke="#888" stroke-width="1.2" />
    <line x1="478" y1="72" x2="478" y2="120" stroke="#888" stroke-width="1.2" />
    <line x1="526" y1="72" x2="526" y2="120" stroke="#888" stroke-width="1.2" />

    <line x1="342" y1="130" x2="342" y2="150" stroke="#555" stroke-width="1.8" marker-end="url(#arrowhead)" />
    <g><path d="M1484 1493 1194 0H992L1249 1323H515L258 0H56L346 1493Z" fill="#444" transform="translate(362.0000,146.0000) scale(0.008301,-0.008301)" /><path d="M1219 213V614H889V780H1419V139Q1302 56 1161.0 13.5Q1020 -29 860 -29Q510 -29 312.5 175.5Q115 380 115 745Q115 1111 312.5 1315.5Q510 1520 860 1520Q1006 1520 1137.5 1484.0Q1269 1448 1380 1378V1163Q1268 1258 1142.0 1306.0Q1016 1354 877 1354Q603 1354 465.5 1201.0Q328 1048 328 745Q328 443 465.5 290.0Q603 137 877 137Q984 137 1068.0 155.5Q1152 174 1219 213Z" fill="#444" transform="translate(374.7832,149.0000) scale(0.005859,-0.005859)" /><path d="M403 1327V166H647Q956 166 1099.5 306.0Q1243 446 1243 748Q1243 1048 1099.5 1187.5Q956 1327 647 1327ZM201 1493H616Q1050 1493 1253.0 1312.5Q1456 1132 1456 748Q1456 362 1252.0 181.0Q1048 0 616 0H201Z" fill="#444" transform="translate(384.0820,149.0000) scale(0.005859,-0.005859)" /><path d="M201 1493H502L883 477L1266 1493H1567V0H1370V1311L985 287H782L397 1311V0H201Z" fill="#444" transform="translate(393.3223,149.0000) scale(0.005859,-0.005859)" /></g><rect x="190" y="158" width="48" height="48" fill="#2e8b57" />
    <rect x="238" y="158" width="48" height="48" fill="#2e8b57" />
    <rect x="286" y="158" width="48" height="48" fill="#2e8b57" />
    <rect x="334" y="158" width="48" height="48" fill="#2e8b57" />
    <rect x="382" y="158" width="48" height="48" fill="#2e8b57" />
    <rect x="430" y="158" width="48" height="48" fill="#2e8b57" />
    <rect x="478" y="158" width="48" height="48" fill="#2e8b57" />
    <rect x="526" y="158" width="48" height="48" fill="#2e8b57" />
    <rect x="190" y="158" width="384" height="48" fill="none" stroke="#888" stroke-width="1.5" />
    <line x1="238" y1="158" x2="238" y2="206" stroke="#888" stroke-width="1.2" />
    <line x1="286" y1="158" x2="286" y2="206" stroke="#888" stroke-width="1.2" />
    <line x1="334" y1="158" x2="334" y2="206" stroke="#888" stroke-width="1.2" />
    <line x1="382" y1="158" x2="382" y2="206" stroke="#888" stroke-width="1.2" />
    <line x1="430" y1="158" x2="430" y2="206" stroke="#888" stroke-width="1.2" />
    <line x1="478" y1="158" x2="478" y2="206" stroke="#888" stroke-width="1.2" />
    <line x1="526" y1="158" x2="526" y2="206" stroke="#888" stroke-width="1.2" />

    <line x1="286" y1="62" x2="286" y2="220" stroke="#aaa" stroke-width="1.2" stroke-dasharray="5,4" />
    <line x1="430" y1="62" x2="430" y2="220" stroke="#aaa" stroke-width="1.2" stroke-dasharray="5,4" />

    <g><path d="M629 231Q767 231 853.5 358.0Q940 485 940 690Q940 783 891.5 835.0Q843 887 756 887Q620 887 532.0 761.5Q444 636 444 440Q444 338 491.5 284.5Q539 231 629 231ZM1006 956 1122 1556H1483L1180 0H819L852 162Q770 64 680.0 17.5Q590 -29 483 -29Q294 -29 184.0 91.0Q74 211 74 418Q74 547 112.5 669.0Q151 791 223 891Q314 1017 428.5 1082.0Q543 1147 674 1147Q789 1147 869.5 1100.5Q950 1054 1006 956Z" fill="#333" transform="translate(234.0630,227.0000) scale(0.005371,-0.005371)" /></g><g><path d="M334 1493H719L608 924H1176L1286 1493H1671L1380 0H995L1118 633H551L428 0H43Z" fill="#333" transform="translate(329.3103,227.0000) scale(0.005371,-0.005371)" /><path d="M217 760H1499V524H217Z" fill="#333" transform="translate(342.3459,227.0000) scale(0.005371,-0.005371)" /><path d="M629 231Q767 231 853.5 358.0Q940 485 940 690Q940 783 891.5 835.0Q843 887 756 887Q620 887 532.0 761.5Q444 636 444 440Q444 338 491.5 284.5Q539 231 629 231ZM1006 956 1122 1556H1483L1180 0H819L852 162Q770 64 680.0 17.5Q590 -29 483 -29Q294 -29 184.0 91.0Q74 211 74 418Q74 547 112.5 669.0Q151 791 223 891Q314 1017 428.5 1082.0Q543 1147 674 1147Q789 1147 869.5 1100.5Q950 1054 1006 956Z" fill="#333" transform="translate(355.3923,227.0000) scale(0.005371,-0.005371)" /><path d="M217 760H1499V524H217Z" fill="#333" transform="translate(367.0959,227.0000) scale(0.005371,-0.005371)" /><path d="M1147 1085 1094 807Q989 857 885.0 883.0Q781 909 688 909Q582 909 524.5 881.5Q467 854 467 803Q467 773 499.0 755.0Q531 737 625 717L690 705Q907 659 994.0 586.5Q1081 514 1081 385Q1081 190 928.0 80.5Q775 -29 500 -29Q385 -29 265.0 -11.0Q145 7 20 43L74 324Q171 267 281.5 238.0Q392 209 508 209Q621 209 678.0 236.0Q735 263 735 315Q735 351 703.0 371.0Q671 391 571 412L506 424Q314 464 232.0 542.0Q150 620 150 758Q150 945 291.5 1046.0Q433 1147 696 1147Q811 1147 922.5 1131.5Q1034 1116 1147 1085Z" fill="#333" transform="translate(380.1423,227.0000) scale(0.005371,-0.005371)" /></g><g><path d="M1147 1085 1094 807Q989 857 885.0 883.0Q781 909 688 909Q582 909 524.5 881.5Q467 854 467 803Q467 773 499.0 755.0Q531 737 625 717L690 705Q907 659 994.0 586.5Q1081 514 1081 385Q1081 190 928.0 80.5Q775 -29 500 -29Q385 -29 265.0 -11.0Q145 7 20 43L74 324Q171 267 281.5 238.0Q392 209 508 209Q621 209 678.0 236.0Q735 263 735 315Q735 351 703.0 371.0Q671 391 571 412L506 424Q314 464 232.0 542.0Q150 620 150 758Q150 945 291.5 1046.0Q433 1147 696 1147Q811 1147 922.5 1131.5Q1034 1116 1147 1085Z" fill="#333" transform="translate(498.7263,227.0000) scale(0.005371,-0.005371)" /></g><line x1="194" y1="230" x2="282" y2="230" stroke="#333" stroke-width="1" />
    <line x1="194" y1="226" x2="194" y2="234" stroke="#333" stroke-width="1" />
    <line x1="282" y1="226" x2="282" y2="234" stroke="#333" stroke-width="1" />
    <g><path d="M334 1493H719L428 0H43Z" fill="#333" transform="translate(193.6128,244.0000) scale(0.004883,-0.004883)" /><path d="M1321 682 1188 0H829L942 584Q954 641 960.5 680.5Q967 720 967 743Q967 807 931.5 842.0Q896 877 831 877Q720 877 640.5 790.5Q561 704 530 551L422 0H63L281 1120H641L608 956Q707 1053 807.0 1100.0Q907 1147 1016 1147Q1171 1147 1255.0 1066.0Q1339 985 1339 838Q1339 806 1334.5 767.0Q1330 728 1321 682Z" fill="#333" transform="translate(197.3335,244.0000) scale(0.004883,-0.004883)" /><path d="M1106 1556 1059 1321H862Q787 1321 752.5 1293.5Q718 1266 705 1199L688 1120H991L942 864H639L471 0H111L279 864H102L152 1120H328L344 1198Q381 1384 498.0 1470.0Q615 1556 831 1556Z" fill="#333" transform="translate(204.4526,244.0000) scale(0.004883,-0.004883)" /><path d="M1288 518 1276 461H438Q438 455 437.0 443.5Q436 432 436 426Q436 317 501.5 263.0Q567 209 698 209Q811 209 936.5 243.0Q1062 277 1200 344L1145 66Q1014 18 884.5 -5.5Q755 -29 621 -29Q359 -29 216.5 92.0Q74 213 74 434Q74 562 119.5 682.5Q165 803 252 903Q355 1023 498.5 1085.0Q642 1147 817 1147Q1044 1147 1177.5 1026.0Q1311 905 1311 700Q1311 660 1305.5 615.5Q1300 571 1288 518ZM950 682Q953 695 954.5 708.5Q956 722 956 735Q956 815 908.0 862.0Q860 909 778 909Q673 909 599.5 851.5Q526 794 487 682Z" fill="#333" transform="translate(208.8032,244.0000) scale(0.004883,-0.004883)" /><path d="M1053 815Q1016 836 971.0 847.0Q926 858 874 858Q737 858 646.5 770.0Q556 682 524 516L422 0H63L281 1120H641L602 928Q673 1034 779.5 1090.5Q886 1147 1016 1147Q1035 1147 1059.0 1145.0Q1083 1143 1116 1139Z" fill="#333" transform="translate(215.5854,244.0000) scale(0.004883,-0.004883)" /><path d="M1288 518 1276 461H438Q438 455 437.0 443.5Q436 432 436 426Q436 317 501.5 263.0Q567 209 698 209Q811 209 936.5 243.0Q1062 277 1200 344L1145 66Q1014 18 884.5 -5.5Q755 -29 621 -29Q359 -29 216.5 92.0Q74 213 74 434Q74 562 119.5 682.5Q165 803 252 903Q355 1023 498.5 1085.0Q642 1147 817 1147Q1044 1147 1177.5 1026.0Q1311 905 1311 700Q1311 660 1305.5 615.5Q1300 571 1288 518ZM950 682Q953 695 954.5 708.5Q956 722 956 735Q956 815 908.0 862.0Q860 909 778 909Q673 909 599.5 851.5Q526 794 487 682Z" fill="#333" transform="translate(220.5171,244.0000) scale(0.004883,-0.004883)" /><path d="M1321 682 1188 0H829L942 584Q954 641 960.5 680.5Q967 720 967 743Q967 807 931.5 842.0Q896 877 831 877Q720 877 640.5 790.5Q561 704 530 551L422 0H63L281 1120H641L608 956Q707 1053 807.0 1100.0Q907 1147 1016 1147Q1171 1147 1255.0 1066.0Q1339 985 1339 838Q1339 806 1334.5 767.0Q1330 728 1321 682Z" fill="#333" transform="translate(227.2993,244.0000) scale(0.004883,-0.004883)" /><path d="M1190 1085 1133 793Q1061 841 991.0 866.0Q921 891 854 891Q679 891 568.0 773.5Q457 656 457 473Q457 356 526.0 291.5Q595 227 721 227Q805 227 886.0 252.0Q967 277 1040 326L985 33Q896 2 806.0 -13.5Q716 -29 625 -29Q361 -29 218.5 89.5Q76 208 76 426Q76 563 128.5 692.0Q181 821 279 924Q388 1037 529.0 1092.0Q670 1147 854 1147Q939 1147 1023.0 1131.5Q1107 1116 1190 1085Z" fill="#333" transform="translate(234.4185,244.0000) scale(0.004883,-0.004883)" /><path d="M1288 518 1276 461H438Q438 455 437.0 443.5Q436 432 436 426Q436 317 501.5 263.0Q567 209 698 209Q811 209 936.5 243.0Q1062 277 1200 344L1145 66Q1014 18 884.5 -5.5Q755 -29 621 -29Q359 -29 216.5 92.0Q74 213 74 434Q74 562 119.5 682.5Q165 803 252 903Q355 1023 498.5 1085.0Q642 1147 817 1147Q1044 1147 1177.5 1026.0Q1311 905 1311 700Q1311 660 1305.5 615.5Q1300 571 1288 518ZM950 682Q953 695 954.5 708.5Q956 722 956 735Q956 815 908.0 862.0Q860 909 778 909Q673 909 599.5 851.5Q526 794 487 682Z" fill="#333" transform="translate(240.3462,244.0000) scale(0.004883,-0.004883)" /><path d="M664 1202 485 291H623Q892 291 1049.0 442.0Q1206 593 1206 850Q1206 1024 1103.5 1113.0Q1001 1202 799 1202ZM334 1493H739Q1029 1493 1174.0 1458.5Q1319 1424 1415 1343Q1512 1262 1561.0 1146.5Q1610 1031 1610 885Q1610 682 1526.5 502.5Q1443 323 1292 201Q1160 92 985.5 46.0Q811 0 449 0H43Z" fill="#333" transform="translate(250.6099,244.0000) scale(0.004883,-0.004883)" /><path d="M1288 518 1276 461H438Q438 455 437.0 443.5Q436 432 436 426Q436 317 501.5 263.0Q567 209 698 209Q811 209 936.5 243.0Q1062 277 1200 344L1145 66Q1014 18 884.5 -5.5Q755 -29 621 -29Q359 -29 216.5 92.0Q74 213 74 434Q74 562 119.5 682.5Q165 803 252 903Q355 1023 498.5 1085.0Q642 1147 817 1147Q1044 1147 1177.5 1026.0Q1311 905 1311 700Q1311 660 1305.5 615.5Q1300 571 1288 518ZM950 682Q953 695 954.5 708.5Q956 722 956 735Q956 815 908.0 862.0Q860 909 778 909Q673 909 599.5 851.5Q526 794 487 682Z" fill="#333" transform="translate(258.9106,244.0000) scale(0.004883,-0.004883)" /><path d="M365 1556H725L422 0H63Z" fill="#333" transform="translate(265.6929,244.0000) scale(0.004883,-0.004883)" /><path d="M674 504Q540 504 471.5 462.5Q403 421 403 340Q403 279 443.5 244.0Q484 209 555 209Q665 209 739.0 275.5Q813 342 838 463L846 504ZM1233 639 1108 0H750L780 166Q692 66 594.0 18.5Q496 -29 381 -29Q222 -29 128.5 53.5Q35 136 35 276Q35 490 200.5 603.5Q366 717 678 717H889L893 745Q896 759 896.5 765.0Q897 771 897 776Q897 842 834.5 875.5Q772 909 649 909Q538 909 434.0 886.0Q330 863 233 817L287 1090Q399 1118 516.5 1132.5Q634 1147 760 1147Q1009 1147 1130.0 1061.5Q1251 976 1251 801Q1251 767 1246.5 726.5Q1242 686 1233 639Z" fill="#333" transform="translate(269.1206,244.0000) scale(0.004883,-0.004883)" /><path d="M135 1120H473L627 344L1024 1120H1407L698 -106Q579 -313 478.0 -377.5Q377 -442 217 -442H0L37 -207H150Q238 -207 286.5 -177.5Q335 -148 373 -74L406 -14Z" fill="#333" transform="translate(275.8687,244.0000) scale(0.004883,-0.004883)" /></g><line x1="290" y1="230" x2="426" y2="230" stroke="#333" stroke-width="1" />
    <line x1="290" y1="226" x2="290" y2="234" stroke="#333" stroke-width="1" />
    <line x1="426" y1="226" x2="426" y2="234" stroke="#333" stroke-width="1" />
    <g><path d="M334 1493H719L428 0H43Z" fill="#333" transform="translate(300.0142,244.0000) scale(0.004883,-0.004883)" /><path d="M1321 682 1188 0H829L942 584Q954 641 960.5 680.5Q967 720 967 743Q967 807 931.5 842.0Q896 877 831 877Q720 877 640.5 790.5Q561 704 530 551L422 0H63L281 1120H641L608 956Q707 1053 807.0 1100.0Q907 1147 1016 1147Q1171 1147 1255.0 1066.0Q1339 985 1339 838Q1339 806 1334.5 767.0Q1330 728 1321 682Z" fill="#333" transform="translate(303.7349,244.0000) scale(0.004883,-0.004883)" /><path d="M737 1438 676 1120H1042L991 864H625L533 390Q529 374 527.5 363.0Q526 352 526 342Q526 296 556.5 276.0Q587 256 659 256H844L793 0H492Q330 0 245.0 68.0Q160 136 160 264Q160 292 163.0 324.0Q166 356 172 389L264 864H88L137 1120H315L377 1438Z" fill="#333" transform="translate(310.8540,244.0000) scale(0.004883,-0.004883)" /><path d="M1288 518 1276 461H438Q438 455 437.0 443.5Q436 432 436 426Q436 317 501.5 263.0Q567 209 698 209Q811 209 936.5 243.0Q1062 277 1200 344L1145 66Q1014 18 884.5 -5.5Q755 -29 621 -29Q359 -29 216.5 92.0Q74 213 74 434Q74 562 119.5 682.5Q165 803 252 903Q355 1023 498.5 1085.0Q642 1147 817 1147Q1044 1147 1177.5 1026.0Q1311 905 1311 700Q1311 660 1305.5 615.5Q1300 571 1288 518ZM950 682Q953 695 954.5 708.5Q956 722 956 735Q956 815 908.0 862.0Q860 909 778 909Q673 909 599.5 851.5Q526 794 487 682Z" fill="#333" transform="translate(315.6343,244.0000) scale(0.004883,-0.004883)" /><path d="M1053 815Q1016 836 971.0 847.0Q926 858 874 858Q737 858 646.5 770.0Q556 682 524 516L422 0H63L281 1120H641L602 928Q673 1034 779.5 1090.5Q886 1147 1016 1147Q1035 1147 1059.0 1145.0Q1083 1143 1116 1139Z" fill="#333" transform="translate(322.4165,244.0000) scale(0.004883,-0.004883)" /><path d="M1284 934Q1367 1037 1472.5 1092.0Q1578 1147 1692 1147Q1842 1147 1928.5 1064.5Q2015 982 2015 838Q2015 808 2010.5 769.5Q2006 731 1997 682L1864 0H1503L1616 584L1619 599Q1645 723 1645 758Q1645 813 1613.5 845.0Q1582 877 1528 877Q1425 877 1353.5 792.5Q1282 708 1251 551L1143 0H782L897 584Q912 659 918.0 697.5Q924 736 924 758Q924 814 893.0 845.5Q862 877 807 877Q708 877 633.5 789.5Q559 702 530 551L422 0H63L281 1120H641L608 956Q692 1051 787.0 1099.0Q882 1147 985 1147Q1101 1147 1184.0 1087.5Q1267 1028 1284 934Z" fill="#333" transform="translate(327.3481,244.0000) scale(0.004883,-0.004883)" /><path d="M1288 518 1276 461H438Q438 455 437.0 443.5Q436 432 436 426Q436 317 501.5 263.0Q567 209 698 209Q811 209 936.5 243.0Q1062 277 1200 344L1145 66Q1014 18 884.5 -5.5Q755 -29 621 -29Q359 -29 216.5 92.0Q74 213 74 434Q74 562 119.5 682.5Q165 803 252 903Q355 1023 498.5 1085.0Q642 1147 817 1147Q1044 1147 1177.5 1026.0Q1311 905 1311 700Q1311 660 1305.5 615.5Q1300 571 1288 518ZM950 682Q953 695 954.5 708.5Q956 722 956 735Q956 815 908.0 862.0Q860 909 778 909Q673 909 599.5 851.5Q526 794 487 682Z" fill="#333" transform="translate(337.7681,244.0000) scale(0.004883,-0.004883)" /><path d="M629 231Q767 231 853.5 358.0Q940 485 940 690Q940 783 891.5 835.0Q843 887 756 887Q620 887 532.0 761.5Q444 636 444 440Q444 338 491.5 284.5Q539 231 629 231ZM1006 956 1122 1556H1483L1180 0H819L852 162Q770 64 680.0 17.5Q590 -29 483 -29Q294 -29 184.0 91.0Q74 211 74 418Q74 547 112.5 669.0Q151 791 223 891Q314 1017 428.5 1082.0Q543 1147 674 1147Q789 1147 869.5 1100.5Q950 1054 1006 956Z" fill="#333" transform="translate(344.5503,244.0000) scale(0.004883,-0.004883)" /><path d="M281 1120H641L422 0H63ZM365 1556H725L668 1264H307Z" fill="#333" transform="translate(351.7085,244.0000) scale(0.004883,-0.004883)" /><path d="M674 504Q540 504 471.5 462.5Q403 421 403 340Q403 279 443.5 244.0Q484 209 555 209Q665 209 739.0 275.5Q813 342 838 463L846 504ZM1233 639 1108 0H750L780 166Q692 66 594.0 18.5Q496 -29 381 -29Q222 -29 128.5 53.5Q35 136 35 276Q35 490 200.5 603.5Q366 717 678 717H889L893 745Q896 759 896.5 765.0Q897 771 897 776Q897 842 834.5 875.5Q772 909 649 909Q538 909 434.0 886.0Q330 863 233 817L287 1090Q399 1118 516.5 1132.5Q634 1147 760 1147Q1009 1147 1130.0 1061.5Q1251 976 1251 801Q1251 767 1246.5 726.5Q1242 686 1233 639Z" fill="#333" transform="translate(355.1362,244.0000) scale(0.004883,-0.004883)" /><path d="M737 1438 676 1120H1042L991 864H625L533 390Q529 374 527.5 363.0Q526 352 526 342Q526 296 556.5 276.0Q587 256 659 256H844L793 0H492Q330 0 245.0 68.0Q160 136 160 264Q160 292 163.0 324.0Q166 356 172 389L264 864H88L137 1120H315L377 1438Z" fill="#333" transform="translate(361.8843,244.0000) scale(0.004883,-0.004883)" /><path d="M1288 518 1276 461H438Q438 455 437.0 443.5Q436 432 436 426Q436 317 501.5 263.0Q567 209 698 209Q811 209 936.5 243.0Q1062 277 1200 344L1145 66Q1014 18 884.5 -5.5Q755 -29 621 -29Q359 -29 216.5 92.0Q74 213 74 434Q74 562 119.5 682.5Q165 803 252 903Q355 1023 498.5 1085.0Q642 1147 817 1147Q1044 1147 1177.5 1026.0Q1311 905 1311 700Q1311 660 1305.5 615.5Q1300 571 1288 518ZM950 682Q953 695 954.5 708.5Q956 722 956 735Q956 815 908.0 862.0Q860 909 778 909Q673 909 599.5 851.5Q526 794 487 682Z" fill="#333" transform="translate(366.6646,244.0000) scale(0.004883,-0.004883)" /><path d="M752 831Q883 831 950.5 892.0Q1018 953 1018 1071Q1018 1145 971.5 1179.5Q925 1214 825 1214H666L590 831ZM539 565 428 0H43L334 1493H903Q1149 1493 1276.0 1401.0Q1403 1309 1403 1130Q1403 949 1303.0 832.0Q1203 715 1032 698Q1110 682 1162.0 618.5Q1214 555 1253 424L1380 0H997L885 371Q851 482 802.5 523.5Q754 565 662 565Z" fill="#333" transform="translate(376.9282,244.0000) scale(0.004883,-0.004883)" /><path d="M1288 518 1276 461H438Q438 455 437.0 443.5Q436 432 436 426Q436 317 501.5 263.0Q567 209 698 209Q811 209 936.5 243.0Q1062 277 1200 344L1145 66Q1014 18 884.5 -5.5Q755 -29 621 -29Q359 -29 216.5 92.0Q74 213 74 434Q74 562 119.5 682.5Q165 803 252 903Q355 1023 498.5 1085.0Q642 1147 817 1147Q1044 1147 1177.5 1026.0Q1311 905 1311 700Q1311 660 1305.5 615.5Q1300 571 1288 518ZM950 682Q953 695 954.5 708.5Q956 722 956 735Q956 815 908.0 862.0Q860 909 778 909Q673 909 599.5 851.5Q526 794 487 682Z" fill="#333" transform="translate(384.6284,244.0000) scale(0.004883,-0.004883)" /><path d="M856 190Q770 92 681.0 46.0Q592 0 487 0Q297 0 186.5 122.5Q76 245 76 457Q76 570 114.5 683.5Q153 797 225 897Q313 1018 427.0 1081.5Q541 1145 672 1145Q790 1145 870.5 1099.0Q951 1053 1006 954L1036 1120H1397L1208 147Q1150 -154 960.0 -298.0Q770 -442 432 -442Q328 -442 231.5 -426.0Q135 -410 41 -377L94 -98Q179 -152 264.0 -178.5Q349 -205 438 -205Q616 -205 711.5 -129.0Q807 -53 840 113ZM756 887Q624 887 536.5 768.0Q449 649 449 469Q449 367 496.0 313.5Q543 260 633 260Q764 260 852.0 378.5Q940 497 940 674Q940 778 893.0 832.5Q846 887 756 887Z" fill="#333" transform="translate(391.4106,244.0000) scale(0.004883,-0.004883)" /><path d="M281 1120H641L422 0H63ZM365 1556H725L668 1264H307Z" fill="#333" transform="translate(398.5688,244.0000) scale(0.004883,-0.004883)" /><path d="M768 891Q629 891 539.0 765.0Q449 639 449 444Q449 338 497.5 282.5Q546 227 639 227Q778 227 868.0 353.5Q958 480 958 676Q958 781 909.5 836.0Q861 891 768 891ZM797 1147Q1047 1147 1190.0 1020.0Q1333 893 1333 674Q1333 547 1288.0 427.5Q1243 308 1157 209Q1055 91 916.0 31.0Q777 -29 606 -29Q359 -29 216.5 98.0Q74 225 74 444Q74 570 120.0 690.5Q166 811 252 911Q352 1027 490.5 1087.0Q629 1147 797 1147Z" fill="#333" transform="translate(401.9966,244.0000) scale(0.004883,-0.004883)" /><path d="M1321 682 1188 0H829L942 584Q954 641 960.5 680.5Q967 720 967 743Q967 807 931.5 842.0Q896 877 831 877Q720 877 640.5 790.5Q561 704 530 551L422 0H63L281 1120H641L608 956Q707 1053 807.0 1100.0Q907 1147 1016 1147Q1171 1147 1255.0 1066.0Q1339 985 1339 838Q1339 806 1334.5 767.0Q1330 728 1321 682Z" fill="#333" transform="translate(408.8667,244.0000) scale(0.004883,-0.004883)" /></g><line x1="434" y1="230" x2="570" y2="230" stroke="#333" stroke-width="1" />
    <line x1="434" y1="226" x2="434" y2="234" stroke="#333" stroke-width="1" />
    <line x1="570" y1="226" x2="570" y2="234" stroke="#333" stroke-width="1" />
    <g><path d="M334 1493H1372L1315 1202H662L608 924H1223L1165 633H551L485 291H1159L1104 0H43Z" fill="#333" transform="translate(450.9014,244.0000) scale(0.004883,-0.004883)" /><path d="M453 573 156 1120H528L694 788L985 1120H1374L864 575L1176 0H803L627 354L305 0H-84Z" fill="#333" transform="translate(457.7324,244.0000) scale(0.004883,-0.004883)" /><path d="M1288 518 1276 461H438Q438 455 437.0 443.5Q436 432 436 426Q436 317 501.5 263.0Q567 209 698 209Q811 209 936.5 243.0Q1062 277 1200 344L1145 66Q1014 18 884.5 -5.5Q755 -29 621 -29Q359 -29 216.5 92.0Q74 213 74 434Q74 562 119.5 682.5Q165 803 252 903Q355 1023 498.5 1085.0Q642 1147 817 1147Q1044 1147 1177.5 1026.0Q1311 905 1311 700Q1311 660 1305.5 615.5Q1300 571 1288 518ZM950 682Q953 695 954.5 708.5Q956 722 956 735Q956 815 908.0 862.0Q860 909 778 909Q673 909 599.5 851.5Q526 794 487 682Z" fill="#333" transform="translate(464.1826,244.0000) scale(0.004883,-0.004883)" /><path d="M1190 1085 1133 793Q1061 841 991.0 866.0Q921 891 854 891Q679 891 568.0 773.5Q457 656 457 473Q457 356 526.0 291.5Q595 227 721 227Q805 227 886.0 252.0Q967 277 1040 326L985 33Q896 2 806.0 -13.5Q716 -29 625 -29Q361 -29 218.5 89.5Q76 208 76 426Q76 563 128.5 692.0Q181 821 279 924Q388 1037 529.0 1092.0Q670 1147 854 1147Q939 1147 1023.0 1131.5Q1107 1116 1190 1085Z" fill="#333" transform="translate(470.9648,244.0000) scale(0.004883,-0.004883)" /><path d="M139 436 270 1120H629L516 537Q504 480 498.0 440.0Q492 400 492 377Q492 314 527.0 279.0Q562 244 627 244Q738 244 818.0 330.0Q898 416 928 569L1036 1120H1395L1178 0H817L850 164Q758 67 657.0 19.0Q556 -29 444 -29Q291 -29 207.0 52.0Q123 133 123 281Q123 316 127.0 355.0Q131 394 139 436Z" fill="#333" transform="translate(476.8926,244.0000) scale(0.004883,-0.004883)" /><path d="M737 1438 676 1120H1042L991 864H625L533 390Q529 374 527.5 363.0Q526 352 526 342Q526 296 556.5 276.0Q587 256 659 256H844L793 0H492Q330 0 245.0 68.0Q160 136 160 264Q160 292 163.0 324.0Q166 356 172 389L264 864H88L137 1120H315L377 1438Z" fill="#333" transform="translate(484.0117,244.0000) scale(0.004883,-0.004883)" /><path d="M281 1120H641L422 0H63ZM365 1556H725L668 1264H307Z" fill="#333" transform="translate(488.7920,244.0000) scale(0.004883,-0.004883)" /><path d="M768 891Q629 891 539.0 765.0Q449 639 449 444Q449 338 497.5 282.5Q546 227 639 227Q778 227 868.0 353.5Q958 480 958 676Q958 781 909.5 836.0Q861 891 768 891ZM797 1147Q1047 1147 1190.0 1020.0Q1333 893 1333 674Q1333 547 1288.0 427.5Q1243 308 1157 209Q1055 91 916.0 31.0Q777 -29 606 -29Q359 -29 216.5 98.0Q74 225 74 444Q74 570 120.0 690.5Q166 811 252 911Q352 1027 490.5 1087.0Q629 1147 797 1147Z" fill="#333" transform="translate(492.2197,244.0000) scale(0.004883,-0.004883)" /><path d="M1321 682 1188 0H829L942 584Q954 641 960.5 680.5Q967 720 967 743Q967 807 931.5 842.0Q896 877 831 877Q720 877 640.5 790.5Q561 704 530 551L422 0H63L281 1120H641L608 956Q707 1053 807.0 1100.0Q907 1147 1016 1147Q1171 1147 1255.0 1066.0Q1339 985 1339 838Q1339 806 1334.5 767.0Q1330 728 1321 682Z" fill="#333" transform="translate(499.0898,244.0000) scale(0.004883,-0.004883)" /><path d="M334 1493H719L608 924H1176L1286 1493H1671L1380 0H995L1118 633H551L428 0H43Z" fill="#333" transform="translate(509.6904,244.0000) scale(0.004883,-0.004883)" /><path d="M768 891Q629 891 539.0 765.0Q449 639 449 444Q449 338 497.5 282.5Q546 227 639 227Q778 227 868.0 353.5Q958 480 958 676Q958 781 909.5 836.0Q861 891 768 891ZM797 1147Q1047 1147 1190.0 1020.0Q1333 893 1333 674Q1333 547 1288.0 427.5Q1243 308 1157 209Q1055 91 916.0 31.0Q777 -29 606 -29Q359 -29 216.5 98.0Q74 225 74 444Q74 570 120.0 690.5Q166 811 252 911Q352 1027 490.5 1087.0Q629 1147 797 1147Z" fill="#333" transform="translate(518.0596,244.0000) scale(0.004883,-0.004883)" /><path d="M1053 815Q1016 836 971.0 847.0Q926 858 874 858Q737 858 646.5 770.0Q556 682 524 516L422 0H63L281 1120H641L602 928Q673 1034 779.5 1090.5Q886 1147 1016 1147Q1035 1147 1059.0 1145.0Q1083 1143 1116 1139Z" fill="#333" transform="translate(524.9297,244.0000) scale(0.004883,-0.004883)" /><path d="M281 1120H641L422 0H63ZM365 1556H725L668 1264H307Z" fill="#333" transform="translate(529.8613,244.0000) scale(0.004883,-0.004883)" /><path d="M223 1120H1200L1151 870L453 256H1032L983 0H-18L29 250L729 864H174Z" fill="#333" transform="translate(533.2891,244.0000) scale(0.004883,-0.004883)" /><path d="M768 891Q629 891 539.0 765.0Q449 639 449 444Q449 338 497.5 282.5Q546 227 639 227Q778 227 868.0 353.5Q958 480 958 676Q958 781 909.5 836.0Q861 891 768 891ZM797 1147Q1047 1147 1190.0 1020.0Q1333 893 1333 674Q1333 547 1288.0 427.5Q1243 308 1157 209Q1055 91 916.0 31.0Q777 -29 606 -29Q359 -29 216.5 98.0Q74 225 74 444Q74 570 120.0 690.5Q166 811 252 911Q352 1027 490.5 1087.0Q629 1147 797 1147Z" fill="#333" transform="translate(539.1094,244.0000) scale(0.004883,-0.004883)" /><path d="M1321 682 1188 0H829L942 584Q954 641 960.5 680.5Q967 720 967 743Q967 807 931.5 842.0Q896 877 831 877Q720 877 640.5 790.5Q561 704 530 551L422 0H63L281 1120H641L608 956Q707 1053 807.0 1100.0Q907 1147 1016 1147Q1171 1147 1255.0 1066.0Q1339 985 1339 838Q1339 806 1334.5 767.0Q1330 728 1321 682Z" fill="#333" transform="translate(545.9795,244.0000) scale(0.004883,-0.004883)" /></g></g>
  </svg>

  
  
  
  
  

  
  <svg x="480" y="94" width="335" height="108" viewBox="0 0 520 168" preserveAspectRatio="xMidYMid meet">
    <defs>
      <marker id="arrow" markerWidth="7" markerHeight="5" refX="4" refY="2.5" orient="auto">
        <polygon points="0 0, 7 2.5, 0 5" fill="#555" />
      </marker>
    </defs>

    <rect x="2" y="2" width="516" height="164" rx="8" fill="#fdf5e0" stroke="#aaa" stroke-width="1.2" />
    <line x1="262" y1="20" x2="262" y2="152" stroke="#aaa" stroke-width="1" stroke-dasharray="5,4" />

    <g transform="translate(22,28) scale(0.82) translate(-22,-28)"><path d="M772 -270H475Q322 -23 249.0 199.5Q176 422 176 641Q176 860 249.5 1084.5Q323 1309 475 1554H772Q644 1317 580.0 1090.5Q516 864 516 643Q516 422 579.5 195.0Q643 -32 772 -270Z" fill="#333" transform="translate(22.0000,28.0000) scale(0.008301,-0.008301)" /><path d="M674 504Q562 504 505.5 466.0Q449 428 449 354Q449 286 494.5 247.5Q540 209 621 209Q722 209 791.0 281.5Q860 354 860 463V504ZM1221 639V0H860V166Q788 64 698.0 17.5Q608 -29 479 -29Q305 -29 196.5 72.5Q88 174 88 336Q88 533 223.5 625.0Q359 717 649 717H860V745Q860 830 793.0 869.5Q726 909 584 909Q469 909 370.0 886.0Q271 863 186 817V1090Q301 1118 417.0 1132.5Q533 1147 649 1147Q952 1147 1086.5 1027.5Q1221 908 1221 639Z" fill="#333" transform="translate(29.7695,28.0000) scale(0.008301,-0.008301)" /><path d="M164 -270Q292 -32 356.0 195.0Q420 422 420 643Q420 864 356.0 1090.5Q292 1317 164 1554H461Q613 1309 686.5 1084.5Q760 860 760 641Q760 422 687.0 199.5Q614 -23 461 -270Z" fill="#333" transform="translate(41.2412,28.0000) scale(0.008301,-0.008301)" /><path d="M188 1493H827Q1112 1493 1264.5 1366.5Q1417 1240 1417 1006Q1417 771 1264.5 644.5Q1112 518 827 518H573V0H188ZM573 1214V797H786Q898 797 959.0 851.5Q1020 906 1020 1006Q1020 1106 959.0 1160.0Q898 1214 786 1214Z" fill="#333" transform="translate(54.9292,28.0000) scale(0.008301,-0.008301)" /><path d="M1004 815Q957 837 910.5 847.5Q864 858 817 858Q679 858 604.5 769.5Q530 681 530 516V0H172V1120H530V936Q599 1046 688.5 1096.5Q778 1147 903 1147Q921 1147 942.0 1145.5Q963 1144 1003 1139Z" fill="#333" transform="translate(67.3887,28.0000) scale(0.008301,-0.008301)" /><path d="M1290 563V461H453Q466 335 544.0 272.0Q622 209 762 209Q875 209 993.5 242.5Q1112 276 1237 344V68Q1110 20 983.0 -4.5Q856 -29 729 -29Q425 -29 256.5 125.5Q88 280 88 559Q88 833 253.5 990.0Q419 1147 709 1147Q973 1147 1131.5 988.0Q1290 829 1290 563ZM922 682Q922 784 862.5 846.5Q803 909 707 909Q603 909 538.0 850.5Q473 792 457 682Z" fill="#333" transform="translate(75.7725,28.0000) scale(0.008301,-0.008301)" /><path d="M563 1438V1120H932V864H563V389Q563 311 594.0 283.5Q625 256 717 256H901V0H594Q382 0 293.5 88.5Q205 177 205 389V864H27V1120H205V1438Z" fill="#333" transform="translate(87.3022,28.0000) scale(0.008301,-0.008301)" /><path d="M1004 815Q957 837 910.5 847.5Q864 858 817 858Q679 858 604.5 769.5Q530 681 530 516V0H172V1120H530V936Q599 1046 688.5 1096.5Q778 1147 903 1147Q921 1147 942.0 1145.5Q963 1144 1003 1139Z" fill="#333" transform="translate(95.4287,28.0000) scale(0.008301,-0.008301)" /><path d="M674 504Q562 504 505.5 466.0Q449 428 449 354Q449 286 494.5 247.5Q540 209 621 209Q722 209 791.0 281.5Q860 354 860 463V504ZM1221 639V0H860V166Q788 64 698.0 17.5Q608 -29 479 -29Q305 -29 196.5 72.5Q88 174 88 336Q88 533 223.5 625.0Q359 717 649 717H860V745Q860 830 793.0 869.5Q726 909 584 909Q469 909 370.0 886.0Q271 863 186 817V1090Q301 1118 417.0 1132.5Q533 1147 649 1147Q952 1147 1086.5 1027.5Q1221 908 1221 639Z" fill="#333" transform="translate(103.8125,28.0000) scale(0.008301,-0.008301)" /><path d="M172 1120H530V0H172ZM172 1556H530V1264H172Z" fill="#333" transform="translate(115.2842,28.0000) scale(0.008301,-0.008301)" /><path d="M1298 682V0H938V111V522Q938 667 931.5 722.0Q925 777 909 803Q888 838 852.0 857.5Q816 877 770 877Q658 877 594.0 790.5Q530 704 530 551V0H172V1120H530V956Q611 1054 702.0 1100.5Q793 1147 903 1147Q1097 1147 1197.5 1028.0Q1298 909 1298 682Z" fill="#333" transform="translate(121.1113,28.0000) scale(0.008301,-0.008301)" /><path d="M172 1120H530V0H172ZM172 1556H530V1264H172Z" fill="#333" transform="translate(133.2139,28.0000) scale(0.008301,-0.008301)" /><path d="M1298 682V0H938V111V522Q938 667 931.5 722.0Q925 777 909 803Q888 838 852.0 857.5Q816 877 770 877Q658 877 594.0 790.5Q530 704 530 551V0H172V1120H530V956Q611 1054 702.0 1100.5Q793 1147 903 1147Q1097 1147 1197.5 1028.0Q1298 909 1298 682Z" fill="#333" transform="translate(139.0410,28.0000) scale(0.008301,-0.008301)" /><path d="M934 190Q860 92 771.0 46.0Q682 0 565 0Q360 0 226.0 161.5Q92 323 92 573Q92 824 226.0 984.5Q360 1145 565 1145Q682 1145 771.0 1099.0Q860 1053 934 954V1120H1294V113Q1294 -157 1123.5 -299.5Q953 -442 629 -442Q524 -442 426.0 -426.0Q328 -410 229 -377V-98Q323 -152 413.0 -178.5Q503 -205 594 -205Q770 -205 852.0 -128.0Q934 -51 934 113ZM698 887Q587 887 525.0 805.0Q463 723 463 573Q463 419 523.0 339.5Q583 260 698 260Q810 260 872.0 342.0Q934 424 934 573Q934 723 872.0 805.0Q810 887 698 887Z" fill="#333" transform="translate(151.1436,28.0000) scale(0.008301,-0.008301)" /><path d="M72 1120H420L608 348L797 1120H1096L1284 356L1473 1120H1821L1526 0H1135L946 770L758 0H367Z" fill="#333" transform="translate(169.2310,28.0000) scale(0.008301,-0.008301)" /><path d="M526 1493H748L221 -190H0Z" fill="#333" transform="translate(184.9360,28.0000) scale(0.008301,-0.008301)" /><path d="M705 891Q586 891 523.5 805.5Q461 720 461 559Q461 398 523.5 312.5Q586 227 705 227Q822 227 884.0 312.5Q946 398 946 559Q946 720 884.0 805.5Q822 891 705 891ZM705 1147Q994 1147 1156.5 991.0Q1319 835 1319 559Q1319 283 1156.5 127.0Q994 -29 705 -29Q415 -29 251.5 127.0Q88 283 88 559Q88 835 251.5 991.0Q415 1147 705 1147Z" fill="#333" transform="translate(191.1450,28.0000) scale(0.008301,-0.008301)" /><path d="M188 1493H573V0H188Z" fill="#333" transform="translate(208.7427,28.0000) scale(0.008301,-0.008301)" /><path d="M1298 682V0H938V111V522Q938 667 931.5 722.0Q925 777 909 803Q888 838 852.0 857.5Q816 877 770 877Q658 877 594.0 790.5Q530 704 530 551V0H172V1120H530V956Q611 1054 702.0 1100.5Q793 1147 903 1147Q1097 1147 1197.5 1028.0Q1298 909 1298 682Z" fill="#333" transform="translate(215.0679,28.0000) scale(0.008301,-0.008301)" /><path d="M530 162V-426H172V1120H530V956Q604 1054 694.0 1100.5Q784 1147 901 1147Q1108 1147 1241.0 982.5Q1374 818 1374 559Q1374 300 1241.0 135.5Q1108 -29 901 -29Q784 -29 694.0 17.5Q604 64 530 162ZM768 887Q653 887 591.5 802.5Q530 718 530 559Q530 400 591.5 315.5Q653 231 768 231Q883 231 943.5 315.0Q1004 399 1004 559Q1004 719 943.5 803.0Q883 887 768 887Z" fill="#333" transform="translate(227.1704,28.0000) scale(0.008301,-0.008301)" /><path d="M674 504Q562 504 505.5 466.0Q449 428 449 354Q449 286 494.5 247.5Q540 209 621 209Q722 209 791.0 281.5Q860 354 860 463V504ZM1221 639V0H860V166Q788 64 698.0 17.5Q608 -29 479 -29Q305 -29 196.5 72.5Q88 174 88 336Q88 533 223.5 625.0Q359 717 649 717H860V745Q860 830 793.0 869.5Q726 909 584 909Q469 909 370.0 886.0Q271 863 186 817V1090Q301 1118 417.0 1132.5Q533 1147 649 1147Q952 1147 1086.5 1027.5Q1221 908 1221 639Z" fill="#333" transform="translate(239.3394,28.0000) scale(0.008301,-0.008301)" /><path d="M172 1120H530V0H172ZM172 1556H530V1264H172Z" fill="#333" transform="translate(250.8110,28.0000) scale(0.008301,-0.008301)" /><path d="M1298 682V0H938V111V522Q938 667 931.5 722.0Q925 777 909 803Q888 838 852.0 857.5Q816 877 770 877Q658 877 594.0 790.5Q530 704 530 551V0H172V1120H530V956Q611 1054 702.0 1100.5Q793 1147 903 1147Q1097 1147 1197.5 1028.0Q1298 909 1298 682Z" fill="#333" transform="translate(256.6382,28.0000) scale(0.008301,-0.008301)" /><path d="M563 1438V1120H932V864H563V389Q563 311 594.0 283.5Q625 256 717 256H901V0H594Q382 0 293.5 88.5Q205 177 205 389V864H27V1120H205V1438Z" fill="#333" transform="translate(268.7407,28.0000) scale(0.008301,-0.008301)" /><path d="M172 1120H530V0H172ZM172 1556H530V1264H172Z" fill="#333" transform="translate(276.8672,28.0000) scale(0.008301,-0.008301)" /><path d="M1298 682V0H938V111V522Q938 667 931.5 722.0Q925 777 909 803Q888 838 852.0 857.5Q816 877 770 877Q658 877 594.0 790.5Q530 704 530 551V0H172V1120H530V956Q611 1054 702.0 1100.5Q793 1147 903 1147Q1097 1147 1197.5 1028.0Q1298 909 1298 682Z" fill="#333" transform="translate(282.6943,28.0000) scale(0.008301,-0.008301)" /><path d="M934 190Q860 92 771.0 46.0Q682 0 565 0Q360 0 226.0 161.5Q92 323 92 573Q92 824 226.0 984.5Q360 1145 565 1145Q682 1145 771.0 1099.0Q860 1053 934 954V1120H1294V113Q1294 -157 1123.5 -299.5Q953 -442 629 -442Q524 -442 426.0 -426.0Q328 -410 229 -377V-98Q323 -152 413.0 -178.5Q503 -205 594 -205Q770 -205 852.0 -128.0Q934 -51 934 113ZM698 887Q587 887 525.0 805.0Q463 723 463 573Q463 419 523.0 339.5Q583 260 698 260Q810 260 872.0 342.0Q934 424 934 573Q934 723 872.0 805.0Q810 887 698 887Z" fill="#333" transform="translate(294.7969,28.0000) scale(0.008301,-0.008301)" /></g><rect x="30" y="52" width="26" height="26" fill="#8bb832" />
    <rect x="56" y="52" width="26" height="26" fill="#8bb832" />
    <rect x="82" y="52" width="26" height="26" fill="#8bb832" />
    <rect x="108" y="52" width="26" height="26" fill="#8bb832" />
    <rect x="134" y="52" width="26" height="26" fill="#8bb832" />
    <rect x="160" y="52" width="26" height="26" fill="#8bb832" />
    <rect x="186" y="52" width="26" height="26" fill="#8bb832" />
    <rect x="212" y="52" width="26" height="26" fill="#8bb832" />
    <rect x="30" y="52" width="208" height="26" fill="none" stroke="#888" stroke-width="1.2" />
    <line x1="56" y1="52" x2="56" y2="78" stroke="#888" stroke-width="1" />
    <line x1="82" y1="52" x2="82" y2="78" stroke="#888" stroke-width="1" />
    <line x1="108" y1="52" x2="108" y2="78" stroke="#888" stroke-width="1" />
    <line x1="134" y1="52" x2="134" y2="78" stroke="#888" stroke-width="1" />
    <line x1="160" y1="52" x2="160" y2="78" stroke="#888" stroke-width="1" />
    <line x1="186" y1="52" x2="186" y2="78" stroke="#888" stroke-width="1" />
    <line x1="212" y1="52" x2="212" y2="78" stroke="#888" stroke-width="1" />

    <line x1="134" y1="84" x2="134" y2="108" stroke="#555" stroke-width="1.8" marker-end="url(#arrow)" />

    <rect x="30" y="116" width="26" height="26" fill="#2e8b57" />
    <rect x="56" y="116" width="26" height="26" fill="#2e8b57" />
    <rect x="82" y="116" width="26" height="26" fill="#2e8b57" />
    <rect x="108" y="116" width="26" height="26" fill="#2e8b57" />
    <rect x="134" y="116" width="26" height="26" fill="#2e8b57" />
    <rect x="160" y="116" width="26" height="26" fill="#2e8b57" />
    <rect x="186" y="116" width="26" height="26" fill="#2e8b57" />
    <rect x="212" y="116" width="26" height="26" fill="#2e8b57" />
    <rect x="30" y="116" width="208" height="26" fill="none" stroke="#888" stroke-width="1.2" />
    <line x1="56" y1="116" x2="56" y2="142" stroke="#888" stroke-width="1" />
    <line x1="82" y1="116" x2="82" y2="142" stroke="#888" stroke-width="1" />
    <line x1="108" y1="116" x2="108" y2="142" stroke="#888" stroke-width="1" />
    <line x1="134" y1="116" x2="134" y2="142" stroke="#888" stroke-width="1" />
    <line x1="160" y1="116" x2="160" y2="142" stroke="#888" stroke-width="1" />
    <line x1="186" y1="116" x2="186" y2="142" stroke="#888" stroke-width="1" />
    <line x1="212" y1="116" x2="212" y2="142" stroke="#888" stroke-width="1" />

    <g transform="translate(6, 0)">
    <g transform="translate(274,28) scale(0.82) translate(-274,-28)"><path d="M772 -270H475Q322 -23 249.0 199.5Q176 422 176 641Q176 860 249.5 1084.5Q323 1309 475 1554H772Q644 1317 580.0 1090.5Q516 864 516 643Q516 422 579.5 195.0Q643 -32 772 -270Z" fill="#333" transform="translate(274.0000,28.0000) scale(0.008301,-0.008301)" /><path d="M768 231Q883 231 943.5 315.0Q1004 399 1004 559Q1004 719 943.5 803.0Q883 887 768 887Q653 887 591.5 802.5Q530 718 530 559Q530 400 591.5 315.5Q653 231 768 231ZM530 956Q604 1054 694.0 1100.5Q784 1147 901 1147Q1108 1147 1241.0 982.5Q1374 818 1374 559Q1374 300 1241.0 135.5Q1108 -29 901 -29Q784 -29 694.0 17.5Q604 64 530 162V0H172V1556H530Z" fill="#333" transform="translate(281.7695,28.0000) scale(0.008301,-0.008301)" /><path d="M164 -270Q292 -32 356.0 195.0Q420 422 420 643Q420 864 356.0 1090.5Q292 1317 164 1554H461Q613 1309 686.5 1084.5Q760 860 760 641Q760 422 687.0 199.5Q614 -23 461 -270Z" fill="#333" transform="translate(293.9385,28.0000) scale(0.008301,-0.008301)" /><path d="M735 831Q856 831 908.5 876.0Q961 921 961 1024Q961 1126 908.5 1170.0Q856 1214 735 1214H573V831ZM573 565V0H188V1493H776Q1071 1493 1208.5 1394.0Q1346 1295 1346 1081Q1346 933 1274.5 838.0Q1203 743 1059 698Q1138 680 1200.5 616.5Q1263 553 1327 424L1536 0H1126L944 371Q889 483 832.5 524.0Q776 565 682 565Z" fill="#333" transform="translate(307.6265,28.0000) scale(0.008301,-0.008301)" /><path d="M1290 563V461H453Q466 335 544.0 272.0Q622 209 762 209Q875 209 993.5 242.5Q1112 276 1237 344V68Q1110 20 983.0 -4.5Q856 -29 729 -29Q425 -29 256.5 125.5Q88 280 88 559Q88 833 253.5 990.0Q419 1147 709 1147Q973 1147 1131.5 988.0Q1290 829 1290 563ZM922 682Q922 784 862.5 846.5Q803 909 707 909Q603 909 538.0 850.5Q473 792 457 682Z" fill="#333" transform="translate(320.7168,28.0000) scale(0.008301,-0.008301)" /><path d="M698 887Q584 887 523.5 803.0Q463 719 463 559Q463 399 523.5 315.0Q584 231 698 231Q813 231 873.5 315.0Q934 399 934 559Q934 719 873.5 803.0Q813 887 698 887ZM934 162Q860 63 771.0 17.0Q682 -29 565 -29Q358 -29 225.0 135.5Q92 300 92 559Q92 818 225.0 981.5Q358 1145 565 1145Q682 1145 771.0 1099.0Q860 1053 934 954V1120H1294V-426H934Z" fill="#333" transform="translate(332.2466,28.0000) scale(0.008301,-0.008301)" /><path d="M160 436V1120H520V1008Q520 917 519.0 779.5Q518 642 518 596Q518 461 525.0 401.5Q532 342 549 315Q571 280 606.5 261.0Q642 242 688 242Q800 242 864.0 328.0Q928 414 928 567V1120H1286V0H928V162Q847 64 756.5 17.5Q666 -29 557 -29Q363 -29 261.5 90.0Q160 209 160 436Z" fill="#333" transform="translate(344.4155,28.0000) scale(0.008301,-0.008301)" /><path d="M172 1120H530V0H172ZM172 1556H530V1264H172Z" fill="#333" transform="translate(356.5181,28.0000) scale(0.008301,-0.008301)" /><path d="M1004 815Q957 837 910.5 847.5Q864 858 817 858Q679 858 604.5 769.5Q530 681 530 516V0H172V1120H530V936Q599 1046 688.5 1096.5Q778 1147 903 1147Q921 1147 942.0 1145.5Q963 1144 1003 1139Z" fill="#333" transform="translate(362.3452,28.0000) scale(0.008301,-0.008301)" /><path d="M1290 563V461H453Q466 335 544.0 272.0Q622 209 762 209Q875 209 993.5 242.5Q1112 276 1237 344V68Q1110 20 983.0 -4.5Q856 -29 729 -29Q425 -29 256.5 125.5Q88 280 88 559Q88 833 253.5 990.0Q419 1147 709 1147Q973 1147 1131.5 988.0Q1290 829 1290 563ZM922 682Q922 784 862.5 846.5Q803 909 707 909Q603 909 538.0 850.5Q473 792 457 682Z" fill="#333" transform="translate(370.7290,28.0000) scale(0.008301,-0.008301)" /><path d="M188 1493H1227V1202H573V924H1188V633H573V0H188Z" fill="#333" transform="translate(388.1772,28.0000) scale(0.008301,-0.008301)" /><path d="M172 1120H530V0H172ZM172 1556H530V1264H172Z" fill="#333" transform="translate(399.7900,28.0000) scale(0.008301,-0.008301)" /><path d="M1298 682V0H938V111V522Q938 667 931.5 722.0Q925 777 909 803Q888 838 852.0 857.5Q816 877 770 877Q658 877 594.0 790.5Q530 704 530 551V0H172V1120H530V956Q611 1054 702.0 1100.5Q793 1147 903 1147Q1097 1147 1197.5 1028.0Q1298 909 1298 682Z" fill="#333" transform="translate(405.6172,28.0000) scale(0.008301,-0.008301)" /><path d="M1290 563V461H453Q466 335 544.0 272.0Q622 209 762 209Q875 209 993.5 242.5Q1112 276 1237 344V68Q1110 20 983.0 -4.5Q856 -29 729 -29Q425 -29 256.5 125.5Q88 280 88 559Q88 833 253.5 990.0Q419 1147 709 1147Q973 1147 1131.5 988.0Q1290 829 1290 563ZM922 682Q922 784 862.5 846.5Q803 909 707 909Q603 909 538.0 850.5Q473 792 457 682Z" fill="#333" transform="translate(417.7197,28.0000) scale(0.008301,-0.008301)" /><path d="M111 735H739V444H111Z" fill="#333" transform="translate(429.2495,28.0000) scale(0.008301,-0.008301)" /><path d="M563 1438V1120H932V864H563V389Q563 311 594.0 283.5Q625 256 717 256H901V0H594Q382 0 293.5 88.5Q205 177 205 389V864H27V1120H205V1438Z" fill="#333" transform="translate(436.3052,28.0000) scale(0.008301,-0.008301)" /><path d="M160 436V1120H520V1008Q520 917 519.0 779.5Q518 642 518 596Q518 461 525.0 401.5Q532 342 549 315Q571 280 606.5 261.0Q642 242 688 242Q800 242 864.0 328.0Q928 414 928 567V1120H1286V0H928V162Q847 64 756.5 17.5Q666 -29 557 -29Q363 -29 261.5 90.0Q160 209 160 436Z" fill="#333" transform="translate(444.4316,28.0000) scale(0.008301,-0.008301)" /><path d="M1298 682V0H938V111V522Q938 667 931.5 722.0Q925 777 909 803Q888 838 852.0 857.5Q816 877 770 877Q658 877 594.0 790.5Q530 704 530 551V0H172V1120H530V956Q611 1054 702.0 1100.5Q793 1147 903 1147Q1097 1147 1197.5 1028.0Q1298 909 1298 682Z" fill="#333" transform="translate(456.5342,28.0000) scale(0.008301,-0.008301)" /><path d="M172 1120H530V0H172ZM172 1556H530V1264H172Z" fill="#333" transform="translate(468.6367,28.0000) scale(0.008301,-0.008301)" /><path d="M1298 682V0H938V111V522Q938 667 931.5 722.0Q925 777 909 803Q888 838 852.0 857.5Q816 877 770 877Q658 877 594.0 790.5Q530 704 530 551V0H172V1120H530V956Q611 1054 702.0 1100.5Q793 1147 903 1147Q1097 1147 1197.5 1028.0Q1298 909 1298 682Z" fill="#333" transform="translate(474.4639,28.0000) scale(0.008301,-0.008301)" /><path d="M934 190Q860 92 771.0 46.0Q682 0 565 0Q360 0 226.0 161.5Q92 323 92 573Q92 824 226.0 984.5Q360 1145 565 1145Q682 1145 771.0 1099.0Q860 1053 934 954V1120H1294V113Q1294 -157 1123.5 -299.5Q953 -442 629 -442Q524 -442 426.0 -426.0Q328 -410 229 -377V-98Q323 -152 413.0 -178.5Q503 -205 594 -205Q770 -205 852.0 -128.0Q934 -51 934 113ZM698 887Q587 887 525.0 805.0Q463 723 463 573Q463 419 523.0 339.5Q583 260 698 260Q810 260 872.0 342.0Q934 424 934 573Q934 723 872.0 805.0Q810 887 698 887Z" fill="#333" transform="translate(486.5664,28.0000) scale(0.008301,-0.008301)" /></g><rect x="280" y="52" width="26" height="26" fill="#2e8b57" />
    <rect x="306" y="52" width="26" height="26" fill="#2e8b57" />
    <rect x="332" y="52" width="26" height="26" fill="#8bb832" />
    <rect x="358" y="52" width="26" height="26" fill="#8bb832" />
    <rect x="384" y="52" width="26" height="26" fill="#8bb832" />
    <rect x="410" y="52" width="26" height="26" fill="#8bb832" />
    <rect x="436" y="52" width="26" height="26" fill="#8bb832" />
    <rect x="462" y="52" width="26" height="26" fill="#8bb832" />
    <rect x="280" y="52" width="208" height="26" fill="none" stroke="#888" stroke-width="1.2" />
    <line x1="306" y1="52" x2="306" y2="78" stroke="#888" stroke-width="1" />
    <line x1="332" y1="52" x2="332" y2="78" stroke="#888" stroke-width="1" />
    <line x1="358" y1="52" x2="358" y2="78" stroke="#888" stroke-width="1" />
    <line x1="384" y1="52" x2="384" y2="78" stroke="#888" stroke-width="1" />
    <line x1="410" y1="52" x2="410" y2="78" stroke="#888" stroke-width="1" />
    <line x1="436" y1="52" x2="436" y2="78" stroke="#888" stroke-width="1" />
    <line x1="462" y1="52" x2="462" y2="78" stroke="#888" stroke-width="1" />

    <line x1="384" y1="84" x2="384" y2="108" stroke="#555" stroke-width="1.8" marker-end="url(#arrow)" />

    <rect x="280" y="116" width="26" height="26" fill="#2e8b57" />
    <rect x="306" y="116" width="26" height="26" fill="#2e8b57" />
    <rect x="332" y="116" width="26" height="26" fill="#2e8b57" />
    <rect x="358" y="116" width="26" height="26" fill="#2e8b57" />
    <rect x="384" y="116" width="26" height="26" fill="#2e8b57" />
    <rect x="410" y="116" width="26" height="26" fill="#2e8b57" />
    <rect x="436" y="116" width="26" height="26" fill="#2e8b57" />
    <rect x="462" y="116" width="26" height="26" fill="#2e8b57" />
    <rect x="280" y="116" width="208" height="26" fill="none" stroke="#888" stroke-width="1.2" />
    <line x1="306" y1="116" x2="306" y2="142" stroke="#888" stroke-width="1" />
    <line x1="332" y1="116" x2="332" y2="142" stroke="#888" stroke-width="1" />
    <line x1="358" y1="116" x2="358" y2="142" stroke="#888" stroke-width="1" />
    <line x1="384" y1="116" x2="384" y2="142" stroke="#888" stroke-width="1" />
    <line x1="410" y1="116" x2="410" y2="142" stroke="#888" stroke-width="1" />
    <line x1="436" y1="116" x2="436" y2="142" stroke="#888" stroke-width="1" />
    <line x1="462" y1="116" x2="462" y2="142" stroke="#888" stroke-width="1" />
    </g>
  </svg>

  
  
  <svg x="480" y="213" width="165" height="115" viewBox="0 0 260 181" preserveAspectRatio="xMidYMid meet">
    <defs>
      <marker id="axisArrow" markerWidth="6" markerHeight="4" refX="3" refY="2" orient="auto">
        <polygon points="0 0, 6 2, 0 4" fill="#333" />
      </marker>
    </defs>

    <rect x="2" y="2" width="256" height="177" rx="8" fill="#fdf5e0" stroke="#aaa" stroke-width="1.2" />
    <g transform="translate(20,26) scale(0.82) translate(-20,-26)"><path d="M772 -270H475Q322 -23 249.0 199.5Q176 422 176 641Q176 860 249.5 1084.5Q323 1309 475 1554H772Q644 1317 580.0 1090.5Q516 864 516 643Q516 422 579.5 195.0Q643 -32 772 -270Z" fill="#333" transform="translate(20.0000,26.0000) scale(0.008301,-0.008301)" /><path d="M1077 1085V793Q1004 843 930.5 867.0Q857 891 778 891Q628 891 544.5 803.5Q461 716 461 559Q461 402 544.5 314.5Q628 227 778 227Q862 227 937.5 252.0Q1013 277 1077 326V33Q993 2 906.5 -13.5Q820 -29 733 -29Q430 -29 259.0 126.5Q88 282 88 559Q88 836 259.0 991.5Q430 1147 733 1147Q821 1147 906.5 1131.5Q992 1116 1077 1085Z" fill="#333" transform="translate(27.7695,26.0000) scale(0.008301,-0.008301)" /><path d="M164 -270Q292 -32 356.0 195.0Q420 422 420 643Q420 864 356.0 1090.5Q292 1317 164 1554H461Q613 1309 686.5 1084.5Q760 860 760 641Q760 422 687.0 199.5Q614 -23 461 -270Z" fill="#333" transform="translate(37.8467,26.0000) scale(0.008301,-0.008301)" /><path d="M188 1493H573V924H1141V1493H1526V0H1141V633H573V0H188Z" fill="#333" transform="translate(51.5347,26.0000) scale(0.008301,-0.008301)" /><path d="M1290 563V461H453Q466 335 544.0 272.0Q622 209 762 209Q875 209 993.5 242.5Q1112 276 1237 344V68Q1110 20 983.0 -4.5Q856 -29 729 -29Q425 -29 256.5 125.5Q88 280 88 559Q88 833 253.5 990.0Q419 1147 709 1147Q973 1147 1131.5 988.0Q1290 829 1290 563ZM922 682Q922 784 862.5 846.5Q803 909 707 909Q603 909 538.0 850.5Q473 792 457 682Z" fill="#333" transform="translate(65.7622,26.0000) scale(0.008301,-0.008301)" /><path d="M160 436V1120H520V1008Q520 917 519.0 779.5Q518 642 518 596Q518 461 525.0 401.5Q532 342 549 315Q571 280 606.5 261.0Q642 242 688 242Q800 242 864.0 328.0Q928 414 928 567V1120H1286V0H928V162Q847 64 756.5 17.5Q666 -29 557 -29Q363 -29 261.5 90.0Q160 209 160 436Z" fill="#333" transform="translate(77.2920,26.0000) scale(0.008301,-0.008301)" /><path d="M1004 815Q957 837 910.5 847.5Q864 858 817 858Q679 858 604.5 769.5Q530 681 530 516V0H172V1120H530V936Q599 1046 688.5 1096.5Q778 1147 903 1147Q921 1147 942.0 1145.5Q963 1144 1003 1139Z" fill="#333" transform="translate(89.3945,26.0000) scale(0.008301,-0.008301)" /><path d="M172 1120H530V0H172ZM172 1556H530V1264H172Z" fill="#333" transform="translate(97.7783,26.0000) scale(0.008301,-0.008301)" /><path d="M1047 1085V813Q932 861 825.0 885.0Q718 909 623 909Q521 909 471.5 883.5Q422 858 422 805Q422 762 459.5 739.0Q497 716 594 705L657 696Q932 661 1027.0 581.0Q1122 501 1122 330Q1122 151 990.0 61.0Q858 -29 596 -29Q485 -29 366.5 -11.5Q248 6 123 41V313Q230 261 342.5 235.0Q455 209 571 209Q676 209 729.0 238.0Q782 267 782 324Q782 372 745.5 395.5Q709 419 600 432L537 440Q298 470 202.0 551.0Q106 632 106 797Q106 975 228.0 1061.0Q350 1147 602 1147Q701 1147 810.0 1132.0Q919 1117 1047 1085Z" fill="#333" transform="translate(103.6055,26.0000) scale(0.008301,-0.008301)" /><path d="M563 1438V1120H932V864H563V389Q563 311 594.0 283.5Q625 256 717 256H901V0H594Q382 0 293.5 88.5Q205 177 205 389V864H27V1120H205V1438Z" fill="#333" transform="translate(113.7241,26.0000) scale(0.008301,-0.008301)" /><path d="M172 1120H530V0H172ZM172 1556H530V1264H172Z" fill="#333" transform="translate(121.8506,26.0000) scale(0.008301,-0.008301)" /><path d="M1077 1085V793Q1004 843 930.5 867.0Q857 891 778 891Q628 891 544.5 803.5Q461 716 461 559Q461 402 544.5 314.5Q628 227 778 227Q862 227 937.5 252.0Q1013 277 1077 326V33Q993 2 906.5 -13.5Q820 -29 733 -29Q430 -29 259.0 126.5Q88 282 88 559Q88 836 259.0 991.5Q430 1147 733 1147Q821 1147 906.5 1131.5Q992 1116 1077 1085Z" fill="#333" transform="translate(127.6777,26.0000) scale(0.008301,-0.008301)" /><path d="M1530 111Q1386 41 1231.0 6.0Q1076 -29 911 -29Q538 -29 320.0 179.5Q102 388 102 745Q102 1106 324.0 1313.0Q546 1520 932 1520Q1081 1520 1217.5 1492.0Q1354 1464 1475 1409V1100Q1350 1171 1226.5 1206.0Q1103 1241 979 1241Q749 1241 624.5 1112.5Q500 984 500 745Q500 508 620.0 379.0Q740 250 961 250Q1021 250 1072.5 257.5Q1124 265 1165 281V571H930V829H1530Z" fill="#333" transform="translate(143.6733,26.0000) scale(0.008301,-0.008301)" /><path d="M160 436V1120H520V1008Q520 917 519.0 779.5Q518 642 518 596Q518 461 525.0 401.5Q532 342 549 315Q571 280 606.5 261.0Q642 242 688 242Q800 242 864.0 328.0Q928 414 928 567V1120H1286V0H928V162Q847 64 756.5 17.5Q666 -29 557 -29Q363 -29 261.5 90.0Q160 209 160 436Z" fill="#333" transform="translate(157.6270,26.0000) scale(0.008301,-0.008301)" /><path d="M172 1120H530V0H172ZM172 1556H530V1264H172Z" fill="#333" transform="translate(169.7295,26.0000) scale(0.008301,-0.008301)" /><path d="M934 956V1556H1294V0H934V162Q860 63 771.0 17.0Q682 -29 565 -29Q358 -29 225.0 135.5Q92 300 92 559Q92 818 225.0 982.5Q358 1147 565 1147Q681 1147 770.5 1100.5Q860 1054 934 956ZM698 231Q813 231 873.5 315.0Q934 399 934 559Q934 719 873.5 803.0Q813 887 698 887Q584 887 523.5 803.0Q463 719 463 559Q463 399 523.5 315.0Q584 231 698 231Z" fill="#333" transform="translate(175.5566,26.0000) scale(0.008301,-0.008301)" /><path d="M674 504Q562 504 505.5 466.0Q449 428 449 354Q449 286 494.5 247.5Q540 209 621 209Q722 209 791.0 281.5Q860 354 860 463V504ZM1221 639V0H860V166Q788 64 698.0 17.5Q608 -29 479 -29Q305 -29 196.5 72.5Q88 174 88 336Q88 533 223.5 625.0Q359 717 649 717H860V745Q860 830 793.0 869.5Q726 909 584 909Q469 909 370.0 886.0Q271 863 186 817V1090Q301 1118 417.0 1132.5Q533 1147 649 1147Q952 1147 1086.5 1027.5Q1221 908 1221 639Z" fill="#333" transform="translate(187.7256,26.0000) scale(0.008301,-0.008301)" /><path d="M1298 682V0H938V111V522Q938 667 931.5 722.0Q925 777 909 803Q888 838 852.0 857.5Q816 877 770 877Q658 877 594.0 790.5Q530 704 530 551V0H172V1120H530V956Q611 1054 702.0 1100.5Q793 1147 903 1147Q1097 1147 1197.5 1028.0Q1298 909 1298 682Z" fill="#333" transform="translate(199.1973,26.0000) scale(0.008301,-0.008301)" /><path d="M1077 1085V793Q1004 843 930.5 867.0Q857 891 778 891Q628 891 544.5 803.5Q461 716 461 559Q461 402 544.5 314.5Q628 227 778 227Q862 227 937.5 252.0Q1013 277 1077 326V33Q993 2 906.5 -13.5Q820 -29 733 -29Q430 -29 259.0 126.5Q88 282 88 559Q88 836 259.0 991.5Q430 1147 733 1147Q821 1147 906.5 1131.5Q992 1116 1077 1085Z" fill="#333" transform="translate(211.2998,26.0000) scale(0.008301,-0.008301)" /><path d="M1290 563V461H453Q466 335 544.0 272.0Q622 209 762 209Q875 209 993.5 242.5Q1112 276 1237 344V68Q1110 20 983.0 -4.5Q856 -29 729 -29Q425 -29 256.5 125.5Q88 280 88 559Q88 833 253.5 990.0Q419 1147 709 1147Q973 1147 1131.5 988.0Q1290 829 1290 563ZM922 682Q922 784 862.5 846.5Q803 909 707 909Q603 909 538.0 850.5Q473 792 457 682Z" fill="#333" transform="translate(221.3770,26.0000) scale(0.008301,-0.008301)" /></g><g transform="translate(-10, 6) scale(1.1)">
    <line x1="58" y1="138" x2="58" y2="36" stroke="#333" stroke-width="1.2" marker-end="url(#axisArrow)" />
    <line x1="58" y1="138" x2="230" y2="138" stroke="#333" stroke-width="1.2" marker-end="url(#axisArrow)" />

    <g transform="rotate(-90, 46, 90)"><path d="M1530 111Q1386 41 1231.0 6.0Q1076 -29 911 -29Q538 -29 320.0 179.5Q102 388 102 745Q102 1106 324.0 1313.0Q546 1520 932 1520Q1081 1520 1217.5 1492.0Q1354 1464 1475 1409V1100Q1350 1171 1226.5 1206.0Q1103 1241 979 1241Q749 1241 624.5 1112.5Q500 984 500 745Q500 508 620.0 379.0Q740 250 961 250Q1021 250 1072.5 257.5Q1124 265 1165 281V571H930V829H1530Z" fill="#333" transform="translate(-2.1348,90.0000) scale(0.004883,-0.004883)" /><path d="M160 436V1120H520V1008Q520 917 519.0 779.5Q518 642 518 596Q518 461 525.0 401.5Q532 342 549 315Q571 280 606.5 261.0Q642 242 688 242Q800 242 864.0 328.0Q928 414 928 567V1120H1286V0H928V162Q847 64 756.5 17.5Q666 -29 557 -29Q363 -29 261.5 90.0Q160 209 160 436Z" fill="#333" transform="translate(6.0732,90.0000) scale(0.004883,-0.004883)" /><path d="M172 1120H530V0H172ZM172 1556H530V1264H172Z" fill="#333" transform="translate(13.1924,90.0000) scale(0.004883,-0.004883)" /><path d="M934 956V1556H1294V0H934V162Q860 63 771.0 17.0Q682 -29 565 -29Q358 -29 225.0 135.5Q92 300 92 559Q92 818 225.0 982.5Q358 1147 565 1147Q681 1147 770.5 1100.5Q860 1054 934 956ZM698 231Q813 231 873.5 315.0Q934 399 934 559Q934 719 873.5 803.0Q813 887 698 887Q584 887 523.5 803.0Q463 719 463 559Q463 399 523.5 315.0Q584 231 698 231Z" fill="#333" transform="translate(16.6201,90.0000) scale(0.004883,-0.004883)" /><path d="M674 504Q562 504 505.5 466.0Q449 428 449 354Q449 286 494.5 247.5Q540 209 621 209Q722 209 791.0 281.5Q860 354 860 463V504ZM1221 639V0H860V166Q788 64 698.0 17.5Q608 -29 479 -29Q305 -29 196.5 72.5Q88 174 88 336Q88 533 223.5 625.0Q359 717 649 717H860V745Q860 830 793.0 869.5Q726 909 584 909Q469 909 370.0 886.0Q271 863 186 817V1090Q301 1118 417.0 1132.5Q533 1147 649 1147Q952 1147 1086.5 1027.5Q1221 908 1221 639Z" fill="#333" transform="translate(23.7783,90.0000) scale(0.004883,-0.004883)" /><path d="M1298 682V0H938V111V522Q938 667 931.5 722.0Q925 777 909 803Q888 838 852.0 857.5Q816 877 770 877Q658 877 594.0 790.5Q530 704 530 551V0H172V1120H530V956Q611 1054 702.0 1100.5Q793 1147 903 1147Q1097 1147 1197.5 1028.0Q1298 909 1298 682Z" fill="#333" transform="translate(30.5264,90.0000) scale(0.004883,-0.004883)" /><path d="M1077 1085V793Q1004 843 930.5 867.0Q857 891 778 891Q628 891 544.5 803.5Q461 716 461 559Q461 402 544.5 314.5Q628 227 778 227Q862 227 937.5 252.0Q1013 277 1077 326V33Q993 2 906.5 -13.5Q820 -29 733 -29Q430 -29 259.0 126.5Q88 282 88 559Q88 836 259.0 991.5Q430 1147 733 1147Q821 1147 906.5 1131.5Q992 1116 1077 1085Z" fill="#333" transform="translate(37.6455,90.0000) scale(0.004883,-0.004883)" /><path d="M1290 563V461H453Q466 335 544.0 272.0Q622 209 762 209Q875 209 993.5 242.5Q1112 276 1237 344V68Q1110 20 983.0 -4.5Q856 -29 729 -29Q425 -29 256.5 125.5Q88 280 88 559Q88 833 253.5 990.0Q419 1147 709 1147Q973 1147 1131.5 988.0Q1290 829 1290 563ZM922 682Q922 784 862.5 846.5Q803 909 707 909Q603 909 538.0 850.5Q473 792 457 682Z" fill="#333" transform="translate(43.5732,90.0000) scale(0.004883,-0.004883)" /><path d="M61 1493H430L688 408L944 1493H1315L1571 408L1829 1493H2195L1843 0H1399L1128 1135L860 0H416Z" fill="#333" transform="translate(53.8369,90.0000) scale(0.004883,-0.004883)" /><path d="M1290 563V461H453Q466 335 544.0 272.0Q622 209 762 209Q875 209 993.5 242.5Q1112 276 1237 344V68Q1110 20 983.0 -4.5Q856 -29 729 -29Q425 -29 256.5 125.5Q88 280 88 559Q88 833 253.5 990.0Q419 1147 709 1147Q973 1147 1131.5 988.0Q1290 829 1290 563ZM922 682Q922 784 862.5 846.5Q803 909 707 909Q603 909 538.0 850.5Q473 792 457 682Z" fill="#333" transform="translate(64.8672,90.0000) scale(0.004883,-0.004883)" /><path d="M172 1120H530V0H172ZM172 1556H530V1264H172Z" fill="#333" transform="translate(71.6494,90.0000) scale(0.004883,-0.004883)" /><path d="M934 190Q860 92 771.0 46.0Q682 0 565 0Q360 0 226.0 161.5Q92 323 92 573Q92 824 226.0 984.5Q360 1145 565 1145Q682 1145 771.0 1099.0Q860 1053 934 954V1120H1294V113Q1294 -157 1123.5 -299.5Q953 -442 629 -442Q524 -442 426.0 -426.0Q328 -410 229 -377V-98Q323 -152 413.0 -178.5Q503 -205 594 -205Q770 -205 852.0 -128.0Q934 -51 934 113ZM698 887Q587 887 525.0 805.0Q463 723 463 573Q463 419 523.0 339.5Q583 260 698 260Q810 260 872.0 342.0Q934 424 934 573Q934 723 872.0 805.0Q810 887 698 887Z" fill="#333" transform="translate(75.0771,90.0000) scale(0.004883,-0.004883)" /><path d="M1298 682V0H938V111V520Q938 667 931.5 722.0Q925 777 909 803Q888 838 852.0 857.5Q816 877 770 877Q658 877 594.0 790.5Q530 704 530 551V0H172V1556H530V956Q611 1054 702.0 1100.5Q793 1147 903 1147Q1097 1147 1197.5 1028.0Q1298 909 1298 682Z" fill="#333" transform="translate(82.2354,90.0000) scale(0.004883,-0.004883)" /><path d="M563 1438V1120H932V864H563V389Q563 311 594.0 283.5Q625 256 717 256H901V0H594Q382 0 293.5 88.5Q205 177 205 389V864H27V1120H205V1438Z" fill="#333" transform="translate(89.3545,90.0000) scale(0.004883,-0.004883)" /></g><line x1="115" y1="40" x2="115" y2="138" stroke="#888" stroke-width="1" stroke-dasharray="4,3" />
    <line x1="185" y1="40" x2="185" y2="138" stroke="#888" stroke-width="1" stroke-dasharray="4,3" />

    <path d="M 58,48 L 115,48 L 115,48 C 118,48 120,50 122,55 C 126,68 130,85 135,98 C 140,110 146,120 152,128 C 158,133 165,136 175,137.5 C 180,138 185,138 185,138 L 224,138" fill="none" stroke="#4A7DC0" stroke-width="2" stroke-linecap="round" />
    </g>
  </svg>

  
  <svg x="650" y="213" width="165" height="115" viewBox="0 0 260 181" preserveAspectRatio="xMidYMid meet">
    <defs>
      <marker id="axisArrow2" markerWidth="6" markerHeight="4" refX="3" refY="2" orient="auto">
        <polygon points="0 0, 6 2, 0 4" fill="#333" />
      </marker>
      <marker id="curveArrow" markerWidth="7" markerHeight="5" refX="4" refY="2.5" orient="auto">
        <polygon points="0 0, 7 2.5, 0 5" fill="#555" />
      </marker>
    </defs>

    <rect x="2" y="2" width="256" height="177" rx="8" fill="#fdf5e0" stroke="#aaa" stroke-width="1.2" />
    <g transform="translate(20,26) scale(0.82) translate(-20,-26)"><path d="M772 -270H475Q322 -23 249.0 199.5Q176 422 176 641Q176 860 249.5 1084.5Q323 1309 475 1554H772Q644 1317 580.0 1090.5Q516 864 516 643Q516 422 579.5 195.0Q643 -32 772 -270Z" fill="#333" transform="translate(20.0000,26.0000) scale(0.008301,-0.008301)" /><path d="M934 956V1556H1294V0H934V162Q860 63 771.0 17.0Q682 -29 565 -29Q358 -29 225.0 135.5Q92 300 92 559Q92 818 225.0 982.5Q358 1147 565 1147Q681 1147 770.5 1100.5Q860 1054 934 956ZM698 231Q813 231 873.5 315.0Q934 399 934 559Q934 719 873.5 803.0Q813 887 698 887Q584 887 523.5 803.0Q463 719 463 559Q463 399 523.5 315.0Q584 231 698 231Z" fill="#333" transform="translate(27.7695,26.0000) scale(0.008301,-0.008301)" /><path d="M164 -270Q292 -32 356.0 195.0Q420 422 420 643Q420 864 356.0 1090.5Q292 1317 164 1554H461Q613 1309 686.5 1084.5Q760 860 760 641Q760 422 687.0 199.5Q614 -23 461 -270Z" fill="#333" transform="translate(39.9385,26.0000) scale(0.008301,-0.008301)" /><path d="M188 1493H1227V1202H573V924H1188V633H573V291H1249V0H188Z" fill="#333" transform="translate(53.6265,26.0000) scale(0.008301,-0.008301)" /><path d="M455 573 51 1120H430L659 788L891 1120H1270L866 575L1290 0H911L659 354L410 0H31Z" fill="#333" transform="translate(65.2393,26.0000) scale(0.008301,-0.008301)" /><path d="M563 1438V1120H932V864H563V389Q563 311 594.0 283.5Q625 256 717 256H901V0H594Q382 0 293.5 88.5Q205 177 205 389V864H27V1120H205V1438Z" fill="#333" transform="translate(76.2046,26.0000) scale(0.008301,-0.008301)" /><path d="M1004 815Q957 837 910.5 847.5Q864 858 817 858Q679 858 604.5 769.5Q530 681 530 516V0H172V1120H530V936Q599 1046 688.5 1096.5Q778 1147 903 1147Q921 1147 942.0 1145.5Q963 1144 1003 1139Z" fill="#333" transform="translate(84.3311,26.0000) scale(0.008301,-0.008301)" /><path d="M674 504Q562 504 505.5 466.0Q449 428 449 354Q449 286 494.5 247.5Q540 209 621 209Q722 209 791.0 281.5Q860 354 860 463V504ZM1221 639V0H860V166Q788 64 698.0 17.5Q608 -29 479 -29Q305 -29 196.5 72.5Q88 174 88 336Q88 533 223.5 625.0Q359 717 649 717H860V745Q860 830 793.0 869.5Q726 909 584 909Q469 909 370.0 886.0Q271 863 186 817V1090Q301 1118 417.0 1132.5Q533 1147 649 1147Q952 1147 1086.5 1027.5Q1221 908 1221 639Z" fill="#333" transform="translate(92.7148,26.0000) scale(0.008301,-0.008301)" /><path d="M188 1493H573V0H188Z" fill="#333" transform="translate(110.1050,26.0000) scale(0.008301,-0.008301)" /><path d="M1298 682V0H938V111V522Q938 667 931.5 722.0Q925 777 909 803Q888 838 852.0 857.5Q816 877 770 877Q658 877 594.0 790.5Q530 704 530 551V0H172V1120H530V956Q611 1054 702.0 1100.5Q793 1147 903 1147Q1097 1147 1197.5 1028.0Q1298 909 1298 682Z" fill="#333" transform="translate(116.4302,26.0000) scale(0.008301,-0.008301)" /><path d="M909 1556V1321H711Q635 1321 605.0 1293.5Q575 1266 575 1198V1120H881V864H575V0H217V864H39V1120H217V1198Q217 1381 319.0 1468.5Q421 1556 635 1556Z" fill="#333" transform="translate(128.5327,26.0000) scale(0.008301,-0.008301)" /><path d="M1290 563V461H453Q466 335 544.0 272.0Q622 209 762 209Q875 209 993.5 242.5Q1112 276 1237 344V68Q1110 20 983.0 -4.5Q856 -29 729 -29Q425 -29 256.5 125.5Q88 280 88 559Q88 833 253.5 990.0Q419 1147 709 1147Q973 1147 1131.5 988.0Q1290 829 1290 563ZM922 682Q922 784 862.5 846.5Q803 909 707 909Q603 909 538.0 850.5Q473 792 457 682Z" fill="#333" transform="translate(135.9287,26.0000) scale(0.008301,-0.008301)" /><path d="M1004 815Q957 837 910.5 847.5Q864 858 817 858Q679 858 604.5 769.5Q530 681 530 516V0H172V1120H530V936Q599 1046 688.5 1096.5Q778 1147 903 1147Q921 1147 942.0 1145.5Q963 1144 1003 1139Z" fill="#333" transform="translate(147.4585,26.0000) scale(0.008301,-0.008301)" /><path d="M1290 563V461H453Q466 335 544.0 272.0Q622 209 762 209Q875 209 993.5 242.5Q1112 276 1237 344V68Q1110 20 983.0 -4.5Q856 -29 729 -29Q425 -29 256.5 125.5Q88 280 88 559Q88 833 253.5 990.0Q419 1147 709 1147Q973 1147 1131.5 988.0Q1290 829 1290 563ZM922 682Q922 784 862.5 846.5Q803 909 707 909Q603 909 538.0 850.5Q473 792 457 682Z" fill="#333" transform="translate(155.8423,26.0000) scale(0.008301,-0.008301)" /><path d="M1298 682V0H938V111V522Q938 667 931.5 722.0Q925 777 909 803Q888 838 852.0 857.5Q816 877 770 877Q658 877 594.0 790.5Q530 704 530 551V0H172V1120H530V956Q611 1054 702.0 1100.5Q793 1147 903 1147Q1097 1147 1197.5 1028.0Q1298 909 1298 682Z" fill="#333" transform="translate(167.3721,26.0000) scale(0.008301,-0.008301)" /><path d="M1077 1085V793Q1004 843 930.5 867.0Q857 891 778 891Q628 891 544.5 803.5Q461 716 461 559Q461 402 544.5 314.5Q628 227 778 227Q862 227 937.5 252.0Q1013 277 1077 326V33Q993 2 906.5 -13.5Q820 -29 733 -29Q430 -29 259.0 126.5Q88 282 88 559Q88 836 259.0 991.5Q430 1147 733 1147Q821 1147 906.5 1131.5Q992 1116 1077 1085Z" fill="#333" transform="translate(179.4746,26.0000) scale(0.008301,-0.008301)" /><path d="M1290 563V461H453Q466 335 544.0 272.0Q622 209 762 209Q875 209 993.5 242.5Q1112 276 1237 344V68Q1110 20 983.0 -4.5Q856 -29 729 -29Q425 -29 256.5 125.5Q88 280 88 559Q88 833 253.5 990.0Q419 1147 709 1147Q973 1147 1131.5 988.0Q1290 829 1290 563ZM922 682Q922 784 862.5 846.5Q803 909 707 909Q603 909 538.0 850.5Q473 792 457 682Z" fill="#333" transform="translate(189.5518,26.0000) scale(0.008301,-0.008301)" /><path d="M1372 82Q1266 27 1151.0 -1.0Q1036 -29 911 -29Q538 -29 320.0 179.5Q102 388 102 745Q102 1103 320.0 1311.5Q538 1520 911 1520Q1036 1520 1151.0 1492.0Q1266 1464 1372 1409V1100Q1265 1173 1161.0 1207.0Q1057 1241 942 1241Q736 1241 618.0 1109.0Q500 977 500 745Q500 514 618.0 382.0Q736 250 942 250Q1057 250 1161.0 284.0Q1265 318 1372 391Z" fill="#333" transform="translate(207.0000,26.0000) scale(0.008301,-0.008301)" /><path d="M705 891Q586 891 523.5 805.5Q461 720 461 559Q461 398 523.5 312.5Q586 227 705 227Q822 227 884.0 312.5Q946 398 946 559Q946 720 884.0 805.5Q822 891 705 891ZM705 1147Q994 1147 1156.5 991.0Q1319 835 1319 559Q1319 283 1156.5 127.0Q994 -29 705 -29Q415 -29 251.5 127.0Q88 283 88 559Q88 835 251.5 991.0Q415 1147 705 1147Z" fill="#333" transform="translate(219.4761,26.0000) scale(0.008301,-0.008301)" /><path d="M1047 1085V813Q932 861 825.0 885.0Q718 909 623 909Q521 909 471.5 883.5Q422 858 422 805Q422 762 459.5 739.0Q497 716 594 705L657 696Q932 661 1027.0 581.0Q1122 501 1122 330Q1122 151 990.0 61.0Q858 -29 596 -29Q485 -29 366.5 -11.5Q248 6 123 41V313Q230 261 342.5 235.0Q455 209 571 209Q676 209 729.0 238.0Q782 267 782 324Q782 372 745.5 395.5Q709 419 600 432L537 440Q298 470 202.0 551.0Q106 632 106 797Q106 975 228.0 1061.0Q350 1147 602 1147Q701 1147 810.0 1132.0Q919 1117 1047 1085Z" fill="#333" transform="translate(231.1553,26.0000) scale(0.008301,-0.008301)" /><path d="M563 1438V1120H932V864H563V389Q563 311 594.0 283.5Q625 256 717 256H901V0H594Q382 0 293.5 88.5Q205 177 205 389V864H27V1120H205V1438Z" fill="#333" transform="translate(241.2739,26.0000) scale(0.008301,-0.008301)" /></g><g transform="translate(-10, 6) scale(1.1)">
    <line x1="65" y1="138" x2="65" y2="36" stroke="#333" stroke-width="1.2" marker-end="url(#axisArrow2)" />
    <line x1="65" y1="138" x2="235" y2="138" stroke="#333" stroke-width="1.2" />

    <g transform="rotate(-90, 54, 90)"><path d="M188 1493H573V0H188Z" fill="#333" transform="translate(11.7759,90.0000) scale(0.004883,-0.004883)" /><path d="M1298 682V0H938V111V522Q938 667 931.5 722.0Q925 777 909 803Q888 838 852.0 857.5Q816 877 770 877Q658 877 594.0 790.5Q530 704 530 551V0H172V1120H530V956Q611 1054 702.0 1100.5Q793 1147 903 1147Q1097 1147 1197.5 1028.0Q1298 909 1298 682Z" fill="#333" transform="translate(15.4966,90.0000) scale(0.004883,-0.004883)" /><path d="M909 1556V1321H711Q635 1321 605.0 1293.5Q575 1266 575 1198V1120H881V864H575V0H217V864H39V1120H217V1198Q217 1381 319.0 1468.5Q421 1556 635 1556Z" fill="#333" transform="translate(22.6157,90.0000) scale(0.004883,-0.004883)" /><path d="M1290 563V461H453Q466 335 544.0 272.0Q622 209 762 209Q875 209 993.5 242.5Q1112 276 1237 344V68Q1110 20 983.0 -4.5Q856 -29 729 -29Q425 -29 256.5 125.5Q88 280 88 559Q88 833 253.5 990.0Q419 1147 709 1147Q973 1147 1131.5 988.0Q1290 829 1290 563ZM922 682Q922 784 862.5 846.5Q803 909 707 909Q603 909 538.0 850.5Q473 792 457 682Z" fill="#333" transform="translate(26.9663,90.0000) scale(0.004883,-0.004883)" /><path d="M1004 815Q957 837 910.5 847.5Q864 858 817 858Q679 858 604.5 769.5Q530 681 530 516V0H172V1120H530V936Q599 1046 688.5 1096.5Q778 1147 903 1147Q921 1147 942.0 1145.5Q963 1144 1003 1139Z" fill="#333" transform="translate(33.7485,90.0000) scale(0.004883,-0.004883)" /><path d="M1290 563V461H453Q466 335 544.0 272.0Q622 209 762 209Q875 209 993.5 242.5Q1112 276 1237 344V68Q1110 20 983.0 -4.5Q856 -29 729 -29Q425 -29 256.5 125.5Q88 280 88 559Q88 833 253.5 990.0Q419 1147 709 1147Q973 1147 1131.5 988.0Q1290 829 1290 563ZM922 682Q922 784 862.5 846.5Q803 909 707 909Q603 909 538.0 850.5Q473 792 457 682Z" fill="#333" transform="translate(38.6802,90.0000) scale(0.004883,-0.004883)" /><path d="M1298 682V0H938V111V522Q938 667 931.5 722.0Q925 777 909 803Q888 838 852.0 857.5Q816 877 770 877Q658 877 594.0 790.5Q530 704 530 551V0H172V1120H530V956Q611 1054 702.0 1100.5Q793 1147 903 1147Q1097 1147 1197.5 1028.0Q1298 909 1298 682Z" fill="#333" transform="translate(45.4624,90.0000) scale(0.004883,-0.004883)" /><path d="M1077 1085V793Q1004 843 930.5 867.0Q857 891 778 891Q628 891 544.5 803.5Q461 716 461 559Q461 402 544.5 314.5Q628 227 778 227Q862 227 937.5 252.0Q1013 277 1077 326V33Q993 2 906.5 -13.5Q820 -29 733 -29Q430 -29 259.0 126.5Q88 282 88 559Q88 836 259.0 991.5Q430 1147 733 1147Q821 1147 906.5 1131.5Q992 1116 1077 1085Z" fill="#333" transform="translate(52.5815,90.0000) scale(0.004883,-0.004883)" /><path d="M1290 563V461H453Q466 335 544.0 272.0Q622 209 762 209Q875 209 993.5 242.5Q1112 276 1237 344V68Q1110 20 983.0 -4.5Q856 -29 729 -29Q425 -29 256.5 125.5Q88 280 88 559Q88 833 253.5 990.0Q419 1147 709 1147Q973 1147 1131.5 988.0Q1290 829 1290 563ZM922 682Q922 784 862.5 846.5Q803 909 707 909Q603 909 538.0 850.5Q473 792 457 682Z" fill="#333" transform="translate(58.5093,90.0000) scale(0.004883,-0.004883)" /><path d="M10 1493H1386V1202H891V0H506V1202H10Z" fill="#333" transform="translate(68.7729,90.0000) scale(0.004883,-0.004883)" /><path d="M172 1120H530V0H172ZM172 1556H530V1264H172Z" fill="#333" transform="translate(75.5942,90.0000) scale(0.004883,-0.004883)" /><path d="M1210 934Q1278 1038 1371.5 1092.5Q1465 1147 1577 1147Q1770 1147 1871.0 1028.0Q1972 909 1972 682V0H1612V584Q1613 597 1613.5 611.0Q1614 625 1614 651Q1614 770 1579.0 823.5Q1544 877 1466 877Q1364 877 1308.5 793.0Q1253 709 1251 550V0H891V584Q891 770 859.0 823.5Q827 877 745 877Q642 877 586.0 792.5Q530 708 530 551V0H170V1120H530V956Q596 1051 681.5 1099.0Q767 1147 870 1147Q986 1147 1075.0 1091.0Q1164 1035 1210 934Z" fill="#333" transform="translate(79.0220,90.0000) scale(0.004883,-0.004883)" /><path d="M1290 563V461H453Q466 335 544.0 272.0Q622 209 762 209Q875 209 993.5 242.5Q1112 276 1237 344V68Q1110 20 983.0 -4.5Q856 -29 729 -29Q425 -29 256.5 125.5Q88 280 88 559Q88 833 253.5 990.0Q419 1147 709 1147Q973 1147 1131.5 988.0Q1290 829 1290 563ZM922 682Q922 784 862.5 846.5Q803 909 707 909Q603 909 538.0 850.5Q473 792 457 682Z" fill="#333" transform="translate(89.4419,90.0000) scale(0.004883,-0.004883)" /></g><rect x="85" y="105" width="40" height="33" fill="#a0a8a0" rx="2" />
    <rect x="170" y="55" width="40" height="83" fill="#e8d810" rx="2" />

    <g><path d="M870 1241Q694 1241 597.0 1111.0Q500 981 500 745Q500 510 597.0 380.0Q694 250 870 250Q1047 250 1144.0 380.0Q1241 510 1241 745Q1241 981 1144.0 1111.0Q1047 1241 870 1241ZM870 1520Q1230 1520 1434.0 1314.0Q1638 1108 1638 745Q1638 383 1434.0 177.0Q1230 -29 870 -29Q511 -29 306.5 177.0Q102 383 102 745Q102 1108 306.5 1314.0Q511 1520 870 1520Z" fill="#333" transform="translate(84.8665,152.0000) scale(0.004395,-0.004395)" /><path d="M1004 815Q957 837 910.5 847.5Q864 858 817 858Q679 858 604.5 769.5Q530 681 530 516V0H172V1120H530V936Q599 1046 688.5 1096.5Q778 1147 903 1147Q921 1147 942.0 1145.5Q963 1144 1003 1139Z" fill="#333" transform="translate(92.5173,152.0000) scale(0.004395,-0.004395)" /><path d="M172 1120H530V0H172ZM172 1556H530V1264H172Z" fill="#333" transform="translate(96.9558,152.0000) scale(0.004395,-0.004395)" /><path d="M934 190Q860 92 771.0 46.0Q682 0 565 0Q360 0 226.0 161.5Q92 323 92 573Q92 824 226.0 984.5Q360 1145 565 1145Q682 1145 771.0 1099.0Q860 1053 934 954V1120H1294V113Q1294 -157 1123.5 -299.5Q953 -442 629 -442Q524 -442 426.0 -426.0Q328 -410 229 -377V-98Q323 -152 413.0 -178.5Q503 -205 594 -205Q770 -205 852.0 -128.0Q934 -51 934 113ZM698 887Q587 887 525.0 805.0Q463 723 463 573Q463 419 523.0 339.5Q583 260 698 260Q810 260 872.0 342.0Q934 424 934 573Q934 723 872.0 805.0Q810 887 698 887Z" fill="#333" transform="translate(100.0408,152.0000) scale(0.004395,-0.004395)" /><path d="M172 1120H530V0H172ZM172 1556H530V1264H172Z" fill="#333" transform="translate(106.4832,152.0000) scale(0.004395,-0.004395)" /><path d="M1298 682V0H938V111V522Q938 667 931.5 722.0Q925 777 909 803Q888 838 852.0 857.5Q816 877 770 877Q658 877 594.0 790.5Q530 704 530 551V0H172V1120H530V956Q611 1054 702.0 1100.5Q793 1147 903 1147Q1097 1147 1197.5 1028.0Q1298 909 1298 682Z" fill="#333" transform="translate(109.5681,152.0000) scale(0.004395,-0.004395)" /><path d="M674 504Q562 504 505.5 466.0Q449 428 449 354Q449 286 494.5 247.5Q540 209 621 209Q722 209 791.0 281.5Q860 354 860 463V504ZM1221 639V0H860V166Q788 64 698.0 17.5Q608 -29 479 -29Q305 -29 196.5 72.5Q88 174 88 336Q88 533 223.5 625.0Q359 717 649 717H860V745Q860 830 793.0 869.5Q726 909 584 909Q469 909 370.0 886.0Q271 863 186 817V1090Q301 1118 417.0 1132.5Q533 1147 649 1147Q952 1147 1086.5 1027.5Q1221 908 1221 639Z" fill="#333" transform="translate(115.9753,152.0000) scale(0.004395,-0.004395)" /><path d="M172 1556H530V0H172Z" fill="#333" transform="translate(122.0486,152.0000) scale(0.004395,-0.004395)" /></g><g><path d="M735 831Q856 831 908.5 876.0Q961 921 961 1024Q961 1126 908.5 1170.0Q856 1214 735 1214H573V831ZM573 565V0H188V1493H776Q1071 1493 1208.5 1394.0Q1346 1295 1346 1081Q1346 933 1274.5 838.0Q1203 743 1059 698Q1138 680 1200.5 616.5Q1263 553 1327 424L1536 0H1126L944 371Q889 483 832.5 524.0Q776 565 682 565Z" fill="#333" transform="translate(180.1628,152.0000) scale(0.004395,-0.004395)" /><path d="M10 1493H1386V1202H891V0H506V1202H10Z" fill="#333" transform="translate(187.0930,152.0000) scale(0.004395,-0.004395)" /><path d="M1372 82Q1266 27 1151.0 -1.0Q1036 -29 911 -29Q538 -29 320.0 179.5Q102 388 102 745Q102 1103 320.0 1311.5Q538 1520 911 1520Q1036 1520 1151.0 1492.0Q1266 1464 1372 1409V1100Q1265 1173 1161.0 1207.0Q1057 1241 942 1241Q736 1241 618.0 1109.0Q500 977 500 745Q500 514 618.0 382.0Q736 250 942 250Q1057 250 1161.0 284.0Q1265 318 1372 391Z" fill="#333" transform="translate(193.2322,152.0000) scale(0.004395,-0.004395)" /></g><path d="M 115,95 C 155,95 160,70 170,58" fill="none" stroke="#555" stroke-width="1.5" marker-end="url(#curveArrow)" />
    </g>
  </svg>

</svg>