<?xml version="1.0" encoding="utf-8" standalone="no"?>
<!DOCTYPE svg PUBLIC "-//W3C//DTD SVG 1.1//EN"
  "http://www.w3.org/Graphics/SVG/1.1/DTD/svg11.dtd">
<svg xmlns:xlink="http://www.w3.org/1999/xlink" width="522.009375pt" height="430.256875pt" viewBox="0 0 522.009375 430.256875" xmlns="http://www.w3.org/2000/svg" version="1.1">
 <metadata>
  <rdf:RDF xmlns:dc="http://purl.org/dc/elements/1.1/" xmlns:cc="http://creativecommons.org/ns#" xmlns:rdf="http://www.w3.org/1999/02/22-rdf-syntax-ns#">
   <cc:Work>
    <dc:type rdf:resource="http://purl.org/dc/dcmitype/StillImage"/>
    <dc:date>2026-04-18T12:47:23.944616</dc:date>
    <dc:format>image/svg+xml</dc:format>
    <dc:creator>
     <cc:Agent>
      <dc:title>Matplotlib v3.10.8, https://matplotlib.org/</dc:title>
     </cc:Agent>
    </dc:creator>
   </cc:Work>
  </rdf:RDF>
 </metadata>
 <defs>
  <style type="text/css">*{stroke-linejoin: round; stroke-linecap: butt}</style>
 </defs>
 <g id="figure_1">
  <g id="patch_1">
   <path d="M 0 430.256875 
L 522.009375 430.256875 
L 522.009375 0 
L 0 0 
z
" style="fill: #ffffff"/>
  </g>
  <g id="axes_1">
   <g id="patch_2">
    <path d="M 68.409375 365.595937 
L 514.809375 365.595937 
L 514.809375 32.955937 
L 68.409375 32.955937 
z
" style="fill: #ffffff"/>
   </g>
   <g id="matplotlib.axis_1">
    <g id="xtick_1">
     <g id="line2d_1">
      <path d="M 88.700284 365.595937 
L 88.700284 32.955937 
" clip-path="url(#pc1eed5bcf2)" style="fill: none; stroke: #cccccc; stroke-opacity: 0.3; stroke-width: 1.5; stroke-linecap: round"/>
     </g>
     <g id="text_1">
      <!-- 0 -->
      <g style="fill: #262626" transform="translate(81.742472 393.292812) scale(0.2 -0.2)">
       <defs>
        <path id="DejaVuSerif-Bold-30" d="M 2228 275 
Q 2603 275 2742 615 
Q 2881 956 2881 2328 
Q 2881 3691 2742 4037 
Q 2603 4384 2228 4384 
Q 1853 4384 1714 4043 
Q 1575 3703 1575 2328 
Q 1575 956 1714 615 
Q 1853 275 2228 275 
z
M 2228 -91 
Q 1294 -91 797 532 
Q 300 1156 300 2328 
Q 300 3500 797 4125 
Q 1294 4750 2228 4750 
Q 3159 4750 3656 4125 
Q 4153 3500 4153 2328 
Q 4153 1156 3656 532 
Q 3159 -91 2228 -91 
z
" transform="scale(0.015625)"/>
       </defs>
       <use xlink:href="#DejaVuSerif-Bold-30"/>
      </g>
     </g>
    </g>
    <g id="xtick_2">
     <g id="line2d_2">
      <path d="M 190.15483 365.595937 
L 190.15483 32.955937 
" clip-path="url(#pc1eed5bcf2)" style="fill: none; stroke: #cccccc; stroke-opacity: 0.3; stroke-width: 1.5; stroke-linecap: round"/>
     </g>
     <g id="text_2">
      <!-- 1 -->
      <g style="fill: #262626" transform="translate(183.197017 393.292812) scale(0.2 -0.2)">
       <defs>
        <path id="DejaVuSerif-Bold-31" d="M 878 0 
L 878 378 
L 1753 378 
L 1753 4153 
L 781 3578 
L 781 4044 
L 1953 4750 
L 2938 4750 
L 2938 378 
L 3816 378 
L 3816 0 
L 878 0 
z
" transform="scale(0.015625)"/>
       </defs>
       <use xlink:href="#DejaVuSerif-Bold-31"/>
      </g>
     </g>
    </g>
    <g id="xtick_3">
     <g id="line2d_3">
      <path d="M 291.609375 365.595937 
L 291.609375 32.955937 
" clip-path="url(#pc1eed5bcf2)" style="fill: none; stroke: #cccccc; stroke-opacity: 0.3; stroke-width: 1.5; stroke-linecap: round"/>
     </g>
     <g id="text_3">
      <!-- 2 -->
      <g style="fill: #262626" transform="translate(284.651563 393.292812) scale(0.2 -0.2)">
       <defs>
        <path id="DejaVuSerif-Bold-32" d="M 844 3513 
L 469 3513 
L 469 4519 
Q 850 4634 1223 4692 
Q 1597 4750 1978 4750 
Q 2869 4750 3367 4386 
Q 3866 4022 3866 3372 
Q 3866 2909 3591 2542 
Q 3316 2175 2541 1672 
L 1241 819 
L 3450 819 
L 3450 1369 
L 3878 1369 
L 3878 0 
L 428 0 
L 428 763 
L 1119 1241 
Q 2003 1850 2297 2278 
Q 2591 2706 2591 3278 
Q 2591 3819 2367 4101 
Q 2144 4384 1716 4384 
Q 1347 4384 1125 4161 
Q 903 3938 844 3513 
z
" transform="scale(0.015625)"/>
       </defs>
       <use xlink:href="#DejaVuSerif-Bold-32"/>
      </g>
     </g>
    </g>
    <g id="xtick_4">
     <g id="line2d_4">
      <path d="M 393.06392 365.595937 
L 393.06392 32.955937 
" clip-path="url(#pc1eed5bcf2)" style="fill: none; stroke: #cccccc; stroke-opacity: 0.3; stroke-width: 1.5; stroke-linecap: round"/>
     </g>
     <g id="text_4">
      <!-- 3 -->
      <g style="fill: #262626" transform="translate(386.106108 393.292812) scale(0.2 -0.2)">
       <defs>
        <path id="DejaVuSerif-Bold-33" d="M 550 4531 
Q 963 4641 1350 4695 
Q 1738 4750 2106 4750 
Q 2950 4750 3401 4448 
Q 3853 4147 3853 3584 
Q 3853 3163 3593 2900 
Q 3334 2638 2834 2547 
Q 3444 2450 3744 2131 
Q 4044 1813 4044 1259 
Q 4044 606 3526 257 
Q 3009 -91 2028 -91 
Q 1659 -91 1267 -28 
Q 875 34 447 159 
L 447 1184 
L 825 1184 
Q 859 741 1103 508 
Q 1347 275 1778 275 
Q 2253 275 2512 539 
Q 2772 803 2772 1288 
Q 2772 1794 2501 2069 
Q 2231 2344 1734 2344 
L 1528 2344 
L 1528 2719 
L 1691 2719 
Q 2150 2719 2381 2931 
Q 2613 3144 2613 3566 
Q 2613 3963 2395 4173 
Q 2178 4384 1772 4384 
Q 1403 4384 1187 4182 
Q 972 3981 928 3597 
L 550 3597 
L 550 4531 
z
" transform="scale(0.015625)"/>
       </defs>
       <use xlink:href="#DejaVuSerif-Bold-33"/>
      </g>
     </g>
    </g>
    <g id="xtick_5">
     <g id="line2d_5">
      <path d="M 494.518466 365.595937 
L 494.518466 32.955937 
" clip-path="url(#pc1eed5bcf2)" style="fill: none; stroke: #cccccc; stroke-opacity: 0.3; stroke-width: 1.5; stroke-linecap: round"/>
     </g>
     <g id="text_5">
      <!-- 4 -->
      <g style="fill: #262626" transform="translate(487.560653 393.292812) scale(0.2 -0.2)">
       <defs>
        <path id="DejaVuSerif-Bold-34" d="M 4084 0 
L 1516 0 
L 1516 378 
L 2209 378 
L 2209 1228 
L 263 1228 
L 263 1588 
L 2216 4750 
L 3391 4750 
L 3391 1631 
L 4191 1631 
L 4191 1228 
L 3391 1228 
L 3391 378 
L 4084 378 
L 4084 0 
z
M 2209 1631 
L 2209 3897 
L 819 1631 
L 2209 1631 
z
" transform="scale(0.015625)"/>
       </defs>
       <use xlink:href="#DejaVuSerif-Bold-34"/>
      </g>
     </g>
    </g>
    <g id="text_6">
     <!-- Inference Delay, d -->
     <g style="fill: #262626" transform="translate(179.890625 418.16875) scale(0.22 -0.22)">
      <defs>
       <path id="DejaVuSerif-Bold-49" d="M 300 0 
L 300 378 
L 897 378 
L 897 4288 
L 300 4288 
L 300 4666 
L 2700 4666 
L 2700 4288 
L 2100 4288 
L 2100 378 
L 2700 378 
L 2700 0 
L 300 0 
z
" transform="scale(0.015625)"/>
       <path id="DejaVuSerif-Bold-6e" d="M 219 0 
L 219 378 
L 691 378 
L 691 2944 
L 219 2944 
L 219 3322 
L 1797 3322 
L 1797 2853 
Q 1997 3150 2253 3281 
Q 2509 3413 2900 3413 
Q 3459 3413 3745 3083 
Q 4031 2753 4031 2113 
L 4031 378 
L 4506 378 
L 4506 0 
L 2522 0 
L 2522 378 
L 2925 378 
L 2925 2144 
Q 2925 2566 2817 2730 
Q 2709 2894 2444 2894 
Q 2109 2894 1953 2648 
Q 1797 2403 1797 1869 
L 1797 378 
L 2203 378 
L 2203 0 
L 219 0 
z
" transform="scale(0.015625)"/>
       <path id="DejaVuSerif-Bold-66" d="M 3097 4031 
L 2747 4031 
Q 2722 4275 2605 4394 
Q 2488 4513 2272 4513 
Q 2022 4513 1909 4333 
Q 1797 4153 1797 3750 
L 1797 3322 
L 2631 3322 
L 2631 2944 
L 1797 2944 
L 1797 378 
L 2438 378 
L 2438 0 
L 219 0 
L 219 378 
L 691 378 
L 691 2944 
L 197 2944 
L 197 3322 
L 691 3322 
L 691 3738 
Q 691 4291 1044 4577 
Q 1397 4863 2081 4863 
Q 2347 4863 2600 4833 
Q 2853 4803 3097 4744 
L 3097 4031 
z
" transform="scale(0.015625)"/>
       <path id="DejaVuSerif-Bold-65" d="M 2566 1875 
Q 2566 2531 2444 2795 
Q 2322 3059 2028 3059 
Q 1744 3059 1620 2800 
Q 1497 2541 1497 1931 
L 1497 1875 
L 2566 1875 
z
M 3781 1503 
L 1497 1503 
L 1497 1478 
Q 1497 834 1690 548 
Q 1884 263 2316 263 
Q 2675 263 2897 453 
Q 3119 644 3181 1006 
L 3700 1006 
Q 3566 441 3166 175 
Q 2766 -91 2047 -91 
Q 1184 -91 723 364 
Q 263 819 263 1663 
Q 263 2488 734 2950 
Q 1206 3413 2047 3413 
Q 2872 3413 3312 2927 
Q 3753 2441 3781 1503 
z
" transform="scale(0.015625)"/>
       <path id="DejaVuSerif-Bold-72" d="M 3438 3359 
L 3438 2369 
L 3084 2369 
Q 3066 2634 2941 2764 
Q 2816 2894 2578 2894 
Q 2216 2894 2006 2575 
Q 1797 2256 1797 1691 
L 1797 378 
L 2400 378 
L 2400 0 
L 219 0 
L 219 378 
L 691 378 
L 691 2944 
L 184 2944 
L 184 3322 
L 1797 3322 
L 1797 2731 
Q 1959 3078 2226 3245 
Q 2494 3413 2881 3413 
Q 2978 3413 3117 3398 
Q 3256 3384 3438 3359 
z
" transform="scale(0.015625)"/>
       <path id="DejaVuSerif-Bold-63" d="M 3609 1038 
Q 3491 469 3123 189 
Q 2756 -91 2125 -91 
Q 1238 -91 750 368 
Q 263 828 263 1663 
Q 263 2488 744 2950 
Q 1225 3413 2081 3413 
Q 2428 3413 2781 3347 
Q 3134 3281 3500 3150 
L 3500 2228 
L 3150 2228 
Q 3100 2650 2903 2854 
Q 2706 3059 2350 3059 
Q 1888 3059 1692 2746 
Q 1497 2434 1497 1663 
Q 1497 909 1687 586 
Q 1878 263 2309 263 
Q 2644 263 2845 463 
Q 3047 663 3091 1038 
L 3609 1038 
z
" transform="scale(0.015625)"/>
       <path id="DejaVuSerif-Bold-20" transform="scale(0.015625)"/>
       <path id="DejaVuSerif-Bold-44" d="M 2100 378 
L 2534 378 
Q 3266 378 3605 847 
Q 3944 1316 3944 2338 
Q 3944 3353 3606 3820 
Q 3269 4288 2534 4288 
L 2100 4288 
L 2100 378 
z
M 300 0 
L 300 378 
L 897 378 
L 897 4288 
L 300 4288 
L 300 4666 
L 2694 4666 
Q 3950 4666 4615 4066 
Q 5281 3466 5281 2338 
Q 5281 1203 4614 601 
Q 3947 0 2694 0 
L 300 0 
z
" transform="scale(0.015625)"/>
       <path id="DejaVuSerif-Bold-6c" d="M 1797 378 
L 2272 378 
L 2272 0 
L 219 0 
L 219 378 
L 691 378 
L 691 4488 
L 219 4488 
L 219 4863 
L 1797 4863 
L 1797 378 
z
" transform="scale(0.015625)"/>
       <path id="DejaVuSerif-Bold-61" d="M 3525 2041 
L 3525 378 
L 4000 378 
L 4000 0 
L 2419 0 
L 2419 422 
Q 2200 159 1931 34 
Q 1663 -91 1319 -91 
Q 809 -91 536 182 
Q 263 456 263 966 
Q 263 1525 655 1803 
Q 1047 2081 1838 2081 
L 2419 2081 
L 2419 2278 
Q 2419 2681 2228 2873 
Q 2038 3066 1638 3066 
Q 1306 3066 1126 2930 
Q 947 2794 872 2484 
L 519 2484 
L 519 3200 
Q 816 3306 1134 3359 
Q 1453 3413 1806 3413 
Q 2697 3413 3111 3081 
Q 3525 2750 3525 2041 
z
M 2419 1044 
L 2419 1709 
L 2003 1709 
Q 1694 1709 1528 1540 
Q 1363 1372 1363 1056 
Q 1363 741 1483 584 
Q 1603 428 1850 428 
Q 2106 428 2262 597 
Q 2419 766 2419 1044 
z
" transform="scale(0.015625)"/>
       <path id="DejaVuSerif-Bold-79" d="M 1997 -750 
Q 1847 -1116 1634 -1269 
Q 1422 -1422 1063 -1422 
Q 909 -1422 721 -1387 
Q 534 -1353 313 -1288 
L 313 -594 
L 666 -597 
Q 675 -838 779 -953 
Q 884 -1069 1094 -1069 
Q 1297 -1069 1422 -958 
Q 1547 -847 1672 -538 
L 1722 -422 
L 275 2944 
L -84 2944 
L -84 3322 
L 1831 3322 
L 1831 2944 
L 1434 2944 
L 2278 978 
L 3066 2944 
L 2625 2944 
L 2625 3322 
L 3872 3322 
L 3872 2944 
L 3469 2944 
L 1997 -750 
z
" transform="scale(0.015625)"/>
       <path id="DejaVuSerif-Bold-2c" d="M 84 -616 
Q 409 -353 562 -28 
Q 716 297 716 728 
L 716 997 
L 1606 997 
L 1606 972 
Q 1606 281 1317 -217 
Q 1028 -716 428 -1056 
L 84 -616 
z
" transform="scale(0.015625)"/>
       <path id="DejaVuSerif-Bold-64" d="M 2747 1497 
L 2747 1825 
Q 2747 2406 2597 2665 
Q 2447 2925 2119 2925 
Q 1775 2925 1636 2651 
Q 1497 2378 1497 1663 
Q 1497 947 1637 672 
Q 1778 397 2119 397 
Q 2447 397 2597 656 
Q 2747 916 2747 1497 
z
M 3853 378 
L 4325 378 
L 4325 0 
L 2747 0 
L 2747 422 
Q 2606 163 2367 36 
Q 2128 -91 1778 -91 
Q 1072 -91 667 378 
Q 263 847 263 1663 
Q 263 2481 667 2947 
Q 1072 3413 1778 3413 
Q 2128 3413 2367 3286 
Q 2606 3159 2747 2900 
L 2747 4488 
L 2272 4488 
L 2272 4863 
L 3853 4863 
L 3853 378 
z
" transform="scale(0.015625)"/>
      </defs>
      <use xlink:href="#DejaVuSerif-Bold-49"/>
      <use xlink:href="#DejaVuSerif-Bold-6e" transform="translate(46.777344 0)"/>
      <use xlink:href="#DejaVuSerif-Bold-66" transform="translate(119.482422 0)"/>
      <use xlink:href="#DejaVuSerif-Bold-65" transform="translate(162.5 0)"/>
      <use xlink:href="#DejaVuSerif-Bold-72" transform="translate(226.123047 0)"/>
      <use xlink:href="#DejaVuSerif-Bold-65" transform="translate(278.808594 0)"/>
      <use xlink:href="#DejaVuSerif-Bold-6e" transform="translate(342.431641 0)"/>
      <use xlink:href="#DejaVuSerif-Bold-63" transform="translate(415.136719 0)"/>
      <use xlink:href="#DejaVuSerif-Bold-65" transform="translate(476.025391 0)"/>
      <use xlink:href="#DejaVuSerif-Bold-20" transform="translate(539.648438 0)"/>
      <use xlink:href="#DejaVuSerif-Bold-44" transform="translate(574.462891 0)"/>
      <use xlink:href="#DejaVuSerif-Bold-65" transform="translate(661.181641 0)"/>
      <use xlink:href="#DejaVuSerif-Bold-6c" transform="translate(724.804688 0)"/>
      <use xlink:href="#DejaVuSerif-Bold-61" transform="translate(762.792969 0)"/>
      <use xlink:href="#DejaVuSerif-Bold-79" transform="translate(827.587891 0)"/>
      <use xlink:href="#DejaVuSerif-Bold-2c" transform="translate(876.068359 0)"/>
      <use xlink:href="#DejaVuSerif-Bold-20" transform="translate(910.882812 0)"/>
      <use xlink:href="#DejaVuSerif-Bold-64" transform="translate(945.697266 0)"/>
     </g>
    </g>
   </g>
   <g id="matplotlib.axis_2">
    <g id="ytick_1">
     <g id="line2d_6">
      <path d="M 68.409375 365.595937 
L 514.809375 365.595937 
" clip-path="url(#pc1eed5bcf2)" style="fill: none; stroke: #cccccc; stroke-opacity: 0.3; stroke-width: 1.5; stroke-linecap: round"/>
     </g>
     <g id="text_7">
      <!-- 0.70 -->
      <g style="fill: #262626" transform="translate(7.2 373.194375) scale(0.2 -0.2)">
       <defs>
        <path id="DejaVuSerif-Bold-2e" d="M 519 506 
Q 519 750 694 925 
Q 869 1100 1113 1100 
Q 1359 1100 1534 925 
Q 1709 750 1709 506 
Q 1709 259 1534 84 
Q 1359 -91 1113 -91 
Q 869 -91 694 84 
Q 519 259 519 506 
z
" transform="scale(0.015625)"/>
        <path id="DejaVuSerif-Bold-37" d="M 3922 3872 
L 1997 0 
L 1363 0 
L 3238 3781 
L 934 3781 
L 934 3150 
L 506 3150 
L 506 4666 
L 3922 4666 
L 3922 3872 
z
" transform="scale(0.015625)"/>
       </defs>
       <use xlink:href="#DejaVuSerif-Bold-30"/>
       <use xlink:href="#DejaVuSerif-Bold-2e" transform="translate(69.580078 0)"/>
       <use xlink:href="#DejaVuSerif-Bold-37" transform="translate(104.394531 0)"/>
       <use xlink:href="#DejaVuSerif-Bold-30" transform="translate(173.974609 0)"/>
      </g>
     </g>
    </g>
    <g id="ytick_2">
     <g id="line2d_7">
      <path d="M 68.409375 299.067937 
L 514.809375 299.067937 
" clip-path="url(#pc1eed5bcf2)" style="fill: none; stroke: #cccccc; stroke-opacity: 0.3; stroke-width: 1.5; stroke-linecap: round"/>
     </g>
     <g id="text_8">
      <!-- 0.75 -->
      <g style="fill: #262626" transform="translate(7.2 306.666375) scale(0.2 -0.2)">
       <defs>
        <path id="DejaVuSerif-Bold-35" d="M 3609 4666 
L 3609 3847 
L 1113 3847 
L 1113 2822 
Q 1319 2981 1572 3062 
Q 1825 3144 2106 3144 
Q 2969 3144 3469 2708 
Q 3969 2272 3969 1522 
Q 3969 759 3469 334 
Q 2969 -91 2069 -91 
Q 1688 -91 1311 -28 
Q 934 34 525 166 
L 525 1184 
L 900 1184 
Q 919 725 1139 500 
Q 1359 275 1791 275 
Q 2250 275 2472 583 
Q 2694 891 2694 1522 
Q 2694 2144 2476 2451 
Q 2259 2759 1819 2759 
Q 1581 2759 1395 2661 
Q 1209 2563 1050 2356 
L 738 2356 
L 738 4666 
L 3609 4666 
z
" transform="scale(0.015625)"/>
       </defs>
       <use xlink:href="#DejaVuSerif-Bold-30"/>
       <use xlink:href="#DejaVuSerif-Bold-2e" transform="translate(69.580078 0)"/>
       <use xlink:href="#DejaVuSerif-Bold-37" transform="translate(104.394531 0)"/>
       <use xlink:href="#DejaVuSerif-Bold-35" transform="translate(173.974609 0)"/>
      </g>
     </g>
    </g>
    <g id="ytick_3">
     <g id="line2d_8">
      <path d="M 68.409375 232.539937 
L 514.809375 232.539937 
" clip-path="url(#pc1eed5bcf2)" style="fill: none; stroke: #cccccc; stroke-opacity: 0.3; stroke-width: 1.5; stroke-linecap: round"/>
     </g>
     <g id="text_9">
      <!-- 0.80 -->
      <g style="fill: #262626" transform="translate(7.2 240.138375) scale(0.2 -0.2)">
       <defs>
        <path id="DejaVuSerif-Bold-38" d="M 2975 2484 
Q 3531 2394 3820 2075 
Q 4109 1756 4109 1241 
Q 4109 597 3623 253 
Q 3138 -91 2222 -91 
Q 1306 -91 818 253 
Q 331 597 331 1241 
Q 331 1756 622 2075 
Q 913 2394 1466 2484 
Q 975 2597 731 2861 
Q 488 3125 488 3531 
Q 488 4125 931 4437 
Q 1375 4750 2222 4750 
Q 3066 4750 3511 4437 
Q 3956 4125 3956 3531 
Q 3956 3125 3711 2861 
Q 3466 2597 2975 2484 
z
M 2747 3519 
Q 2747 4013 2628 4198 
Q 2509 4384 2222 4384 
Q 1931 4384 1814 4198 
Q 1697 4013 1697 3519 
Q 1697 3028 1814 2845 
Q 1931 2663 2222 2663 
Q 2513 2663 2630 2845 
Q 2747 3028 2747 3519 
z
M 2869 1294 
Q 2869 1866 2723 2081 
Q 2578 2297 2222 2297 
Q 1863 2297 1719 2081 
Q 1575 1866 1575 1294 
Q 1575 716 1720 495 
Q 1866 275 2222 275 
Q 2575 275 2722 495 
Q 2869 716 2869 1294 
z
" transform="scale(0.015625)"/>
       </defs>
       <use xlink:href="#DejaVuSerif-Bold-30"/>
       <use xlink:href="#DejaVuSerif-Bold-2e" transform="translate(69.580078 0)"/>
       <use xlink:href="#DejaVuSerif-Bold-38" transform="translate(104.394531 0)"/>
       <use xlink:href="#DejaVuSerif-Bold-30" transform="translate(173.974609 0)"/>
      </g>
     </g>
    </g>
    <g id="ytick_4">
     <g id="line2d_9">
      <path d="M 68.409375 166.011937 
L 514.809375 166.011937 
" clip-path="url(#pc1eed5bcf2)" style="fill: none; stroke: #cccccc; stroke-opacity: 0.3; stroke-width: 1.5; stroke-linecap: round"/>
     </g>
     <g id="text_10">
      <!-- 0.85 -->
      <g style="fill: #262626" transform="translate(7.2 173.610375) scale(0.2 -0.2)">
       <use xlink:href="#DejaVuSerif-Bold-30"/>
       <use xlink:href="#DejaVuSerif-Bold-2e" transform="translate(69.580078 0)"/>
       <use xlink:href="#DejaVuSerif-Bold-38" transform="translate(104.394531 0)"/>
       <use xlink:href="#DejaVuSerif-Bold-35" transform="translate(173.974609 0)"/>
      </g>
     </g>
    </g>
    <g id="ytick_5">
     <g id="line2d_10">
      <path d="M 68.409375 99.483937 
L 514.809375 99.483937 
" clip-path="url(#pc1eed5bcf2)" style="fill: none; stroke: #cccccc; stroke-opacity: 0.3; stroke-width: 1.5; stroke-linecap: round"/>
     </g>
     <g id="text_11">
      <!-- 0.90 -->
      <g style="fill: #262626" transform="translate(7.2 107.082375) scale(0.2 -0.2)">
       <defs>
        <path id="DejaVuSerif-Bold-39" d="M 2181 4384 
Q 1859 4384 1723 4111 
Q 1588 3838 1588 3163 
Q 1588 2488 1723 2214 
Q 1859 1941 2181 1941 
Q 2503 1941 2640 2214 
Q 2778 2488 2778 3163 
Q 2778 3838 2640 4111 
Q 2503 4384 2181 4384 
z
M 2878 1900 
Q 2672 1734 2420 1651 
Q 2169 1569 1875 1569 
Q 1163 1569 755 1986 
Q 347 2403 347 3138 
Q 347 3913 803 4331 
Q 1259 4750 2106 4750 
Q 3063 4750 3556 4172 
Q 4050 3594 4050 2478 
Q 4050 1206 3503 557 
Q 2956 -91 1881 -91 
Q 1600 -91 1278 -44 
Q 956 3 588 97 
L 588 922 
L 966 922 
Q 1044 603 1261 439 
Q 1478 275 1825 275 
Q 2375 275 2625 658 
Q 2875 1041 2878 1900 
z
" transform="scale(0.015625)"/>
       </defs>
       <use xlink:href="#DejaVuSerif-Bold-30"/>
       <use xlink:href="#DejaVuSerif-Bold-2e" transform="translate(69.580078 0)"/>
       <use xlink:href="#DejaVuSerif-Bold-39" transform="translate(104.394531 0)"/>
       <use xlink:href="#DejaVuSerif-Bold-30" transform="translate(173.974609 0)"/>
      </g>
     </g>
    </g>
    <g id="ytick_6">
     <g id="line2d_11">
      <path d="M 68.409375 32.955937 
L 514.809375 32.955937 
" clip-path="url(#pc1eed5bcf2)" style="fill: none; stroke: #cccccc; stroke-opacity: 0.3; stroke-width: 1.5; stroke-linecap: round"/>
     </g>
     <g id="text_12">
      <!-- 0.95 -->
      <g style="fill: #262626" transform="translate(7.2 40.554375) scale(0.2 -0.2)">
       <use xlink:href="#DejaVuSerif-Bold-30"/>
       <use xlink:href="#DejaVuSerif-Bold-2e" transform="translate(69.580078 0)"/>
       <use xlink:href="#DejaVuSerif-Bold-39" transform="translate(104.394531 0)"/>
       <use xlink:href="#DejaVuSerif-Bold-35" transform="translate(173.974609 0)"/>
      </g>
     </g>
    </g>
   </g>
   <g id="line2d_12">
    <path d="M 88.700284 92.846297 
L 190.15483 88.839888 
L 291.609375 132.531378 
L 393.06392 189.487307 
L 494.518466 343.896377 
" clip-path="url(#pc1eed5bcf2)" style="fill: none; stroke: #1a8c1a; stroke-width: 3; stroke-linecap: round"/>
    <defs>
     <path id="ma9fa01b71b" d="M 0 4.5 
C 1.193414 4.5 2.338109 4.025852 3.181981 3.181981 
C 4.025852 2.338109 4.5 1.193414 4.5 0 
C 4.5 -1.193414 4.025852 -2.338109 3.181981 -3.181981 
C 2.338109 -4.025852 1.193414 -4.5 0 -4.5 
C -1.193414 -4.5 -2.338109 -4.025852 -3.181981 -3.181981 
C -4.025852 -2.338109 -4.5 -1.193414 -4.5 0 
C -4.5 1.193414 -4.025852 2.338109 -3.181981 3.181981 
C -2.338109 4.025852 -1.193414 4.5 0 4.5 
z
" style="stroke: #ffffff; stroke-width: 1.5"/>
    </defs>
    <g clip-path="url(#pc1eed5bcf2)">
     <use xlink:href="#ma9fa01b71b" x="88.700284" y="92.846297" style="fill: #1a8c1a; stroke: #ffffff; stroke-width: 1.5"/>
     <use xlink:href="#ma9fa01b71b" x="190.15483" y="88.839888" style="fill: #1a8c1a; stroke: #ffffff; stroke-width: 1.5"/>
     <use xlink:href="#ma9fa01b71b" x="291.609375" y="132.531378" style="fill: #1a8c1a; stroke: #ffffff; stroke-width: 1.5"/>
     <use xlink:href="#ma9fa01b71b" x="393.06392" y="189.487307" style="fill: #1a8c1a; stroke: #ffffff; stroke-width: 1.5"/>
     <use xlink:href="#ma9fa01b71b" x="494.518466" y="343.896377" style="fill: #1a8c1a; stroke: #ffffff; stroke-width: 1.5"/>
    </g>
   </g>
   <g id="line2d_13">
    <path d="M 88.700284 92.954574 
L 190.15483 85.26661 
L 291.609375 125.763803 
L 393.06392 179.471293 
L 494.518466 304.157155 
" clip-path="url(#pc1eed5bcf2)" style="fill: none; stroke: #d62728; stroke-width: 3; stroke-linecap: round"/>
    <defs>
     <path id="mdd3077c372" d="M 0 4.5 
C 1.193414 4.5 2.338109 4.025852 3.181981 3.181981 
C 4.025852 2.338109 4.5 1.193414 4.5 0 
C 4.5 -1.193414 4.025852 -2.338109 3.181981 -3.181981 
C 2.338109 -4.025852 1.193414 -4.5 0 -4.5 
C -1.193414 -4.5 -2.338109 -4.025852 -3.181981 -3.181981 
C -4.025852 -2.338109 -4.5 -1.193414 -4.5 0 
C -4.5 1.193414 -4.025852 2.338109 -3.181981 3.181981 
C -2.338109 4.025852 -1.193414 4.5 0 4.5 
z
" style="stroke: #ffffff; stroke-width: 1.5"/>
    </defs>
    <g clip-path="url(#pc1eed5bcf2)">
     <use xlink:href="#mdd3077c372" x="88.700284" y="92.954574" style="fill: #d62728; stroke: #ffffff; stroke-width: 1.5"/>
     <use xlink:href="#mdd3077c372" x="190.15483" y="85.26661" style="fill: #d62728; stroke: #ffffff; stroke-width: 1.5"/>
     <use xlink:href="#mdd3077c372" x="291.609375" y="125.763803" style="fill: #d62728; stroke: #ffffff; stroke-width: 1.5"/>
     <use xlink:href="#mdd3077c372" x="393.06392" y="179.471293" style="fill: #d62728; stroke: #ffffff; stroke-width: 1.5"/>
     <use xlink:href="#mdd3077c372" x="494.518466" y="304.157155" style="fill: #d62728; stroke: #ffffff; stroke-width: 1.5"/>
    </g>
   </g>
   <g id="line2d_14">
    <path d="M 88.700284 137.620592 
L 190.15483 136.754343 
L 291.609375 150.289502 
L 393.06392 179.471291 
L 494.518466 230.038634 
" clip-path="url(#pc1eed5bcf2)" style="fill: none; stroke: #9467bd; stroke-width: 3; stroke-linecap: round"/>
    <defs>
     <path id="m5baed1b881" d="M 0 4.5 
C 1.193414 4.5 2.338109 4.025852 3.181981 3.181981 
C 4.025852 2.338109 4.5 1.193414 4.5 0 
C 4.5 -1.193414 4.025852 -2.338109 3.181981 -3.181981 
C 2.338109 -4.025852 1.193414 -4.5 0 -4.5 
C -1.193414 -4.5 -2.338109 -4.025852 -3.181981 -3.181981 
C -4.025852 -2.338109 -4.5 -1.193414 -4.5 0 
C -4.5 1.193414 -4.025852 2.338109 -3.181981 3.181981 
C -2.338109 4.025852 -1.193414 4.5 0 4.5 
z
" style="stroke: #ffffff; stroke-width: 1.5"/>
    </defs>
    <g clip-path="url(#pc1eed5bcf2)">
     <use xlink:href="#m5baed1b881" x="88.700284" y="137.620592" style="fill: #9467bd; stroke: #ffffff; stroke-width: 1.5"/>
     <use xlink:href="#m5baed1b881" x="190.15483" y="136.754343" style="fill: #9467bd; stroke: #ffffff; stroke-width: 1.5"/>
     <use xlink:href="#m5baed1b881" x="291.609375" y="150.289502" style="fill: #9467bd; stroke: #ffffff; stroke-width: 1.5"/>
     <use xlink:href="#m5baed1b881" x="393.06392" y="179.471291" style="fill: #9467bd; stroke: #ffffff; stroke-width: 1.5"/>
     <use xlink:href="#m5baed1b881" x="494.518466" y="230.038634" style="fill: #9467bd; stroke: #ffffff; stroke-width: 1.5"/>
    </g>
   </g>
   <g id="line2d_15">
    <path d="M 88.700284 104.053401 
L 190.15483 123.977157 
L 291.609375 149.748093 
L 393.06392 233.557774 
L 494.518466 346.482132 
" clip-path="url(#pc1eed5bcf2)" style="fill: none; stroke: #1f77b4; stroke-width: 3; stroke-linecap: round"/>
    <defs>
     <path id="m7b9f49ecd1" d="M 0 4.5 
C 1.193414 4.5 2.338109 4.025852 3.181981 3.181981 
C 4.025852 2.338109 4.5 1.193414 4.5 0 
C 4.5 -1.193414 4.025852 -2.338109 3.181981 -3.181981 
C 2.338109 -4.025852 1.193414 -4.5 0 -4.5 
C -1.193414 -4.5 -2.338109 -4.025852 -3.181981 -3.181981 
C -4.025852 -2.338109 -4.5 -1.193414 -4.5 0 
C -4.5 1.193414 -4.025852 2.338109 -3.181981 3.181981 
C -2.338109 4.025852 -1.193414 4.5 0 4.5 
z
" style="stroke: #ffffff; stroke-width: 1.5"/>
    </defs>
    <g clip-path="url(#pc1eed5bcf2)">
     <use xlink:href="#m7b9f49ecd1" x="88.700284" y="104.053401" style="fill: #1f77b4; stroke: #ffffff; stroke-width: 1.5"/>
     <use xlink:href="#m7b9f49ecd1" x="190.15483" y="123.977157" style="fill: #1f77b4; stroke: #ffffff; stroke-width: 1.5"/>
     <use xlink:href="#m7b9f49ecd1" x="291.609375" y="149.748093" style="fill: #1f77b4; stroke: #ffffff; stroke-width: 1.5"/>
     <use xlink:href="#m7b9f49ecd1" x="393.06392" y="233.557774" style="fill: #1f77b4; stroke: #ffffff; stroke-width: 1.5"/>
     <use xlink:href="#m7b9f49ecd1" x="494.518466" y="346.482132" style="fill: #1f77b4; stroke: #ffffff; stroke-width: 1.5"/>
    </g>
   </g>
   <g id="patch_3">
    <path d="M 68.409375 365.595937 
L 68.409375 32.955937 
" style="fill: none; stroke: #cccccc; stroke-width: 1.875; stroke-linejoin: miter; stroke-linecap: square"/>
   </g>
   <g id="patch_4">
    <path d="M 514.809375 365.595937 
L 514.809375 32.955937 
" style="fill: none; stroke: #cccccc; stroke-width: 1.875; stroke-linejoin: miter; stroke-linecap: square"/>
   </g>
   <g id="patch_5">
    <path d="M 68.409375 365.595937 
L 514.809375 365.595937 
" style="fill: none; stroke: #cccccc; stroke-width: 1.875; stroke-linejoin: miter; stroke-linecap: square"/>
   </g>
   <g id="patch_6">
    <path d="M 68.409375 32.955937 
L 514.809375 32.955937 
" style="fill: none; stroke: #cccccc; stroke-width: 1.875; stroke-linejoin: miter; stroke-linecap: square"/>
   </g>
   <g id="text_13">
    <!-- Average Solve Rate -->
    <g style="fill: #262626" transform="translate(151.912187 26.955937) scale(0.26 -0.26)">
     <defs>
      <path id="DejaVuSerif-Bold-41" d="M -50 0 
L -50 378 
L 331 378 
L 2088 4666 
L 2834 4666 
L 4594 378 
L 5038 378 
L 5038 0 
L 2853 0 
L 2853 378 
L 3309 378 
L 2925 1331 
L 1172 1331 
L 781 378 
L 1338 378 
L 1338 0 
L -50 0 
z
M 1325 1709 
L 2772 1709 
L 2053 3494 
L 1325 1709 
z
" transform="scale(0.015625)"/>
      <path id="DejaVuSerif-Bold-76" d="M 1428 0 
L 250 2944 
L -116 2944 
L -116 3322 
L 1791 3322 
L 1791 2944 
L 1388 2944 
L 2228 844 
L 3066 2944 
L 2631 2944 
L 2631 3322 
L 3878 3322 
L 3878 2944 
L 3494 2944 
L 2316 0 
L 1428 0 
z
" transform="scale(0.015625)"/>
      <path id="DejaVuSerif-Bold-67" d="M 3853 2944 
L 3853 44 
Q 3853 -656 3354 -1039 
Q 2856 -1422 1947 -1422 
Q 1616 -1422 1275 -1370 
Q 934 -1319 575 -1216 
L 575 -422 
L 928 -422 
Q 975 -750 1192 -909 
Q 1409 -1069 1813 -1069 
Q 2325 -1069 2536 -823 
Q 2747 -578 2747 44 
L 2747 422 
Q 2606 163 2367 36 
Q 2128 -91 1778 -91 
Q 1072 -91 667 378 
Q 263 847 263 1663 
Q 263 2481 667 2947 
Q 1072 3413 1778 3413 
Q 2128 3413 2367 3286 
Q 2606 3159 2747 2900 
L 2747 3322 
L 4325 3322 
L 4325 2944 
L 3853 2944 
z
M 2747 1825 
Q 2747 2406 2597 2665 
Q 2447 2925 2119 2925 
Q 1775 2925 1636 2651 
Q 1497 2378 1497 1663 
Q 1497 947 1637 672 
Q 1778 397 2119 397 
Q 2447 397 2597 656 
Q 2747 916 2747 1497 
L 2747 1825 
z
" transform="scale(0.015625)"/>
      <path id="DejaVuSerif-Bold-53" d="M 494 225 
L 494 1331 
L 891 1331 
Q 981 806 1318 547 
Q 1656 288 2253 288 
Q 2738 288 2991 472 
Q 3244 656 3244 1013 
Q 3244 1294 3072 1450 
Q 2900 1606 2363 1741 
L 1663 1913 
Q 978 2088 700 2398 
Q 422 2709 422 3284 
Q 422 3978 883 4364 
Q 1344 4750 2175 4750 
Q 2584 4750 3026 4681 
Q 3469 4613 3944 4475 
L 3944 3444 
L 3547 3444 
Q 3456 3925 3150 4148 
Q 2844 4372 2278 4372 
Q 1816 4372 1580 4211 
Q 1344 4050 1344 3731 
Q 1344 3441 1506 3289 
Q 1669 3138 2303 2975 
L 3003 2803 
Q 3653 2641 3945 2297 
Q 4238 1953 4238 1350 
Q 4238 644 3750 276 
Q 3263 -91 2316 -91 
Q 1859 -91 1409 -12 
Q 959 66 494 225 
z
" transform="scale(0.015625)"/>
      <path id="DejaVuSerif-Bold-6f" d="M 2138 263 
Q 2488 263 2630 563 
Q 2772 863 2772 1663 
Q 2772 2463 2631 2761 
Q 2491 3059 2138 3059 
Q 1784 3059 1640 2757 
Q 1497 2456 1497 1663 
Q 1497 869 1640 566 
Q 1784 263 2138 263 
z
M 2138 -91 
Q 1259 -91 761 376 
Q 263 844 263 1663 
Q 263 2484 761 2948 
Q 1259 3413 2138 3413 
Q 3019 3413 3516 2948 
Q 4013 2484 4013 1663 
Q 4013 844 3514 376 
Q 3016 -91 2138 -91 
z
" transform="scale(0.015625)"/>
      <path id="DejaVuSerif-Bold-52" d="M 3397 2278 
Q 3675 2238 3865 2094 
Q 4056 1950 4197 1678 
L 4878 378 
L 5356 378 
L 5356 0 
L 3822 0 
L 3078 1409 
Q 2863 1847 2711 1967 
Q 2559 2088 2291 2088 
L 2100 2088 
L 2100 378 
L 2700 378 
L 2700 0 
L 300 0 
L 300 378 
L 897 378 
L 897 4288 
L 300 4288 
L 300 4666 
L 2963 4666 
Q 3775 4666 4217 4339 
Q 4659 4013 4659 3413 
Q 4659 2925 4345 2642 
Q 4031 2359 3397 2278 
z
M 2100 2463 
L 2509 2463 
Q 2947 2463 3183 2700 
Q 3419 2938 3419 3378 
Q 3419 3819 3183 4053 
Q 2947 4288 2509 4288 
L 2100 4288 
L 2100 2463 
z
" transform="scale(0.015625)"/>
      <path id="DejaVuSerif-Bold-74" d="M 634 2944 
L 153 2944 
L 153 3322 
L 634 3322 
L 634 4353 
L 1741 4353 
L 1741 3322 
L 2663 3322 
L 2663 2944 
L 1741 2944 
L 1741 909 
Q 1741 475 1809 369 
Q 1878 263 2059 263 
Q 2259 263 2356 397 
Q 2453 531 2459 813 
L 2925 813 
Q 2897 313 2651 111 
Q 2406 -91 1806 -91 
Q 1122 -91 878 123 
Q 634 338 634 909 
L 634 2944 
z
" transform="scale(0.015625)"/>
     </defs>
     <use xlink:href="#DejaVuSerif-Bold-41"/>
     <use xlink:href="#DejaVuSerif-Bold-76" transform="translate(73.587891 0)"/>
     <use xlink:href="#DejaVuSerif-Bold-65" transform="translate(131.693359 0)"/>
     <use xlink:href="#DejaVuSerif-Bold-72" transform="translate(195.316406 0)"/>
     <use xlink:href="#DejaVuSerif-Bold-61" transform="translate(248.001953 0)"/>
     <use xlink:href="#DejaVuSerif-Bold-67" transform="translate(312.796875 0)"/>
     <use xlink:href="#DejaVuSerif-Bold-65" transform="translate(382.71875 0)"/>
     <use xlink:href="#DejaVuSerif-Bold-20" transform="translate(446.341797 0)"/>
     <use xlink:href="#DejaVuSerif-Bold-53" transform="translate(481.15625 0)"/>
     <use xlink:href="#DejaVuSerif-Bold-6f" transform="translate(553.373047 0)"/>
     <use xlink:href="#DejaVuSerif-Bold-6c" transform="translate(620.072266 0)"/>
     <use xlink:href="#DejaVuSerif-Bold-76" transform="translate(658.060547 0)"/>
     <use xlink:href="#DejaVuSerif-Bold-65" transform="translate(716.166016 0)"/>
     <use xlink:href="#DejaVuSerif-Bold-20" transform="translate(779.789062 0)"/>
     <use xlink:href="#DejaVuSerif-Bold-52" transform="translate(814.603516 0)"/>
     <use xlink:href="#DejaVuSerif-Bold-61" transform="translate(899.958984 0)"/>
     <use xlink:href="#DejaVuSerif-Bold-74" transform="translate(964.753906 0)"/>
     <use xlink:href="#DejaVuSerif-Bold-65" transform="translate(1010.945312 0)"/>
    </g>
   </g>
   <g id="legend_1">
    <g id="patch_7">
     <path d="M 78.909375 358.095937 
L 377.460938 358.095937 
Q 380.460938 358.095937 380.460938 355.095937 
L 380.460938 268.313906 
Q 380.460938 265.313906 377.460938 265.313906 
L 78.909375 265.313906 
Q 75.909375 265.313906 75.909375 268.313906 
L 75.909375 355.095937 
Q 75.909375 358.095937 78.909375 358.095937 
z
" style="fill: #ffffff; opacity: 0.7; stroke: #cccccc; stroke-width: 1.5; stroke-linejoin: miter"/>
    </g>
    <g id="line2d_16">
     <path d="M 81.909375 277.461563 
L 95.409375 277.461563 
L 108.909375 277.461563 
" style="fill: none; stroke: #1a8c1a; stroke-width: 3; stroke-linecap: round"/>
     <g>
      <use xlink:href="#ma9fa01b71b" x="95.409375" y="277.461563" style="fill: #1a8c1a; stroke: #ffffff; stroke-width: 1.5"/>
     </g>
    </g>
    <g id="text_14">
     <!-- DiscreteRTC -->
     <g style="fill: #262626" transform="translate(116.409375 282.711563) scale(0.15 -0.15)">
      <defs>
       <path id="DejaVuSerif-Bold-69" d="M 588 4263 
Q 588 4516 763 4689 
Q 938 4863 1191 4863 
Q 1438 4863 1611 4689 
Q 1784 4516 1784 4263 
Q 1784 4016 1611 3842 
Q 1438 3669 1191 3669 
Q 938 3669 763 3841 
Q 588 4013 588 4263 
z
M 1797 378 
L 2272 378 
L 2272 0 
L 219 0 
L 219 378 
L 691 378 
L 691 2944 
L 219 2944 
L 219 3322 
L 1797 3322 
L 1797 378 
z
" transform="scale(0.015625)"/>
       <path id="DejaVuSerif-Bold-73" d="M 300 97 
L 300 1025 
L 653 1025 
Q 697 653 931 458 
Q 1166 263 1569 263 
Q 1906 263 2086 380 
Q 2266 497 2266 716 
Q 2266 916 2152 1025 
Q 2038 1134 1709 1216 
L 1253 1331 
Q 738 1459 506 1698 
Q 275 1938 275 2344 
Q 275 2884 650 3148 
Q 1025 3413 1806 3413 
Q 2100 3413 2433 3364 
Q 2766 3316 3169 3213 
L 3169 2375 
L 2816 2375 
Q 2788 2716 2573 2887 
Q 2359 3059 1959 3059 
Q 1622 3059 1448 2951 
Q 1275 2844 1275 2638 
Q 1275 2469 1375 2372 
Q 1475 2275 1734 2209 
L 2188 2094 
Q 2841 1928 3091 1684 
Q 3341 1441 3341 1006 
Q 3341 444 2939 176 
Q 2538 -91 1691 -91 
Q 1381 -91 1034 -44 
Q 688 3 300 97 
z
" transform="scale(0.015625)"/>
       <path id="DejaVuSerif-Bold-54" d="M 1159 0 
L 1159 378 
L 1778 378 
L 1778 4238 
L 500 4238 
L 500 3500 
L 72 3500 
L 72 4666 
L 4697 4666 
L 4697 3500 
L 4275 3500 
L 4275 4238 
L 2988 4238 
L 2988 378 
L 3609 378 
L 3609 0 
L 1159 0 
z
" transform="scale(0.015625)"/>
       <path id="DejaVuSerif-Bold-43" d="M 4769 1331 
Q 4584 609 4106 259 
Q 3628 -91 2822 -91 
Q 1641 -91 955 561 
Q 269 1213 269 2328 
Q 269 3447 955 4098 
Q 1641 4750 2822 4750 
Q 3238 4750 3688 4650 
Q 4138 4550 4641 4347 
L 4641 3200 
L 4244 3200 
Q 4122 3788 3800 4080 
Q 3478 4372 2950 4372 
Q 2269 4372 1937 3870 
Q 1606 3369 1606 2328 
Q 1606 1288 1937 788 
Q 2269 288 2956 288 
Q 3422 288 3717 547 
Q 4013 806 4147 1331 
L 4769 1331 
z
" transform="scale(0.015625)"/>
      </defs>
      <use xlink:href="#DejaVuSerif-Bold-44"/>
      <use xlink:href="#DejaVuSerif-Bold-69" transform="translate(86.71875 0)"/>
      <use xlink:href="#DejaVuSerif-Bold-73" transform="translate(124.707031 0)"/>
      <use xlink:href="#DejaVuSerif-Bold-63" transform="translate(181.005859 0)"/>
      <use xlink:href="#DejaVuSerif-Bold-72" transform="translate(241.894531 0)"/>
      <use xlink:href="#DejaVuSerif-Bold-65" transform="translate(294.580078 0)"/>
      <use xlink:href="#DejaVuSerif-Bold-74" transform="translate(358.203125 0)"/>
      <use xlink:href="#DejaVuSerif-Bold-65" transform="translate(404.394531 0)"/>
      <use xlink:href="#DejaVuSerif-Bold-52" transform="translate(468.017578 0)"/>
      <use xlink:href="#DejaVuSerif-Bold-54" transform="translate(549.373047 0)"/>
      <use xlink:href="#DejaVuSerif-Bold-43" transform="translate(623.787109 0)"/>
     </g>
    </g>
    <g id="line2d_17">
     <path d="M 81.909375 299.47875 
L 95.409375 299.47875 
L 108.909375 299.47875 
" style="fill: none; stroke: #d62728; stroke-width: 3; stroke-linecap: round"/>
     <g>
      <use xlink:href="#mdd3077c372" x="95.409375" y="299.47875" style="fill: #d62728; stroke: #ffffff; stroke-width: 1.5"/>
     </g>
    </g>
    <g id="text_15">
     <!-- DiscreteRTC + Fixed Steps -->
     <g style="fill: #262626" transform="translate(116.409375 304.72875) scale(0.15 -0.15)">
      <defs>
       <path id="DejaVuSerif-Bold-2b" d="M 3041 4013 
L 3041 2369 
L 4684 2369 
L 4684 1650 
L 3041 1650 
L 3041 6 
L 2322 6 
L 2322 1650 
L 678 1650 
L 678 2369 
L 2322 2369 
L 2322 4013 
L 3041 4013 
z
" transform="scale(0.015625)"/>
       <path id="DejaVuSerif-Bold-46" d="M 300 0 
L 300 378 
L 897 378 
L 897 4288 
L 300 4288 
L 300 4666 
L 4459 4666 
L 4459 3566 
L 4031 3566 
L 4031 4238 
L 2106 4238 
L 2106 2741 
L 3291 2741 
L 3291 3334 
L 3719 3334 
L 3719 1722 
L 3291 1722 
L 3291 2316 
L 2106 2316 
L 2106 378 
L 2841 378 
L 2841 0 
L 300 0 
z
" transform="scale(0.015625)"/>
       <path id="DejaVuSerif-Bold-78" d="M 2247 2119 
L 2834 2944 
L 2425 2944 
L 2425 3322 
L 3719 3322 
L 3719 2944 
L 3278 2944 
L 2431 1759 
L 3419 378 
L 3859 378 
L 3859 0 
L 1747 0 
L 1747 378 
L 2175 378 
L 1550 1253 
L 922 378 
L 1369 378 
L 1369 0 
L 0 0 
L 0 378 
L 475 378 
L 1356 1619 
L 403 2944 
L 31 2944 
L 31 3322 
L 2059 3322 
L 2059 2944 
L 1656 2944 
L 2247 2119 
z
" transform="scale(0.015625)"/>
       <path id="DejaVuSerif-Bold-70" d="M 1728 1825 
L 1728 1497 
Q 1728 916 1876 656 
Q 2025 397 2356 397 
Q 2697 397 2836 672 
Q 2975 947 2975 1663 
Q 2975 2378 2836 2651 
Q 2697 2925 2356 2925 
Q 2025 2925 1876 2665 
Q 1728 2406 1728 1825 
z
M 622 2944 
L 147 2944 
L 147 3322 
L 1728 3322 
L 1728 2900 
Q 1869 3159 2106 3286 
Q 2344 3413 2694 3413 
Q 3403 3413 3811 2945 
Q 4219 2478 4219 1663 
Q 4219 847 3811 378 
Q 3403 -91 2694 -91 
Q 2344 -91 2106 36 
Q 1869 163 1728 422 
L 1728 -953 
L 2241 -953 
L 2241 -1331 
L 147 -1331 
L 147 -953 
L 622 -953 
L 622 2944 
z
" transform="scale(0.015625)"/>
      </defs>
      <use xlink:href="#DejaVuSerif-Bold-44"/>
      <use xlink:href="#DejaVuSerif-Bold-69" transform="translate(86.71875 0)"/>
      <use xlink:href="#DejaVuSerif-Bold-73" transform="translate(124.707031 0)"/>
      <use xlink:href="#DejaVuSerif-Bold-63" transform="translate(181.005859 0)"/>
      <use xlink:href="#DejaVuSerif-Bold-72" transform="translate(241.894531 0)"/>
      <use xlink:href="#DejaVuSerif-Bold-65" transform="translate(294.580078 0)"/>
      <use xlink:href="#DejaVuSerif-Bold-74" transform="translate(358.203125 0)"/>
      <use xlink:href="#DejaVuSerif-Bold-65" transform="translate(404.394531 0)"/>
      <use xlink:href="#DejaVuSerif-Bold-52" transform="translate(468.017578 0)"/>
      <use xlink:href="#DejaVuSerif-Bold-54" transform="translate(549.373047 0)"/>
      <use xlink:href="#DejaVuSerif-Bold-43" transform="translate(623.787109 0)"/>
      <use xlink:href="#DejaVuSerif-Bold-20" transform="translate(703.376953 0)"/>
      <use xlink:href="#DejaVuSerif-Bold-2b" transform="translate(738.191406 0)"/>
      <use xlink:href="#DejaVuSerif-Bold-20" transform="translate(821.980469 0)"/>
      <use xlink:href="#DejaVuSerif-Bold-46" transform="translate(856.794922 0)"/>
      <use xlink:href="#DejaVuSerif-Bold-69" transform="translate(927.791016 0)"/>
      <use xlink:href="#DejaVuSerif-Bold-78" transform="translate(965.779297 0)"/>
      <use xlink:href="#DejaVuSerif-Bold-65" transform="translate(1025.398438 0)"/>
      <use xlink:href="#DejaVuSerif-Bold-64" transform="translate(1089.021484 0)"/>
      <use xlink:href="#DejaVuSerif-Bold-20" transform="translate(1158.943359 0)"/>
      <use xlink:href="#DejaVuSerif-Bold-53" transform="translate(1193.757812 0)"/>
      <use xlink:href="#DejaVuSerif-Bold-74" transform="translate(1265.974609 0)"/>
      <use xlink:href="#DejaVuSerif-Bold-65" transform="translate(1312.166016 0)"/>
      <use xlink:href="#DejaVuSerif-Bold-70" transform="translate(1375.789062 0)"/>
      <use xlink:href="#DejaVuSerif-Bold-73" transform="translate(1445.710938 0)"/>
     </g>
    </g>
    <g id="line2d_18">
     <path d="M 81.909375 321.495937 
L 95.409375 321.495937 
L 108.909375 321.495937 
" style="fill: none; stroke: #9467bd; stroke-width: 3; stroke-linecap: round"/>
     <g>
      <use xlink:href="#m5baed1b881" x="95.409375" y="321.495937" style="fill: #9467bd; stroke: #ffffff; stroke-width: 1.5"/>
     </g>
    </g>
    <g id="text_16">
     <!-- DiscreteVLASH -->
     <g style="fill: #262626" transform="translate(116.409375 326.745937) scale(0.15 -0.15)">
      <defs>
       <path id="DejaVuSerif-Bold-56" d="M 5056 4666 
L 5056 4288 
L 4666 4288 
L 2906 0 
L 2163 0 
L 403 4288 
L -38 4288 
L -38 4666 
L 2150 4666 
L 2150 4288 
L 1697 4288 
L 2956 1197 
L 4225 4288 
L 3669 4288 
L 3669 4666 
L 5056 4666 
z
" transform="scale(0.015625)"/>
       <path id="DejaVuSerif-Bold-4c" d="M 300 0 
L 300 378 
L 897 378 
L 897 4288 
L 300 4288 
L 300 4666 
L 2700 4666 
L 2700 4288 
L 2100 4288 
L 2100 428 
L 3938 428 
L 3938 1166 
L 4359 1166 
L 4359 0 
L 300 0 
z
" transform="scale(0.015625)"/>
       <path id="DejaVuSerif-Bold-48" d="M 300 0 
L 300 378 
L 897 378 
L 897 4288 
L 300 4288 
L 300 4666 
L 2700 4666 
L 2700 4288 
L 2100 4288 
L 2100 2719 
L 3956 2719 
L 3956 4288 
L 3359 4288 
L 3359 4666 
L 5759 4666 
L 5759 4288 
L 5159 4288 
L 5159 378 
L 5759 378 
L 5759 0 
L 3359 0 
L 3359 378 
L 3956 378 
L 3956 2291 
L 2100 2291 
L 2100 378 
L 2700 378 
L 2700 0 
L 300 0 
z
" transform="scale(0.015625)"/>
      </defs>
      <use xlink:href="#DejaVuSerif-Bold-44"/>
      <use xlink:href="#DejaVuSerif-Bold-69" transform="translate(86.71875 0)"/>
      <use xlink:href="#DejaVuSerif-Bold-73" transform="translate(124.707031 0)"/>
      <use xlink:href="#DejaVuSerif-Bold-63" transform="translate(181.005859 0)"/>
      <use xlink:href="#DejaVuSerif-Bold-72" transform="translate(241.894531 0)"/>
      <use xlink:href="#DejaVuSerif-Bold-65" transform="translate(294.580078 0)"/>
      <use xlink:href="#DejaVuSerif-Bold-74" transform="translate(358.203125 0)"/>
      <use xlink:href="#DejaVuSerif-Bold-65" transform="translate(404.394531 0)"/>
      <use xlink:href="#DejaVuSerif-Bold-56" transform="translate(468.017578 0)"/>
      <use xlink:href="#DejaVuSerif-Bold-4c" transform="translate(545.605469 0)"/>
      <use xlink:href="#DejaVuSerif-Bold-41" transform="translate(615.917969 0)"/>
      <use xlink:href="#DejaVuSerif-Bold-53" transform="translate(693.505859 0)"/>
      <use xlink:href="#DejaVuSerif-Bold-48" transform="translate(765.722656 0)"/>
     </g>
    </g>
    <g id="line2d_19">
     <path d="M 81.909375 343.513125 
L 95.409375 343.513125 
L 108.909375 343.513125 
" style="fill: none; stroke: #1f77b4; stroke-width: 3; stroke-linecap: round"/>
     <g>
      <use xlink:href="#m7b9f49ecd1" x="95.409375" y="343.513125" style="fill: #1f77b4; stroke: #ffffff; stroke-width: 1.5"/>
     </g>
    </g>
    <g id="text_17">
     <!-- Training-time Continuous RTC -->
     <g style="fill: #262626" transform="translate(116.409375 348.763125) scale(0.15 -0.15)">
      <defs>
       <path id="DejaVuSerif-Bold-2d" d="M 347 2138 
L 2309 2138 
L 2309 1294 
L 347 1294 
L 347 2138 
z
" transform="scale(0.015625)"/>
       <path id="DejaVuSerif-Bold-6d" d="M 3884 2778 
Q 4116 3109 4384 3261 
Q 4653 3413 5013 3413 
Q 5584 3413 5867 3089 
Q 6150 2766 6150 2113 
L 6150 378 
L 6625 378 
L 6625 0 
L 4647 0 
L 4647 378 
L 5044 378 
L 5044 1947 
Q 5044 2569 4948 2731 
Q 4853 2894 4594 2894 
Q 4300 2894 4137 2667 
Q 3975 2441 3975 2022 
L 3975 378 
L 4372 378 
L 4372 0 
L 2472 0 
L 2472 378 
L 2869 378 
L 2869 1947 
Q 2869 2569 2772 2731 
Q 2675 2894 2419 2894 
Q 2122 2894 1959 2667 
Q 1797 2441 1797 2022 
L 1797 378 
L 2194 378 
L 2194 0 
L 219 0 
L 219 378 
L 691 378 
L 691 2944 
L 219 2944 
L 219 3322 
L 1797 3322 
L 1797 2853 
Q 1991 3144 2241 3278 
Q 2491 3413 2834 3413 
Q 3241 3413 3494 3258 
Q 3747 3103 3884 2778 
z
" transform="scale(0.015625)"/>
       <path id="DejaVuSerif-Bold-75" d="M 3963 3322 
L 3963 378 
L 4434 378 
L 4434 0 
L 2853 0 
L 2853 469 
Q 2656 172 2400 40 
Q 2144 -91 1753 -91 
Q 1194 -91 908 239 
Q 622 569 622 1209 
L 622 2944 
L 147 2944 
L 147 3322 
L 1728 3322 
L 1728 1381 
Q 1728 763 1831 595 
Q 1934 428 2209 428 
Q 2544 428 2698 675 
Q 2853 922 2853 1459 
L 2853 2944 
L 2450 2944 
L 2450 3322 
L 3963 3322 
z
" transform="scale(0.015625)"/>
      </defs>
      <use xlink:href="#DejaVuSerif-Bold-54"/>
      <use xlink:href="#DejaVuSerif-Bold-72" transform="translate(67.164062 0)"/>
      <use xlink:href="#DejaVuSerif-Bold-61" transform="translate(119.849609 0)"/>
      <use xlink:href="#DejaVuSerif-Bold-69" transform="translate(184.644531 0)"/>
      <use xlink:href="#DejaVuSerif-Bold-6e" transform="translate(222.632812 0)"/>
      <use xlink:href="#DejaVuSerif-Bold-69" transform="translate(295.337891 0)"/>
      <use xlink:href="#DejaVuSerif-Bold-6e" transform="translate(333.326172 0)"/>
      <use xlink:href="#DejaVuSerif-Bold-67" transform="translate(406.03125 0)"/>
      <use xlink:href="#DejaVuSerif-Bold-2d" transform="translate(475.953125 0)"/>
      <use xlink:href="#DejaVuSerif-Bold-74" transform="translate(517.457031 0)"/>
      <use xlink:href="#DejaVuSerif-Bold-69" transform="translate(563.648438 0)"/>
      <use xlink:href="#DejaVuSerif-Bold-6d" transform="translate(601.636719 0)"/>
      <use xlink:href="#DejaVuSerif-Bold-65" transform="translate(707.447266 0)"/>
      <use xlink:href="#DejaVuSerif-Bold-20" transform="translate(771.070312 0)"/>
      <use xlink:href="#DejaVuSerif-Bold-43" transform="translate(805.884766 0)"/>
      <use xlink:href="#DejaVuSerif-Bold-6f" transform="translate(885.474609 0)"/>
      <use xlink:href="#DejaVuSerif-Bold-6e" transform="translate(952.173828 0)"/>
      <use xlink:href="#DejaVuSerif-Bold-74" transform="translate(1024.878906 0)"/>
      <use xlink:href="#DejaVuSerif-Bold-69" transform="translate(1071.070312 0)"/>
      <use xlink:href="#DejaVuSerif-Bold-6e" transform="translate(1109.058594 0)"/>
      <use xlink:href="#DejaVuSerif-Bold-75" transform="translate(1181.763672 0)"/>
      <use xlink:href="#DejaVuSerif-Bold-6f" transform="translate(1254.46875 0)"/>
      <use xlink:href="#DejaVuSerif-Bold-75" transform="translate(1321.167969 0)"/>
      <use xlink:href="#DejaVuSerif-Bold-73" transform="translate(1393.873047 0)"/>
      <use xlink:href="#DejaVuSerif-Bold-20" transform="translate(1450.171875 0)"/>
      <use xlink:href="#DejaVuSerif-Bold-52" transform="translate(1484.986328 0)"/>
      <use xlink:href="#DejaVuSerif-Bold-54" transform="translate(1566.341797 0)"/>
      <use xlink:href="#DejaVuSerif-Bold-43" transform="translate(1640.755859 0)"/>
     </g>
    </g>
   </g>
  </g>
 </g>
 <defs>
  <clipPath id="pc1eed5bcf2">
   <rect x="68.409375" y="32.955937" width="446.4" height="332.64"/>
  </clipPath>
 </defs>
</svg>
