<?xml version="1.0" encoding="utf-8" standalone="no"?>
<!DOCTYPE svg PUBLIC "-//W3C//DTD SVG 1.1//EN"
  "http://www.w3.org/Graphics/SVG/1.1/DTD/svg11.dtd">
<svg xmlns:xlink="http://www.w3.org/1999/xlink" width="1048.974375pt" height="434.985937pt" viewBox="0 0 1048.974375 434.985937" xmlns="http://www.w3.org/2000/svg" version="1.1">
 <metadata>
  <rdf:RDF xmlns:dc="http://purl.org/dc/elements/1.1/" xmlns:cc="http://creativecommons.org/ns#" xmlns:rdf="http://www.w3.org/1999/02/22-rdf-syntax-ns#">
   <cc:Work>
    <dc:type rdf:resource="http://purl.org/dc/dcmitype/StillImage"/>
    <dc:date>2026-04-25T08:26:38.352201</dc:date>
    <dc:format>image/svg+xml</dc:format>
    <dc:creator>
     <cc:Agent>
      <dc:title>Matplotlib v3.10.8, https://matplotlib.org/</dc:title>
     </cc:Agent>
    </dc:creator>
   </cc:Work>
  </rdf:RDF>
 </metadata>
 <defs>
  <style type="text/css">*{stroke-linejoin: round; stroke-linecap: butt}</style>
 </defs>
 <g id="figure_1">
  <g id="patch_1">
   <path d="M 0 434.985937 
L 1048.974375 434.985937 
L 1048.974375 0 
L 0 0 
z
" style="fill: #ffffff"/>
  </g>
  <g id="axes_1">
   <g id="patch_2">
    <path d="M 68.004375 372.180937 
L 515.049375 372.180937 
L 515.049375 30.360937 
L 68.004375 30.360937 
z
" style="fill: #ffffff"/>
   </g>
   <g id="matplotlib.axis_1">
    <g id="xtick_1">
     <g id="line2d_1">
      <path d="M 88.324602 372.180937 
L 88.324602 30.360937 
" clip-path="url(#p229c5a5219)" style="fill: none; stroke: #cccccc; stroke-opacity: 0.3; stroke-width: 1.5; stroke-linecap: round"/>
     </g>
     <g id="text_1">
      <!-- 0 -->
      <g style="fill: #262626" transform="translate(83.324602 398.199687) scale(0.2 -0.2)">
       <defs>
        <path id="NimbusRoman-Bold-30" d="M 1600 4403 
C 1184 4403 762 4122 499 3661 
C 294 3309 154 2707 154 2176 
C 154 851 755 -83 1606 -83 
C 2438 -83 3046 864 3046 2157 
C 3046 3437 2426 4403 1600 4403 
z
M 2035 1421 
C 2035 1043 1984 544 1926 371 
C 1856 186 1754 96 1606 96 
C 1286 96 1165 467 1165 1421 
L 1165 2886 
C 1165 3859 1280 4224 1594 4224 
C 1907 4224 2035 3827 2035 2886 
L 2035 1421 
z
" transform="scale(0.015625)"/>
       </defs>
       <use xlink:href="#NimbusRoman-Bold-30"/>
      </g>
     </g>
    </g>
    <g id="xtick_2">
     <g id="line2d_2">
      <path d="M 189.925739 372.180937 
L 189.925739 30.360937 
" clip-path="url(#p229c5a5219)" style="fill: none; stroke: #cccccc; stroke-opacity: 0.3; stroke-width: 1.5; stroke-linecap: round"/>
     </g>
     <g id="text_2">
      <!-- 1 -->
      <g style="fill: #262626" transform="translate(184.925739 398.199687) scale(0.2 -0.2)">
       <defs>
        <path id="NimbusRoman-Bold-31" d="M 2829 154 
C 2253 160 2138 262 2138 755 
L 2138 4403 
L 2029 4403 
L 416 3706 
L 416 3539 
C 474 3558 518 3578 544 3590 
C 717 3654 877 3699 960 3699 
C 1120 3699 1190 3558 1190 3258 
L 1190 794 
C 1197 275 1062 160 429 154 
L 429 0 
L 2829 0 
L 2829 154 
z
" transform="scale(0.015625)"/>
       </defs>
       <use xlink:href="#NimbusRoman-Bold-31"/>
      </g>
     </g>
    </g>
    <g id="xtick_3">
     <g id="line2d_3">
      <path d="M 291.526875 372.180937 
L 291.526875 30.360937 
" clip-path="url(#p229c5a5219)" style="fill: none; stroke: #cccccc; stroke-opacity: 0.3; stroke-width: 1.5; stroke-linecap: round"/>
     </g>
     <g id="text_3">
      <!-- 2 -->
      <g style="fill: #262626" transform="translate(286.526875 398.199687) scale(0.2 -0.2)">
       <defs>
        <path id="NimbusRoman-Bold-32" d="M 3059 1350 
L 2906 1350 
C 2720 896 2650 858 1990 851 
L 1024 851 
L 2061 1837 
C 2566 2317 2790 2746 2790 3232 
C 2790 3917 2304 4403 1606 4403 
C 1286 4403 979 4275 755 4045 
C 506 3795 378 3578 198 3098 
L 378 3098 
C 576 3501 813 3674 1158 3674 
C 1440 3674 1658 3552 1792 3322 
C 1869 3187 1920 3008 1920 2861 
C 1920 2579 1798 2227 1594 1914 
C 1267 1421 1043 1146 109 147 
L 109 0 
L 2771 0 
L 3059 1350 
z
" transform="scale(0.015625)"/>
       </defs>
       <use xlink:href="#NimbusRoman-Bold-32"/>
      </g>
     </g>
    </g>
    <g id="xtick_4">
     <g id="line2d_4">
      <path d="M 393.128011 372.180937 
L 393.128011 30.360937 
" clip-path="url(#p229c5a5219)" style="fill: none; stroke: #cccccc; stroke-opacity: 0.3; stroke-width: 1.5; stroke-linecap: round"/>
     </g>
     <g id="text_4">
      <!-- 3 -->
      <g style="fill: #262626" transform="translate(388.128011 398.199687) scale(0.2 -0.2)">
       <defs>
        <path id="NimbusRoman-Bold-33" d="M 371 3347 
C 614 3738 826 3885 1158 3885 
C 1562 3885 1811 3635 1811 3226 
C 1811 2803 1587 2579 979 2387 
L 979 2278 
C 1510 2093 1722 1984 1952 1766 
C 2150 1581 2266 1293 2266 986 
C 2266 525 2022 230 1638 230 
C 1485 230 1363 301 1152 506 
C 902 755 717 858 518 858 
C 275 858 102 704 102 486 
C 102 141 486 -90 1075 -90 
C 2150 -90 2995 640 2995 1574 
C 2995 1875 2899 2144 2714 2368 
C 2579 2528 2470 2598 2214 2714 
C 2624 2963 2746 3149 2746 3526 
C 2746 4077 2355 4403 1702 4403 
C 1069 4403 589 4083 237 3424 
L 371 3347 
z
" transform="scale(0.015625)"/>
       </defs>
       <use xlink:href="#NimbusRoman-Bold-33"/>
      </g>
     </g>
    </g>
    <g id="xtick_5">
     <g id="line2d_5">
      <path d="M 494.729148 372.180937 
L 494.729148 30.360937 
" clip-path="url(#p229c5a5219)" style="fill: none; stroke: #cccccc; stroke-opacity: 0.3; stroke-width: 1.5; stroke-linecap: round"/>
     </g>
     <g id="text_5">
      <!-- 4 -->
      <g style="fill: #262626" transform="translate(489.729148 398.199687) scale(0.2 -0.2)">
       <defs>
        <path id="NimbusRoman-Bold-34" d="M 2637 1632 
L 2637 4403 
L 2125 4403 
L 1747 3910 
C 941 2861 506 2253 122 1645 
L 122 922 
L 1709 922 
L 1709 0 
L 2637 0 
L 2637 922 
L 3040 922 
L 3040 1632 
L 2637 1632 
z
M 1722 1632 
L 384 1632 
L 1722 3533 
L 1722 1632 
z
" transform="scale(0.015625)"/>
       </defs>
       <use xlink:href="#NimbusRoman-Bold-34"/>
      </g>
     </g>
    </g>
    <g id="text_6">
     <!-- Inference Delay, d -->
     <g style="fill: #262626" transform="translate(182.267812 425.645937) scale(0.28 -0.28)">
      <defs>
       <path id="NimbusRoman-Bold-49" d="M 2368 160 
C 1894 186 1766 275 1760 614 
L 1760 3712 
C 1766 4051 1907 4154 2368 4166 
L 2368 4326 
L 128 4326 
L 128 4166 
C 576 4147 710 4045 723 3712 
L 723 614 
C 710 288 595 192 128 160 
L 128 0 
L 2368 0 
L 2368 160 
z
" transform="scale(0.015625)"/>
       <path id="NimbusRoman-Bold-6e" d="M 3450 154 
C 3213 166 3130 262 3136 518 
L 3136 2125 
C 3136 2675 2797 3027 2272 3027 
C 1888 3027 1594 2848 1357 2470 
L 1357 2950 
L 134 2950 
L 134 2797 
C 416 2752 467 2694 474 2419 
L 474 538 
C 467 262 416 205 134 154 
L 134 0 
L 1677 0 
L 1677 154 
C 1446 179 1363 282 1363 518 
L 1363 2227 
C 1363 2246 1408 2317 1472 2381 
C 1613 2522 1766 2598 1914 2598 
C 2138 2598 2246 2426 2246 2067 
L 2246 518 
C 2240 275 2157 173 1946 154 
L 1946 0 
L 3450 0 
L 3450 154 
z
" transform="scale(0.015625)"/>
       <path id="NimbusRoman-Bold-66" d="M 90 0 
L 1869 0 
L 1869 154 
C 1427 166 1350 237 1344 659 
L 1344 2669 
L 1901 2669 
L 1901 2950 
L 1344 2950 
L 1344 3731 
C 1344 4083 1434 4224 1664 4224 
C 1779 4224 1850 4179 1850 4102 
C 1850 4070 1830 4032 1792 3968 
C 1734 3872 1709 3808 1709 3738 
C 1709 3539 1875 3386 2093 3386 
C 2330 3386 2490 3546 2490 3782 
C 2490 4160 2118 4422 1574 4422 
C 1146 4422 813 4269 640 3987 
C 506 3763 454 3501 454 2950 
L 90 2950 
L 90 2669 
L 454 2669 
L 454 538 
C 448 256 378 179 90 154 
L 90 0 
z
" transform="scale(0.015625)"/>
       <path id="NimbusRoman-Bold-65" d="M 2573 800 
C 2310 486 2118 371 1843 371 
C 1594 371 1408 486 1274 710 
C 1158 915 1107 1126 1082 1568 
L 2694 1568 
C 2656 2106 2560 2406 2355 2650 
C 2150 2899 1850 3027 1491 3027 
C 698 3027 160 2394 160 1459 
C 160 525 685 -90 1478 -90 
C 1997 -90 2310 109 2726 710 
L 2573 800 
z
M 1050 1805 
C 1069 2573 1184 2829 1498 2829 
C 1798 2829 1894 2611 1907 1901 
L 1907 1805 
L 1050 1805 
z
" transform="scale(0.015625)"/>
       <path id="NimbusRoman-Bold-72" d="M 1888 154 
C 1498 173 1427 256 1421 659 
L 1421 1869 
C 1421 2202 1600 2477 1811 2477 
C 1862 2477 1920 2432 1990 2330 
C 2112 2157 2208 2099 2374 2099 
C 2611 2099 2778 2278 2778 2522 
C 2778 2816 2560 3027 2259 3027 
C 1939 3027 1696 2861 1395 2426 
L 1395 2950 
L 186 2950 
L 186 2797 
C 454 2765 525 2688 531 2419 
L 531 538 
C 525 269 461 198 186 154 
L 186 0 
L 1888 0 
L 1888 154 
z
" transform="scale(0.015625)"/>
       <path id="NimbusRoman-Bold-63" d="M 2637 698 
C 2400 429 2234 339 1971 339 
C 1414 339 1062 896 1062 1766 
C 1062 2426 1267 2829 1600 2829 
C 1702 2829 1798 2778 1837 2707 
C 1869 2650 1869 2650 1869 2381 
C 1875 2061 1984 1920 2227 1920 
C 2496 1920 2662 2074 2662 2323 
C 2662 2720 2234 3027 1670 3027 
C 800 3027 160 2349 160 1427 
C 160 538 730 -90 1530 -90 
C 2022 -90 2381 109 2752 582 
L 2637 698 
z
" transform="scale(0.015625)"/>
       <path id="NimbusRoman-Bold-20" transform="scale(0.015625)"/>
       <path id="NimbusRoman-Bold-44" d="M 90 0 
L 2112 0 
C 3494 0 4416 883 4416 2208 
C 4416 3526 3526 4326 2042 4326 
L 90 4326 
L 90 4166 
C 493 4134 614 4038 621 3738 
L 621 582 
C 621 301 448 160 90 160 
L 90 0 
z
M 1658 3885 
C 1658 4032 1786 4109 2035 4109 
C 2496 4109 2816 3898 3040 3456 
C 3213 3123 3302 2656 3302 2112 
C 3302 1510 3174 954 2970 666 
C 2752 371 2445 224 2029 224 
C 1741 224 1658 307 1658 595 
L 1658 3885 
z
" transform="scale(0.015625)"/>
       <path id="NimbusRoman-Bold-6c" d="M 1632 154 
C 1427 154 1325 282 1318 538 
L 1318 4326 
L 102 4326 
L 102 4173 
C 314 4166 422 4045 429 3802 
L 429 538 
C 422 294 307 160 102 154 
L 102 0 
L 1632 0 
L 1632 154 
z
" transform="scale(0.015625)"/>
       <path id="NimbusRoman-Bold-61" d="M 3027 410 
L 2963 346 
C 2944 326 2925 320 2893 320 
C 2803 320 2758 371 2758 480 
L 2758 2150 
C 2758 2694 2272 3027 1491 3027 
C 768 3027 282 2701 282 2221 
C 282 1952 435 1798 698 1798 
C 954 1798 1133 1952 1133 2170 
C 1133 2259 1101 2342 1018 2445 
C 960 2509 941 2547 941 2586 
C 941 2720 1114 2822 1344 2822 
C 1722 2822 1882 2650 1882 2259 
L 1882 1792 
C 1120 1562 806 1440 570 1274 
C 288 1082 160 864 160 589 
C 160 198 454 -90 870 -90 
C 1235 -90 1530 38 1882 358 
C 1952 32 2093 -90 2406 -90 
C 2682 -90 2880 13 3123 275 
L 3027 410 
z
M 1875 640 
C 1702 442 1574 365 1421 365 
C 1229 365 1094 538 1094 794 
C 1094 1165 1363 1434 1875 1568 
L 1875 640 
z
" transform="scale(0.015625)"/>
       <path id="NimbusRoman-Bold-79" d="M 3072 2950 
L 2106 2950 
L 2106 2797 
C 2381 2784 2458 2739 2458 2586 
C 2458 2515 2445 2458 2387 2298 
L 1952 1069 
L 1491 2253 
C 1363 2579 1363 2579 1363 2630 
C 1363 2726 1440 2771 1600 2790 
L 1702 2797 
L 1702 2950 
L 102 2950 
L 102 2797 
C 250 2778 288 2758 326 2701 
C 346 2694 640 2067 742 1805 
L 1510 -83 
L 1395 -422 
C 1286 -742 1126 -947 973 -947 
C 915 -947 864 -896 864 -838 
C 864 -832 864 -819 870 -800 
C 877 -768 883 -736 883 -710 
C 883 -525 736 -397 512 -397 
C 269 -397 102 -563 102 -806 
C 102 -1107 358 -1312 723 -1312 
C 941 -1312 1126 -1242 1261 -1101 
C 1395 -954 1523 -698 1747 -96 
L 2701 2445 
C 2810 2714 2874 2778 3072 2797 
L 3072 2950 
z
" transform="scale(0.015625)"/>
       <path id="NimbusRoman-Bold-2c" d="M 365 -1152 
C 1107 -723 1427 -301 1427 250 
C 1427 691 1165 992 781 992 
C 461 992 250 787 250 461 
C 250 166 435 -38 717 -38 
C 749 -38 787 -38 826 -32 
C 845 -26 858 -26 870 -26 
C 941 -26 992 -83 992 -160 
C 992 -410 774 -678 294 -1011 
L 365 -1152 
z
" transform="scale(0.015625)"/>
       <path id="NimbusRoman-Bold-64" d="M 3418 275 
C 3130 294 3040 378 3040 646 
L 3040 4326 
L 1664 4326 
L 1664 4173 
C 2080 4147 2144 4102 2150 3802 
L 2150 2630 
C 1875 2925 1683 3027 1389 3027 
C 685 3027 160 2342 160 1414 
C 160 538 646 -90 1318 -90 
C 1658 -90 1869 13 2170 333 
L 2170 -83 
C 2464 0 2624 32 3021 77 
L 3418 128 
L 3418 275 
z
M 2150 717 
C 2150 678 2086 570 2010 486 
C 1882 339 1747 269 1606 269 
C 1267 269 1107 646 1107 1466 
C 1107 2291 1280 2669 1651 2669 
C 1862 2669 2061 2515 2150 2272 
L 2150 717 
z
" transform="scale(0.015625)"/>
      </defs>
      <use xlink:href="#NimbusRoman-Bold-49"/>
      <use xlink:href="#NimbusRoman-Bold-6e" transform="translate(38.899994 0)"/>
      <use xlink:href="#NimbusRoman-Bold-66" transform="translate(94.499985 0)"/>
      <use xlink:href="#NimbusRoman-Bold-65" transform="translate(127.799973 0)"/>
      <use xlink:href="#NimbusRoman-Bold-72" transform="translate(172.199966 0)"/>
      <use xlink:href="#NimbusRoman-Bold-65" transform="translate(216.59996 0)"/>
      <use xlink:href="#NimbusRoman-Bold-6e" transform="translate(260.999954 0)"/>
      <use xlink:href="#NimbusRoman-Bold-63" transform="translate(316.599945 0)"/>
      <use xlink:href="#NimbusRoman-Bold-65" transform="translate(360.999939 0)"/>
      <use xlink:href="#NimbusRoman-Bold-20" transform="translate(405.399933 0)"/>
      <use xlink:href="#NimbusRoman-Bold-44" transform="translate(430.399918 0)"/>
      <use xlink:href="#NimbusRoman-Bold-65" transform="translate(502.599899 0)"/>
      <use xlink:href="#NimbusRoman-Bold-6c" transform="translate(546.999893 0)"/>
      <use xlink:href="#NimbusRoman-Bold-61" transform="translate(574.799881 0)"/>
      <use xlink:href="#NimbusRoman-Bold-79" transform="translate(624.799866 0)"/>
      <use xlink:href="#NimbusRoman-Bold-2c" transform="translate(674.79985 0)"/>
      <use xlink:href="#NimbusRoman-Bold-20" transform="translate(699.799835 0)"/>
      <use xlink:href="#NimbusRoman-Bold-64" transform="translate(724.79982 0)"/>
     </g>
    </g>
   </g>
   <g id="matplotlib.axis_2">
    <g id="ytick_1">
     <g id="line2d_6">
      <path d="M 68.004375 337.998938 
L 515.049375 337.998938 
" clip-path="url(#p229c5a5219)" style="fill: none; stroke: #cccccc; stroke-opacity: 0.3; stroke-width: 1.5; stroke-linecap: round"/>
     </g>
     <g id="text_7">
      <!-- 0.5 -->
      <g style="fill: #262626" transform="translate(30.504375 344.758312) scale(0.2 -0.2)">
       <defs>
        <path id="NimbusRoman-Bold-2e" d="M 800 998 
C 506 998 262 755 262 461 
C 262 154 493 -83 794 -83 
C 1101 -83 1344 147 1344 448 
C 1344 755 1101 998 800 998 
z
" transform="scale(0.015625)"/>
        <path id="NimbusRoman-Bold-35" d="M 954 3514 
L 2733 3514 
L 3008 4326 
L 947 4326 
L 326 2118 
C 934 2074 1190 2035 1478 1946 
C 2048 1766 2387 1408 2387 979 
C 2387 621 2106 339 1747 339 
C 1600 339 1427 416 1171 608 
C 896 813 704 896 538 896 
C 307 896 141 736 141 512 
C 141 173 512 -51 1082 -51 
C 2138 -51 2886 589 2886 1491 
C 2886 2157 2477 2669 1779 2867 
C 1536 2938 1338 2963 813 2995 
L 954 3514 
z
" transform="scale(0.015625)"/>
       </defs>
       <use xlink:href="#NimbusRoman-Bold-30"/>
       <use xlink:href="#NimbusRoman-Bold-2e" transform="translate(49.999985 0)"/>
       <use xlink:href="#NimbusRoman-Bold-35" transform="translate(74.999969 0)"/>
      </g>
     </g>
    </g>
    <g id="ytick_2">
     <g id="line2d_7">
      <path d="M 68.004375 269.634937 
L 515.049375 269.634937 
" clip-path="url(#p229c5a5219)" style="fill: none; stroke: #cccccc; stroke-opacity: 0.3; stroke-width: 1.5; stroke-linecap: round"/>
     </g>
     <g id="text_8">
      <!-- 0.6 -->
      <g style="fill: #262626" transform="translate(30.504375 276.394312) scale(0.2 -0.2)">
       <defs>
        <path id="NimbusRoman-Bold-36" d="M 3008 4403 
C 2157 4282 1754 4141 1274 3808 
C 557 3315 179 2598 179 1747 
C 179 640 762 -83 1664 -83 
C 2458 -83 3040 550 3040 1421 
C 3040 2195 2573 2694 1843 2694 
C 1638 2694 1498 2669 1306 2586 
C 1542 3526 2074 4045 3008 4237 
L 3008 4403 
z
M 1491 2406 
C 1920 2406 2067 2061 2067 1043 
C 2067 275 1990 90 1677 90 
C 1523 90 1414 154 1350 275 
C 1242 486 1178 954 1178 1549 
C 1178 1946 1216 2310 1261 2342 
C 1312 2381 1395 2406 1491 2406 
z
" transform="scale(0.015625)"/>
       </defs>
       <use xlink:href="#NimbusRoman-Bold-30"/>
       <use xlink:href="#NimbusRoman-Bold-2e" transform="translate(49.999985 0)"/>
       <use xlink:href="#NimbusRoman-Bold-36" transform="translate(74.999969 0)"/>
      </g>
     </g>
    </g>
    <g id="ytick_3">
     <g id="line2d_8">
      <path d="M 68.004375 201.270938 
L 515.049375 201.270938 
" clip-path="url(#p229c5a5219)" style="fill: none; stroke: #cccccc; stroke-opacity: 0.3; stroke-width: 1.5; stroke-linecap: round"/>
     </g>
     <g id="text_9">
      <!-- 0.7 -->
      <g style="fill: #262626" transform="translate(30.504375 208.030312) scale(0.2 -0.2)">
       <defs>
        <path id="NimbusRoman-Bold-37" d="M 3053 4326 
L 390 4326 
L 109 2906 
L 269 2906 
C 378 3302 563 3456 896 3450 
L 2221 3450 
L 941 0 
L 1549 0 
L 3053 4326 
z
" transform="scale(0.015625)"/>
       </defs>
       <use xlink:href="#NimbusRoman-Bold-30"/>
       <use xlink:href="#NimbusRoman-Bold-2e" transform="translate(49.999985 0)"/>
       <use xlink:href="#NimbusRoman-Bold-37" transform="translate(74.999969 0)"/>
      </g>
     </g>
    </g>
    <g id="ytick_4">
     <g id="line2d_9">
      <path d="M 68.004375 132.906938 
L 515.049375 132.906938 
" clip-path="url(#p229c5a5219)" style="fill: none; stroke: #cccccc; stroke-opacity: 0.3; stroke-width: 1.5; stroke-linecap: round"/>
     </g>
     <g id="text_10">
      <!-- 0.8 -->
      <g style="fill: #262626" transform="translate(30.504375 139.666312) scale(0.2 -0.2)">
       <defs>
        <path id="NimbusRoman-Bold-38" d="M 1139 2074 
C 774 1952 621 1869 461 1709 
C 275 1530 179 1286 179 1005 
C 179 352 723 -83 1536 -83 
C 2426 -83 3021 429 3021 1197 
C 3021 1754 2746 2150 2061 2586 
C 2675 2803 2931 3059 2931 3475 
C 2931 4045 2451 4403 1683 4403 
C 819 4403 250 3962 250 3283 
C 250 2797 506 2451 1139 2074 
z
M 1907 2701 
C 1370 2976 1075 3328 1075 3686 
C 1075 3987 1306 4218 1606 4218 
C 1965 4218 2170 3930 2170 3437 
C 2170 3130 2118 2982 1907 2701 
z
M 1280 1958 
C 1978 1491 2131 1286 2131 813 
C 2131 384 1920 122 1574 122 
C 1184 122 954 461 954 1030 
C 954 1382 1024 1574 1280 1958 
z
" transform="scale(0.015625)"/>
       </defs>
       <use xlink:href="#NimbusRoman-Bold-30"/>
       <use xlink:href="#NimbusRoman-Bold-2e" transform="translate(49.999985 0)"/>
       <use xlink:href="#NimbusRoman-Bold-38" transform="translate(74.999969 0)"/>
      </g>
     </g>
    </g>
    <g id="ytick_5">
     <g id="line2d_10">
      <path d="M 68.004375 64.542937 
L 515.049375 64.542937 
" clip-path="url(#p229c5a5219)" style="fill: none; stroke: #cccccc; stroke-opacity: 0.3; stroke-width: 1.5; stroke-linecap: round"/>
     </g>
     <g id="text_11">
      <!-- 0.9 -->
      <g style="fill: #262626" transform="translate(30.504375 71.302312) scale(0.2 -0.2)">
       <defs>
        <path id="NimbusRoman-Bold-39" d="M 198 -83 
C 1094 45 1530 205 2029 582 
C 2682 1069 3027 1760 3027 2573 
C 3027 3680 2438 4403 1542 4403 
C 742 4403 166 3770 166 2893 
C 166 2138 634 1626 1331 1626 
C 1581 1626 1734 1658 1914 1747 
C 1638 774 1120 269 198 83 
L 198 -83 
z
M 1523 4230 
C 1690 4230 1792 4166 1869 4013 
C 1965 3840 2029 3386 2029 2931 
C 2029 2758 2016 2554 1997 2266 
C 1984 2182 1984 2125 1978 2099 
C 1971 2016 1965 1984 1946 1971 
C 1894 1939 1779 1914 1683 1914 
C 1286 1914 1139 2285 1139 3296 
C 1139 4038 1216 4230 1523 4230 
z
" transform="scale(0.015625)"/>
       </defs>
       <use xlink:href="#NimbusRoman-Bold-30"/>
       <use xlink:href="#NimbusRoman-Bold-2e" transform="translate(49.999985 0)"/>
       <use xlink:href="#NimbusRoman-Bold-39" transform="translate(74.999969 0)"/>
      </g>
     </g>
    </g>
    <g id="text_12">
     <!-- Solve Rate -->
     <g style="fill: #262626" transform="translate(21.174375 260.122344) rotate(-90) scale(0.26 -0.26)">
      <defs>
       <path id="NimbusRoman-Bold-53" d="M 3098 3040 
L 3098 4429 
L 2906 4429 
C 2854 4256 2816 4211 2701 4211 
C 2643 4211 2566 4230 2432 4275 
C 2138 4384 1933 4422 1683 4422 
C 813 4422 282 3930 282 3117 
C 282 2560 614 2157 1376 1792 
L 1805 1587 
C 2368 1318 2522 1152 2522 813 
C 2522 371 2208 90 1715 90 
C 1338 90 1024 250 781 563 
C 608 800 518 1011 410 1459 
L 224 1459 
L 224 -122 
L 410 -122 
C 448 45 499 96 602 96 
C 653 96 723 77 864 32 
C 1178 -77 1414 -122 1696 -122 
C 2643 -122 3283 422 3283 1229 
C 3283 1709 2995 2189 2579 2394 
L 1638 2861 
C 1120 3117 979 3277 979 3584 
C 979 3981 1248 4224 1683 4224 
C 1971 4224 2240 4102 2470 3866 
C 2688 3642 2790 3456 2918 3040 
L 3098 3040 
z
" transform="scale(0.015625)"/>
       <path id="NimbusRoman-Bold-6f" d="M 1606 3027 
C 787 3027 160 2355 160 1485 
C 160 570 762 -90 1606 -90 
C 2438 -90 3046 570 3046 1466 
C 3046 2368 2432 3027 1606 3027 
z
M 1613 2829 
C 1984 2829 2106 2477 2106 1427 
C 2106 442 1978 109 1606 109 
C 1229 109 1101 435 1101 1376 
C 1101 2496 1216 2829 1613 2829 
z
" transform="scale(0.015625)"/>
       <path id="NimbusRoman-Bold-76" d="M 3104 2950 
L 2138 2950 
L 2138 2797 
C 2413 2784 2490 2739 2490 2586 
C 2490 2509 2470 2419 2419 2298 
L 1958 1133 
L 1453 2432 
C 1402 2560 1395 2586 1395 2630 
C 1395 2726 1459 2771 1619 2784 
C 1638 2784 1683 2790 1734 2797 
L 1734 2950 
L 134 2950 
L 134 2797 
C 282 2778 320 2758 358 2701 
C 378 2701 672 2061 774 1805 
L 1542 -90 
L 1709 -90 
L 2733 2445 
C 2854 2726 2906 2778 3104 2797 
L 3104 2950 
z
" transform="scale(0.015625)"/>
       <path id="NimbusRoman-Bold-52" d="M 4576 160 
C 4461 160 4378 192 4314 282 
L 3027 2106 
C 3405 2227 3565 2304 3744 2470 
C 3930 2643 4032 2899 4032 3187 
C 4032 3930 3398 4326 2227 4326 
L 166 4326 
L 166 4166 
C 627 4141 717 4051 730 3578 
L 730 749 
C 717 275 659 211 166 160 
L 166 0 
L 2330 0 
L 2330 160 
C 1843 218 1779 288 1766 749 
L 1766 2003 
L 1939 2003 
L 3264 0 
L 4576 0 
L 4576 160 
z
M 1766 3840 
C 1766 3878 1792 3974 1811 4013 
C 1850 4077 1952 4109 2112 4109 
C 2701 4109 2938 3834 2938 3162 
C 2938 2752 2842 2502 2637 2368 
C 2470 2259 2253 2214 1766 2208 
L 1766 3840 
z
" transform="scale(0.015625)"/>
       <path id="NimbusRoman-Bold-74" d="M 1952 2950 
L 1350 2950 
L 1350 4032 
L 1190 4032 
C 800 3482 544 3194 128 2842 
L 128 2669 
L 461 2669 
L 461 595 
C 461 179 736 -77 1178 -77 
C 1606 -77 1862 115 2125 640 
L 1965 710 
C 1837 467 1734 378 1600 378 
C 1421 378 1350 486 1350 742 
L 1350 2669 
L 1952 2669 
L 1952 2950 
z
" transform="scale(0.015625)"/>
      </defs>
      <use xlink:href="#NimbusRoman-Bold-53"/>
      <use xlink:href="#NimbusRoman-Bold-6f" transform="translate(55.599991 0)"/>
      <use xlink:href="#NimbusRoman-Bold-6c" transform="translate(105.599976 0)"/>
      <use xlink:href="#NimbusRoman-Bold-76" transform="translate(133.399963 0)"/>
      <use xlink:href="#NimbusRoman-Bold-65" transform="translate(183.399948 0)"/>
      <use xlink:href="#NimbusRoman-Bold-20" transform="translate(227.799942 0)"/>
      <use xlink:href="#NimbusRoman-Bold-52" transform="translate(252.799927 0)"/>
      <use xlink:href="#NimbusRoman-Bold-61" transform="translate(324.999908 0)"/>
      <use xlink:href="#NimbusRoman-Bold-74" transform="translate(374.999893 0)"/>
      <use xlink:href="#NimbusRoman-Bold-65" transform="translate(408.299881 0)"/>
     </g>
    </g>
   </g>
   <g id="line2d_11">
    <path d="M 88.324602 50.061209 
L 189.925739 69.366469 
L 291.526875 102.830784 
L 393.128011 170.121033 
L 494.729148 261.139507 
" clip-path="url(#p229c5a5219)" style="fill: none; stroke: #cc9900; stroke-width: 3; stroke-linecap: round"/>
    <defs>
     <path id="m6a19338e78" d="M 0 4.5 
C 1.193414 4.5 2.338109 4.025852 3.181981 3.181981 
C 4.025852 2.338109 4.5 1.193414 4.5 0 
C 4.5 -1.193414 4.025852 -2.338109 3.181981 -3.181981 
C 2.338109 -4.025852 1.193414 -4.5 0 -4.5 
C -1.193414 -4.5 -2.338109 -4.025852 -3.181981 -3.181981 
C -4.025852 -2.338109 -4.5 -1.193414 -4.5 0 
C -4.5 1.193414 -4.025852 2.338109 -3.181981 3.181981 
C -2.338109 4.025852 -1.193414 4.5 0 4.5 
z
" style="stroke: #ffffff; stroke-width: 1.5"/>
    </defs>
    <g clip-path="url(#p229c5a5219)">
     <use xlink:href="#m6a19338e78" x="88.324602" y="50.061209" style="fill: #cc9900; stroke: #ffffff; stroke-width: 1.5"/>
     <use xlink:href="#m6a19338e78" x="189.925739" y="69.366469" style="fill: #cc9900; stroke: #ffffff; stroke-width: 1.5"/>
     <use xlink:href="#m6a19338e78" x="291.526875" y="102.830784" style="fill: #cc9900; stroke: #ffffff; stroke-width: 1.5"/>
     <use xlink:href="#m6a19338e78" x="393.128011" y="170.121033" style="fill: #cc9900; stroke: #ffffff; stroke-width: 1.5"/>
     <use xlink:href="#m6a19338e78" x="494.729148" y="261.139507" style="fill: #cc9900; stroke: #ffffff; stroke-width: 1.5"/>
    </g>
   </g>
   <g id="line2d_12">
    <path d="M 88.324602 53.037668 
L 189.925739 80.465607 
L 291.526875 123.944171 
L 393.128011 214.434119 
L 494.729148 300.445468 
" clip-path="url(#p229c5a5219)" style="fill: none; stroke-dasharray: 10,4; stroke-dashoffset: 0; stroke: #b59126; stroke-opacity: 0.7; stroke-width: 2"/>
    <defs>
     <path id="m113db768d6" d="M 0 3.5 
C 0.928211 3.5 1.81853 3.131218 2.474874 2.474874 
C 3.131218 1.81853 3.5 0.928211 3.5 0 
C 3.5 -0.928211 3.131218 -1.81853 2.474874 -2.474874 
C 1.81853 -3.131218 0.928211 -3.5 0 -3.5 
C -0.928211 -3.5 -1.81853 -3.131218 -2.474874 -2.474874 
C -3.131218 -1.81853 -3.5 -0.928211 -3.5 0 
C -3.5 0.928211 -3.131218 1.81853 -2.474874 2.474874 
C -1.81853 3.131218 -0.928211 3.5 0 3.5 
z
" style="stroke: #ffffff; stroke-opacity: 0.7; stroke-width: 1.5"/>
    </defs>
    <g clip-path="url(#p229c5a5219)">
     <use xlink:href="#m113db768d6" x="88.324602" y="53.037668" style="fill: #b59126; fill-opacity: 0.7; stroke: #ffffff; stroke-opacity: 0.7; stroke-width: 1.5"/>
     <use xlink:href="#m113db768d6" x="189.925739" y="80.465607" style="fill: #b59126; fill-opacity: 0.7; stroke: #ffffff; stroke-opacity: 0.7; stroke-width: 1.5"/>
     <use xlink:href="#m113db768d6" x="291.526875" y="123.944171" style="fill: #b59126; fill-opacity: 0.7; stroke: #ffffff; stroke-opacity: 0.7; stroke-width: 1.5"/>
     <use xlink:href="#m113db768d6" x="393.128011" y="214.434119" style="fill: #b59126; fill-opacity: 0.7; stroke: #ffffff; stroke-opacity: 0.7; stroke-width: 1.5"/>
     <use xlink:href="#m113db768d6" x="494.729148" y="300.445468" style="fill: #b59126; fill-opacity: 0.7; stroke: #ffffff; stroke-opacity: 0.7; stroke-width: 1.5"/>
    </g>
   </g>
   <g id="line2d_13">
    <path d="M 88.324602 54.984883 
L 189.925739 158.020468 
L 291.526875 195.379216 
L 393.128011 280.416956 
L 494.729148 344.536022 
" clip-path="url(#p229c5a5219)" style="fill: none; stroke-dasharray: 2,3; stroke-dashoffset: 0; stroke: #9e8a4c; stroke-opacity: 0.4; stroke-width: 2"/>
    <defs>
     <path id="m45fea72259" d="M 0 3.5 
C 0.928211 3.5 1.81853 3.131218 2.474874 2.474874 
C 3.131218 1.81853 3.5 0.928211 3.5 0 
C 3.5 -0.928211 3.131218 -1.81853 2.474874 -2.474874 
C 1.81853 -3.131218 0.928211 -3.5 0 -3.5 
C -0.928211 -3.5 -1.81853 -3.131218 -2.474874 -2.474874 
C -3.131218 -1.81853 -3.5 -0.928211 -3.5 0 
C -3.5 0.928211 -3.131218 1.81853 -2.474874 2.474874 
C -1.81853 3.131218 -0.928211 3.5 0 3.5 
z
" style="stroke: #ffffff; stroke-opacity: 0.4; stroke-width: 1.5"/>
    </defs>
    <g clip-path="url(#p229c5a5219)">
     <use xlink:href="#m45fea72259" x="88.324602" y="54.984883" style="fill: #9e8a4c; fill-opacity: 0.4; stroke: #ffffff; stroke-opacity: 0.4; stroke-width: 1.5"/>
     <use xlink:href="#m45fea72259" x="189.925739" y="158.020468" style="fill: #9e8a4c; fill-opacity: 0.4; stroke: #ffffff; stroke-opacity: 0.4; stroke-width: 1.5"/>
     <use xlink:href="#m45fea72259" x="291.526875" y="195.379216" style="fill: #9e8a4c; fill-opacity: 0.4; stroke: #ffffff; stroke-opacity: 0.4; stroke-width: 1.5"/>
     <use xlink:href="#m45fea72259" x="393.128011" y="280.416956" style="fill: #9e8a4c; fill-opacity: 0.4; stroke: #ffffff; stroke-opacity: 0.4; stroke-width: 1.5"/>
     <use xlink:href="#m45fea72259" x="494.729148" y="344.536022" style="fill: #9e8a4c; fill-opacity: 0.4; stroke: #ffffff; stroke-opacity: 0.4; stroke-width: 1.5"/>
    </g>
   </g>
   <g id="line2d_14">
    <path d="M 88.324602 61.132526 
L 189.925739 59.074039 
L 291.526875 81.522669 
L 393.128011 110.786552 
L 494.729148 190.121731 
" clip-path="url(#p229c5a5219)" style="fill: none; stroke: #1a8c1a; stroke-width: 3; stroke-linecap: round"/>
    <defs>
     <path id="m09f0cf9b5a" d="M 0 4.5 
C 1.193414 4.5 2.338109 4.025852 3.181981 3.181981 
C 4.025852 2.338109 4.5 1.193414 4.5 0 
C 4.5 -1.193414 4.025852 -2.338109 3.181981 -3.181981 
C 2.338109 -4.025852 1.193414 -4.5 0 -4.5 
C -1.193414 -4.5 -2.338109 -4.025852 -3.181981 -3.181981 
C -4.025852 -2.338109 -4.5 -1.193414 -4.5 0 
C -4.5 1.193414 -4.025852 2.338109 -3.181981 3.181981 
C -2.338109 4.025852 -1.193414 4.5 0 4.5 
z
" style="stroke: #ffffff; stroke-width: 1.5"/>
    </defs>
    <g clip-path="url(#p229c5a5219)">
     <use xlink:href="#m09f0cf9b5a" x="88.324602" y="61.132526" style="fill: #1a8c1a; stroke: #ffffff; stroke-width: 1.5"/>
     <use xlink:href="#m09f0cf9b5a" x="189.925739" y="59.074039" style="fill: #1a8c1a; stroke: #ffffff; stroke-width: 1.5"/>
     <use xlink:href="#m09f0cf9b5a" x="291.526875" y="81.522669" style="fill: #1a8c1a; stroke: #ffffff; stroke-width: 1.5"/>
     <use xlink:href="#m09f0cf9b5a" x="393.128011" y="110.786552" style="fill: #1a8c1a; stroke: #ffffff; stroke-width: 1.5"/>
     <use xlink:href="#m09f0cf9b5a" x="494.729148" y="190.121731" style="fill: #1a8c1a; stroke: #ffffff; stroke-width: 1.5"/>
    </g>
   </g>
   <g id="line2d_15">
    <path d="M 88.324602 52.091874 
L 189.925739 95.765169 
L 291.526875 134.987681 
L 393.128011 230.707294 
L 494.729148 342.727894 
" clip-path="url(#p229c5a5219)" style="fill: none; stroke-dasharray: 10,4; stroke-dashoffset: 0; stroke: #388838; stroke-opacity: 0.7; stroke-width: 2"/>
    <defs>
     <path id="m70920e898a" d="M 0 3.5 
C 0.928211 3.5 1.81853 3.131218 2.474874 2.474874 
C 3.131218 1.81853 3.5 0.928211 3.5 0 
C 3.5 -0.928211 3.131218 -1.81853 2.474874 -2.474874 
C 1.81853 -3.131218 0.928211 -3.5 0 -3.5 
C -0.928211 -3.5 -1.81853 -3.131218 -2.474874 -2.474874 
C -3.131218 -1.81853 -3.5 -0.928211 -3.5 0 
C -3.5 0.928211 -3.131218 1.81853 -2.474874 2.474874 
C -1.81853 3.131218 -0.928211 3.5 0 3.5 
z
" style="stroke: #ffffff; stroke-opacity: 0.7; stroke-width: 1.5"/>
    </defs>
    <g clip-path="url(#p229c5a5219)">
     <use xlink:href="#m70920e898a" x="88.324602" y="52.091874" style="fill: #388838; fill-opacity: 0.7; stroke: #ffffff; stroke-opacity: 0.7; stroke-width: 1.5"/>
     <use xlink:href="#m70920e898a" x="189.925739" y="95.765169" style="fill: #388838; fill-opacity: 0.7; stroke: #ffffff; stroke-opacity: 0.7; stroke-width: 1.5"/>
     <use xlink:href="#m70920e898a" x="291.526875" y="134.987681" style="fill: #388838; fill-opacity: 0.7; stroke: #ffffff; stroke-opacity: 0.7; stroke-width: 1.5"/>
     <use xlink:href="#m70920e898a" x="393.128011" y="230.707294" style="fill: #388838; fill-opacity: 0.7; stroke: #ffffff; stroke-opacity: 0.7; stroke-width: 1.5"/>
     <use xlink:href="#m70920e898a" x="494.729148" y="342.727894" style="fill: #388838; fill-opacity: 0.7; stroke: #ffffff; stroke-opacity: 0.7; stroke-width: 1.5"/>
    </g>
   </g>
   <g id="line2d_16">
    <path d="M 88.324602 60.576177 
L 189.925739 148.284388 
L 291.526875 171.233727 
L 393.128011 263.170178 
L 494.729148 374.189351 
" clip-path="url(#p229c5a5219)" style="fill: none; stroke-dasharray: 2,3; stroke-dashoffset: 0; stroke: #578457; stroke-opacity: 0.4; stroke-width: 2"/>
    <defs>
     <path id="md6b4c1d5a9" d="M 0 3.5 
C 0.928211 3.5 1.81853 3.131218 2.474874 2.474874 
C 3.131218 1.81853 3.5 0.928211 3.5 0 
C 3.5 -0.928211 3.131218 -1.81853 2.474874 -2.474874 
C 1.81853 -3.131218 0.928211 -3.5 0 -3.5 
C -0.928211 -3.5 -1.81853 -3.131218 -2.474874 -2.474874 
C -3.131218 -1.81853 -3.5 -0.928211 -3.5 0 
C -3.5 0.928211 -3.131218 1.81853 -2.474874 2.474874 
C -1.81853 3.131218 -0.928211 3.5 0 3.5 
z
" style="stroke: #ffffff; stroke-opacity: 0.4; stroke-width: 1.5"/>
    </defs>
    <g clip-path="url(#p229c5a5219)">
     <use xlink:href="#md6b4c1d5a9" x="88.324602" y="60.576177" style="fill: #578457; fill-opacity: 0.4; stroke: #ffffff; stroke-opacity: 0.4; stroke-width: 1.5"/>
     <use xlink:href="#md6b4c1d5a9" x="189.925739" y="148.284388" style="fill: #578457; fill-opacity: 0.4; stroke: #ffffff; stroke-opacity: 0.4; stroke-width: 1.5"/>
     <use xlink:href="#md6b4c1d5a9" x="291.526875" y="171.233727" style="fill: #578457; fill-opacity: 0.4; stroke: #ffffff; stroke-opacity: 0.4; stroke-width: 1.5"/>
     <use xlink:href="#md6b4c1d5a9" x="393.128011" y="263.170178" style="fill: #578457; fill-opacity: 0.4; stroke: #ffffff; stroke-opacity: 0.4; stroke-width: 1.5"/>
     <use xlink:href="#md6b4c1d5a9" x="494.729148" y="374.189351" style="fill: #578457; fill-opacity: 0.4; stroke: #ffffff; stroke-opacity: 0.4; stroke-width: 1.5"/>
    </g>
   </g>
   <g id="patch_3">
    <path d="M 68.004375 372.180938 
L 68.004375 30.360937 
" style="fill: none; stroke: #cccccc; stroke-width: 1.875; stroke-linejoin: miter; stroke-linecap: square"/>
   </g>
   <g id="patch_4">
    <path d="M 515.049375 372.180938 
L 515.049375 30.360937 
" style="fill: none; stroke: #cccccc; stroke-width: 1.875; stroke-linejoin: miter; stroke-linecap: square"/>
   </g>
   <g id="patch_5">
    <path d="M 68.004375 372.180937 
L 515.049375 372.180937 
" style="fill: none; stroke: #cccccc; stroke-width: 1.875; stroke-linejoin: miter; stroke-linecap: square"/>
   </g>
   <g id="patch_6">
    <path d="M 68.004375 30.360937 
L 515.049375 30.360937 
" style="fill: none; stroke: #cccccc; stroke-width: 1.875; stroke-linejoin: miter; stroke-linecap: square"/>
   </g>
   <g id="text_13">
    <!-- Average Solve Rate in Kinetix -->
    <g style="fill: #262626" transform="translate(99.046406 24.360937) scale(0.3 -0.3)">
     <defs>
      <path id="NimbusRoman-Bold-41" d="M 4410 160 
C 4128 160 4058 250 3712 1050 
L 2285 4416 
L 2106 4416 
L 685 909 
C 442 307 365 218 58 160 
L 58 0 
L 1357 0 
L 1357 160 
C 973 186 832 256 832 422 
C 832 506 877 659 1018 1005 
L 1114 1261 
L 2554 1261 
C 2771 755 2848 531 2848 390 
C 2848 250 2765 192 2541 179 
C 2509 173 2426 166 2336 160 
L 2336 0 
L 4410 0 
L 4410 160 
z
M 1210 1510 
L 1811 3066 
L 2458 1510 
L 1210 1510 
z
" transform="scale(0.015625)"/>
      <path id="NimbusRoman-Bold-67" d="M 3085 2547 
L 3085 2886 
L 2253 2886 
C 1971 2989 1792 3027 1536 3027 
C 774 3027 237 2605 237 1997 
C 237 1773 314 1568 467 1389 
C 608 1229 730 1146 1030 1024 
C 525 851 269 602 269 275 
C 269 13 384 -102 794 -250 
C 390 -301 179 -467 179 -730 
C 179 -1101 659 -1318 1466 -1318 
C 2534 -1318 3091 -986 3091 -352 
C 3091 141 2720 416 2042 429 
L 1626 435 
C 1082 442 986 474 986 653 
C 986 851 1165 986 1421 986 
C 2010 986 2035 986 2246 1082 
C 2630 1248 2822 1523 2822 1920 
C 2822 2176 2746 2368 2566 2547 
L 3085 2547 
z
M 2074 -333 
C 2419 -333 2586 -435 2586 -653 
C 2586 -947 2234 -1114 1600 -1114 
C 1037 -1114 742 -966 742 -685 
C 742 -550 787 -480 966 -333 
L 2074 -333 
z
M 1536 2829 
C 1837 2829 1958 2586 1958 1990 
C 1958 1395 1843 1165 1536 1165 
C 1229 1165 1114 1389 1114 1990 
C 1114 2592 1229 2829 1536 2829 
z
" transform="scale(0.015625)"/>
      <path id="NimbusRoman-Bold-69" d="M 1632 154 
C 1414 179 1331 275 1331 518 
L 1331 2950 
L 102 2950 
L 102 2797 
C 384 2746 435 2688 442 2419 
L 442 538 
C 435 269 390 218 102 154 
L 102 0 
L 1632 0 
L 1632 154 
z
M 883 4422 
C 608 4422 384 4198 384 3930 
C 384 3642 595 3430 877 3430 
C 1158 3430 1376 3642 1376 3923 
C 1376 4205 1158 4422 883 4422 
z
" transform="scale(0.015625)"/>
      <path id="NimbusRoman-Bold-4b" d="M 4922 160 
C 4762 166 4691 198 4608 294 
L 2656 2714 
C 3859 3955 4090 4115 4710 4166 
L 4710 4326 
L 2861 4326 
L 2861 4166 
C 3366 4128 3405 4109 3405 3955 
C 3405 3853 3373 3802 3174 3603 
L 1786 2208 
L 1786 3578 
C 1798 4045 1894 4141 2355 4166 
L 2355 4326 
L 192 4326 
L 192 4166 
C 621 4147 742 4051 749 3712 
L 749 614 
C 742 282 640 198 192 160 
L 192 0 
L 2349 0 
L 2349 160 
C 1901 211 1792 294 1786 614 
L 1786 1869 
L 1958 2029 
L 3123 576 
C 3245 422 3277 365 3277 294 
C 3277 211 3187 179 2976 166 
C 2944 166 2861 166 2771 160 
L 2771 0 
L 4922 0 
L 4922 160 
z
" transform="scale(0.015625)"/>
      <path id="NimbusRoman-Bold-78" d="M 3098 154 
C 2995 186 2950 211 2906 282 
L 1958 1741 
L 2605 2547 
C 2726 2694 2854 2765 3053 2797 
L 3053 2950 
L 1978 2950 
L 1978 2797 
C 2285 2765 2304 2758 2304 2643 
C 2304 2547 2240 2438 2061 2234 
C 2022 2195 1926 2074 1830 1939 
C 1696 2118 1613 2234 1587 2272 
C 1453 2477 1376 2618 1376 2669 
C 1376 2752 1459 2790 1677 2797 
L 1677 2950 
L 77 2950 
L 77 2797 
C 243 2765 282 2739 410 2547 
L 1229 1286 
C 1043 1050 870 838 813 749 
C 634 499 454 301 333 224 
C 275 186 205 166 90 154 
L 90 0 
L 1171 0 
L 1171 154 
C 934 166 851 211 851 307 
C 851 410 1018 672 1261 966 
C 1280 986 1318 1037 1363 1094 
C 1478 915 1568 781 1632 691 
L 1728 550 
C 1792 454 1843 333 1843 282 
C 1843 205 1760 166 1555 154 
L 1555 0 
L 3098 0 
L 3098 154 
z
" transform="scale(0.015625)"/>
     </defs>
     <use xlink:href="#NimbusRoman-Bold-41"/>
     <use xlink:href="#NimbusRoman-Bold-76" transform="translate(72.199982 0)"/>
     <use xlink:href="#NimbusRoman-Bold-65" transform="translate(122.199966 0)"/>
     <use xlink:href="#NimbusRoman-Bold-72" transform="translate(166.59996 0)"/>
     <use xlink:href="#NimbusRoman-Bold-61" transform="translate(210.999954 0)"/>
     <use xlink:href="#NimbusRoman-Bold-67" transform="translate(260.999939 0)"/>
     <use xlink:href="#NimbusRoman-Bold-65" transform="translate(310.999924 0)"/>
     <use xlink:href="#NimbusRoman-Bold-20" transform="translate(355.399918 0)"/>
     <use xlink:href="#NimbusRoman-Bold-53" transform="translate(380.399902 0)"/>
     <use xlink:href="#NimbusRoman-Bold-6f" transform="translate(435.999893 0)"/>
     <use xlink:href="#NimbusRoman-Bold-6c" transform="translate(485.999878 0)"/>
     <use xlink:href="#NimbusRoman-Bold-76" transform="translate(513.799866 0)"/>
     <use xlink:href="#NimbusRoman-Bold-65" transform="translate(563.79985 0)"/>
     <use xlink:href="#NimbusRoman-Bold-20" transform="translate(608.199844 0)"/>
     <use xlink:href="#NimbusRoman-Bold-52" transform="translate(633.199829 0)"/>
     <use xlink:href="#NimbusRoman-Bold-61" transform="translate(705.399811 0)"/>
     <use xlink:href="#NimbusRoman-Bold-74" transform="translate(755.399796 0)"/>
     <use xlink:href="#NimbusRoman-Bold-65" transform="translate(788.699783 0)"/>
     <use xlink:href="#NimbusRoman-Bold-20" transform="translate(833.099777 0)"/>
     <use xlink:href="#NimbusRoman-Bold-69" transform="translate(858.099762 0)"/>
     <use xlink:href="#NimbusRoman-Bold-6e" transform="translate(885.89975 0)"/>
     <use xlink:href="#NimbusRoman-Bold-20" transform="translate(941.499741 0)"/>
     <use xlink:href="#NimbusRoman-Bold-4b" transform="translate(966.499725 0)"/>
     <use xlink:href="#NimbusRoman-Bold-69" transform="translate(1044.299713 0)"/>
     <use xlink:href="#NimbusRoman-Bold-6e" transform="translate(1072.099701 0)"/>
     <use xlink:href="#NimbusRoman-Bold-65" transform="translate(1127.699692 0)"/>
     <use xlink:href="#NimbusRoman-Bold-74" transform="translate(1172.099686 0)"/>
     <use xlink:href="#NimbusRoman-Bold-69" transform="translate(1205.399673 0)"/>
     <use xlink:href="#NimbusRoman-Bold-78" transform="translate(1233.199661 0)"/>
    </g>
   </g>
   <g id="legend_1">
    <g id="line2d_17">
     <path d="M 74.322575 194.893738 
L 100.722575 194.893738 
L 127.122575 194.893738 
" style="fill: none; stroke: #1a8c1a; stroke-width: 3; stroke-linecap: round"/>
     <g>
      <use xlink:href="#m09f0cf9b5a" x="100.722575" y="194.893738" style="fill: #1a8c1a; stroke: #ffffff; stroke-width: 1.5"/>
     </g>
    </g>
    <g id="text_14">
     <!-- DiscreteRTC -->
     <g style="fill: #262626" transform="translate(140.322575 202.593738) scale(0.22 -0.22)">
      <defs>
       <path id="NimbusRoman-Bold-73" d="M 2176 2086 
L 2176 3014 
L 2035 3014 
C 1997 2918 1958 2886 1875 2886 
C 1837 2886 1779 2899 1677 2931 
C 1472 3002 1325 3027 1178 3027 
C 595 3027 173 2630 173 2093 
C 173 1670 435 1376 1082 1101 
C 1523 909 1696 749 1696 544 
C 1696 294 1504 128 1216 128 
C 768 128 474 416 339 973 
L 160 973 
L 160 -83 
L 320 -83 
C 390 58 429 96 486 96 
C 518 96 570 83 634 58 
C 819 -19 1139 -90 1325 -90 
C 1907 -90 2310 307 2310 883 
C 2310 1338 2067 1613 1427 1882 
C 992 2067 813 2227 813 2445 
C 813 2656 992 2816 1235 2816 
C 1408 2816 1574 2746 1715 2611 
C 1850 2483 1920 2368 2016 2086 
L 2176 2086 
z
" transform="scale(0.015625)"/>
       <path id="NimbusRoman-Bold-54" d="M 3283 160 
C 2739 186 2669 256 2656 749 
L 2656 4122 
C 3443 4096 3776 3802 3885 3040 
L 4070 3040 
L 4058 4326 
L 218 4326 
L 198 3040 
L 384 3040 
C 493 3802 826 4096 1619 4122 
L 1619 749 
C 1606 262 1536 198 998 160 
L 998 0 
L 3283 0 
L 3283 160 
z
" transform="scale(0.015625)"/>
       <path id="NimbusRoman-Bold-43" d="M 4205 973 
C 3827 576 3622 422 3309 301 
C 3123 224 2912 186 2733 186 
C 2310 186 1907 410 1722 742 
C 1536 1082 1446 1536 1446 2182 
C 1446 3507 1856 4211 2624 4211 
C 2925 4211 3194 4096 3475 3853 
C 3750 3610 3904 3386 4122 2906 
L 4282 2906 
L 4282 4403 
L 4109 4403 
C 4013 4173 3955 4109 3821 4109 
C 3763 4109 3674 4134 3533 4198 
C 3168 4352 2854 4422 2547 4422 
C 1267 4422 314 3443 314 2131 
C 314 806 1248 -122 2579 -122 
C 3315 -122 3750 102 4397 813 
L 4205 973 
z
" transform="scale(0.015625)"/>
      </defs>
      <use xlink:href="#NimbusRoman-Bold-44"/>
      <use xlink:href="#NimbusRoman-Bold-69" transform="translate(72.199982 0)"/>
      <use xlink:href="#NimbusRoman-Bold-73" transform="translate(99.999969 0)"/>
      <use xlink:href="#NimbusRoman-Bold-63" transform="translate(138.899963 0)"/>
      <use xlink:href="#NimbusRoman-Bold-72" transform="translate(183.299957 0)"/>
      <use xlink:href="#NimbusRoman-Bold-65" transform="translate(227.699951 0)"/>
      <use xlink:href="#NimbusRoman-Bold-74" transform="translate(272.099945 0)"/>
      <use xlink:href="#NimbusRoman-Bold-65" transform="translate(305.399933 0)"/>
      <use xlink:href="#NimbusRoman-Bold-52" transform="translate(349.799927 0)"/>
      <use xlink:href="#NimbusRoman-Bold-54" transform="translate(421.999908 0)"/>
      <use xlink:href="#NimbusRoman-Bold-43" transform="translate(488.699905 0)"/>
     </g>
    </g>
    <g id="line2d_18">
     <path d="M 74.322575 225.803738 
L 100.722575 225.803738 
L 127.122575 225.803738 
" style="fill: none; stroke-dasharray: 10,4; stroke-dashoffset: 0; stroke: #388838; stroke-opacity: 0.7; stroke-width: 2"/>
     <g>
      <use xlink:href="#m70920e898a" x="100.722575" y="225.803738" style="fill: #388838; fill-opacity: 0.7; stroke: #ffffff; stroke-opacity: 0.7; stroke-width: 1.5"/>
     </g>
    </g>
    <g id="text_15">
     <!-- DiscreteBID -->
     <g style="fill: #262626" transform="translate(140.322575 233.503737) scale(0.22 -0.22)">
      <defs>
       <path id="NimbusRoman-Bold-42" d="M 102 0 
L 2163 0 
C 3245 0 3962 480 3962 1203 
C 3962 1498 3840 1754 3616 1952 
C 3392 2144 3174 2240 2726 2336 
C 3469 2554 3744 2816 3744 3302 
C 3744 3962 3155 4326 2080 4326 
L 102 4326 
L 102 4166 
C 531 4147 653 4051 666 3712 
L 666 614 
C 653 282 557 198 102 160 
L 102 0 
z
M 1690 2195 
L 1882 2195 
C 2541 2195 2861 1850 2861 1146 
C 2861 525 2598 205 2080 205 
C 1798 205 1690 314 1690 595 
L 1690 2195 
z
M 1690 3821 
C 1690 4051 1779 4134 2035 4134 
C 2483 4134 2688 3859 2688 3258 
C 2688 2586 2477 2406 1690 2387 
L 1690 3821 
z
" transform="scale(0.015625)"/>
      </defs>
      <use xlink:href="#NimbusRoman-Bold-44"/>
      <use xlink:href="#NimbusRoman-Bold-69" transform="translate(72.199982 0)"/>
      <use xlink:href="#NimbusRoman-Bold-73" transform="translate(99.999969 0)"/>
      <use xlink:href="#NimbusRoman-Bold-63" transform="translate(138.899963 0)"/>
      <use xlink:href="#NimbusRoman-Bold-72" transform="translate(183.299957 0)"/>
      <use xlink:href="#NimbusRoman-Bold-65" transform="translate(227.699951 0)"/>
      <use xlink:href="#NimbusRoman-Bold-74" transform="translate(272.099945 0)"/>
      <use xlink:href="#NimbusRoman-Bold-65" transform="translate(305.399933 0)"/>
      <use xlink:href="#NimbusRoman-Bold-42" transform="translate(349.799927 0)"/>
      <use xlink:href="#NimbusRoman-Bold-49" transform="translate(416.499924 0)"/>
      <use xlink:href="#NimbusRoman-Bold-44" transform="translate(455.399918 0)"/>
     </g>
    </g>
    <g id="line2d_19">
     <path d="M 74.322575 256.713737 
L 100.722575 256.713737 
L 127.122575 256.713737 
" style="fill: none; stroke-dasharray: 2,3; stroke-dashoffset: 0; stroke: #578457; stroke-opacity: 0.4; stroke-width: 2"/>
     <g>
      <use xlink:href="#md6b4c1d5a9" x="100.722575" y="256.713737" style="fill: #578457; fill-opacity: 0.4; stroke: #ffffff; stroke-opacity: 0.4; stroke-width: 1.5"/>
     </g>
    </g>
    <g id="text_16">
     <!-- DiscreteNaive -->
     <g style="fill: #262626" transform="translate(140.322575 264.413737) scale(0.22 -0.22)">
      <defs>
       <path id="NimbusRoman-Bold-4e" d="M 102 0 
L 1555 0 
L 1555 160 
C 1069 211 954 333 947 794 
L 947 3366 
L 3808 -115 
L 3987 -115 
L 3987 3654 
C 3987 4019 4070 4109 4486 4166 
L 4486 4326 
L 3110 4326 
L 3110 4166 
C 3578 4122 3706 3987 3706 3533 
L 3706 1581 
L 1472 4326 
L 122 4326 
L 122 4166 
C 250 4166 358 4070 666 3706 
L 666 672 
C 659 294 557 211 102 160 
L 102 0 
z
" transform="scale(0.015625)"/>
      </defs>
      <use xlink:href="#NimbusRoman-Bold-44"/>
      <use xlink:href="#NimbusRoman-Bold-69" transform="translate(72.199982 0)"/>
      <use xlink:href="#NimbusRoman-Bold-73" transform="translate(99.999969 0)"/>
      <use xlink:href="#NimbusRoman-Bold-63" transform="translate(138.899963 0)"/>
      <use xlink:href="#NimbusRoman-Bold-72" transform="translate(183.299957 0)"/>
      <use xlink:href="#NimbusRoman-Bold-65" transform="translate(227.699951 0)"/>
      <use xlink:href="#NimbusRoman-Bold-74" transform="translate(272.099945 0)"/>
      <use xlink:href="#NimbusRoman-Bold-65" transform="translate(305.399933 0)"/>
      <use xlink:href="#NimbusRoman-Bold-4e" transform="translate(349.799927 0)"/>
      <use xlink:href="#NimbusRoman-Bold-61" transform="translate(421.999908 0)"/>
      <use xlink:href="#NimbusRoman-Bold-69" transform="translate(471.999893 0)"/>
      <use xlink:href="#NimbusRoman-Bold-76" transform="translate(499.799881 0)"/>
      <use xlink:href="#NimbusRoman-Bold-65" transform="translate(549.799866 0)"/>
     </g>
    </g>
    <g id="line2d_20">
     <path d="M 74.322575 287.623738 
L 100.722575 287.623738 
L 127.122575 287.623738 
" style="fill: none; stroke: #cc9900; stroke-width: 3; stroke-linecap: round"/>
     <g>
      <use xlink:href="#m6a19338e78" x="100.722575" y="287.623738" style="fill: #cc9900; stroke: #ffffff; stroke-width: 1.5"/>
     </g>
    </g>
    <g id="text_17">
     <!-- ContinuousRTC -->
     <g style="fill: #262626" transform="translate(140.322575 295.323737) scale(0.22 -0.22)">
      <defs>
       <path id="NimbusRoman-Bold-75" d="M 3437 275 
C 3162 288 3085 371 3078 646 
L 3078 2950 
L 1792 2950 
L 1792 2797 
C 2106 2778 2182 2701 2189 2419 
L 2189 608 
C 1978 397 1850 326 1664 326 
C 1402 326 1306 454 1306 781 
L 1306 2950 
L 102 2950 
L 102 2797 
C 365 2746 410 2688 416 2419 
L 416 806 
C 416 243 736 -90 1267 -90 
C 1600 -90 1824 13 2195 333 
L 2195 -83 
C 2470 13 2624 38 3040 83 
L 3437 128 
L 3437 275 
z
" transform="scale(0.015625)"/>
      </defs>
      <use xlink:href="#NimbusRoman-Bold-43"/>
      <use xlink:href="#NimbusRoman-Bold-6f" transform="translate(72.199982 0)"/>
      <use xlink:href="#NimbusRoman-Bold-6e" transform="translate(122.199966 0)"/>
      <use xlink:href="#NimbusRoman-Bold-74" transform="translate(177.799957 0)"/>
      <use xlink:href="#NimbusRoman-Bold-69" transform="translate(211.099945 0)"/>
      <use xlink:href="#NimbusRoman-Bold-6e" transform="translate(238.899933 0)"/>
      <use xlink:href="#NimbusRoman-Bold-75" transform="translate(294.499924 0)"/>
      <use xlink:href="#NimbusRoman-Bold-6f" transform="translate(350.099915 0)"/>
      <use xlink:href="#NimbusRoman-Bold-75" transform="translate(400.099899 0)"/>
      <use xlink:href="#NimbusRoman-Bold-73" transform="translate(455.69989 0)"/>
      <use xlink:href="#NimbusRoman-Bold-52" transform="translate(494.599884 0)"/>
      <use xlink:href="#NimbusRoman-Bold-54" transform="translate(566.799866 0)"/>
      <use xlink:href="#NimbusRoman-Bold-43" transform="translate(633.499863 0)"/>
     </g>
    </g>
    <g id="line2d_21">
     <path d="M 74.322575 318.533737 
L 100.722575 318.533737 
L 127.122575 318.533737 
" style="fill: none; stroke-dasharray: 10,4; stroke-dashoffset: 0; stroke: #b59126; stroke-opacity: 0.7; stroke-width: 2"/>
     <g>
      <use xlink:href="#m113db768d6" x="100.722575" y="318.533737" style="fill: #b59126; fill-opacity: 0.7; stroke: #ffffff; stroke-opacity: 0.7; stroke-width: 1.5"/>
     </g>
    </g>
    <g id="text_18">
     <!-- ContinuousBID -->
     <g style="fill: #262626" transform="translate(140.322575 326.233737) scale(0.22 -0.22)">
      <use xlink:href="#NimbusRoman-Bold-43"/>
      <use xlink:href="#NimbusRoman-Bold-6f" transform="translate(72.199982 0)"/>
      <use xlink:href="#NimbusRoman-Bold-6e" transform="translate(122.199966 0)"/>
      <use xlink:href="#NimbusRoman-Bold-74" transform="translate(177.799957 0)"/>
      <use xlink:href="#NimbusRoman-Bold-69" transform="translate(211.099945 0)"/>
      <use xlink:href="#NimbusRoman-Bold-6e" transform="translate(238.899933 0)"/>
      <use xlink:href="#NimbusRoman-Bold-75" transform="translate(294.499924 0)"/>
      <use xlink:href="#NimbusRoman-Bold-6f" transform="translate(350.099915 0)"/>
      <use xlink:href="#NimbusRoman-Bold-75" transform="translate(400.099899 0)"/>
      <use xlink:href="#NimbusRoman-Bold-73" transform="translate(455.69989 0)"/>
      <use xlink:href="#NimbusRoman-Bold-42" transform="translate(494.599884 0)"/>
      <use xlink:href="#NimbusRoman-Bold-49" transform="translate(561.299881 0)"/>
      <use xlink:href="#NimbusRoman-Bold-44" transform="translate(600.199875 0)"/>
     </g>
    </g>
    <g id="line2d_22">
     <path d="M 74.322575 349.443737 
L 100.722575 349.443737 
L 127.122575 349.443737 
" style="fill: none; stroke-dasharray: 2,3; stroke-dashoffset: 0; stroke: #9e8a4c; stroke-opacity: 0.4; stroke-width: 2"/>
     <g>
      <use xlink:href="#m45fea72259" x="100.722575" y="349.443737" style="fill: #9e8a4c; fill-opacity: 0.4; stroke: #ffffff; stroke-opacity: 0.4; stroke-width: 1.5"/>
     </g>
    </g>
    <g id="text_19">
     <!-- ContinuousNaive -->
     <g style="fill: #262626" transform="translate(140.322575 357.143737) scale(0.22 -0.22)">
      <use xlink:href="#NimbusRoman-Bold-43"/>
      <use xlink:href="#NimbusRoman-Bold-6f" transform="translate(72.199982 0)"/>
      <use xlink:href="#NimbusRoman-Bold-6e" transform="translate(122.199966 0)"/>
      <use xlink:href="#NimbusRoman-Bold-74" transform="translate(177.799957 0)"/>
      <use xlink:href="#NimbusRoman-Bold-69" transform="translate(211.099945 0)"/>
      <use xlink:href="#NimbusRoman-Bold-6e" transform="translate(238.899933 0)"/>
      <use xlink:href="#NimbusRoman-Bold-75" transform="translate(294.499924 0)"/>
      <use xlink:href="#NimbusRoman-Bold-6f" transform="translate(350.099915 0)"/>
      <use xlink:href="#NimbusRoman-Bold-75" transform="translate(400.099899 0)"/>
      <use xlink:href="#NimbusRoman-Bold-73" transform="translate(455.69989 0)"/>
      <use xlink:href="#NimbusRoman-Bold-4e" transform="translate(494.599884 0)"/>
      <use xlink:href="#NimbusRoman-Bold-61" transform="translate(566.799866 0)"/>
      <use xlink:href="#NimbusRoman-Bold-69" transform="translate(616.79985 0)"/>
      <use xlink:href="#NimbusRoman-Bold-76" transform="translate(644.599838 0)"/>
      <use xlink:href="#NimbusRoman-Bold-65" transform="translate(694.599823 0)"/>
     </g>
    </g>
   </g>
  </g>
  <g id="axes_2">
   <g id="patch_7">
    <path d="M 598.329375 372.180937 
L 1045.374375 372.180937 
L 1045.374375 30.360937 
L 598.329375 30.360937 
z
" style="fill: #ffffff"/>
   </g>
   <g id="matplotlib.axis_3">
    <g id="xtick_6">
     <g id="line2d_23">
      <path d="M 618.649602 372.180937 
L 618.649602 30.360937 
" clip-path="url(#p814f4f7d18)" style="fill: none; stroke: #cccccc; stroke-opacity: 0.3; stroke-width: 1.5; stroke-linecap: round"/>
     </g>
     <g id="text_20">
      <!-- 0 -->
      <g style="fill: #262626" transform="translate(613.649602 398.199687) scale(0.2 -0.2)">
       <use xlink:href="#NimbusRoman-Bold-30"/>
      </g>
     </g>
    </g>
    <g id="xtick_7">
     <g id="line2d_24">
      <path d="M 720.250739 372.180937 
L 720.250739 30.360937 
" clip-path="url(#p814f4f7d18)" style="fill: none; stroke: #cccccc; stroke-opacity: 0.3; stroke-width: 1.5; stroke-linecap: round"/>
     </g>
     <g id="text_21">
      <!-- 1 -->
      <g style="fill: #262626" transform="translate(715.250739 398.199687) scale(0.2 -0.2)">
       <use xlink:href="#NimbusRoman-Bold-31"/>
      </g>
     </g>
    </g>
    <g id="xtick_8">
     <g id="line2d_25">
      <path d="M 821.851875 372.180937 
L 821.851875 30.360937 
" clip-path="url(#p814f4f7d18)" style="fill: none; stroke: #cccccc; stroke-opacity: 0.3; stroke-width: 1.5; stroke-linecap: round"/>
     </g>
     <g id="text_22">
      <!-- 2 -->
      <g style="fill: #262626" transform="translate(816.851875 398.199687) scale(0.2 -0.2)">
       <use xlink:href="#NimbusRoman-Bold-32"/>
      </g>
     </g>
    </g>
    <g id="xtick_9">
     <g id="line2d_26">
      <path d="M 923.453011 372.180937 
L 923.453011 30.360937 
" clip-path="url(#p814f4f7d18)" style="fill: none; stroke: #cccccc; stroke-opacity: 0.3; stroke-width: 1.5; stroke-linecap: round"/>
     </g>
     <g id="text_23">
      <!-- 3 -->
      <g style="fill: #262626" transform="translate(918.453011 398.199687) scale(0.2 -0.2)">
       <use xlink:href="#NimbusRoman-Bold-33"/>
      </g>
     </g>
    </g>
    <g id="xtick_10">
     <g id="line2d_27">
      <path d="M 1025.054148 372.180937 
L 1025.054148 30.360937 
" clip-path="url(#p814f4f7d18)" style="fill: none; stroke: #cccccc; stroke-opacity: 0.3; stroke-width: 1.5; stroke-linecap: round"/>
     </g>
     <g id="text_24">
      <!-- 4 -->
      <g style="fill: #262626" transform="translate(1020.054148 398.199687) scale(0.2 -0.2)">
       <use xlink:href="#NimbusRoman-Bold-34"/>
      </g>
     </g>
    </g>
    <g id="text_25">
     <!-- Inference Delay, d -->
     <g style="fill: #262626" transform="translate(712.592812 425.645937) scale(0.28 -0.28)">
      <use xlink:href="#NimbusRoman-Bold-49"/>
      <use xlink:href="#NimbusRoman-Bold-6e" transform="translate(38.899994 0)"/>
      <use xlink:href="#NimbusRoman-Bold-66" transform="translate(94.499985 0)"/>
      <use xlink:href="#NimbusRoman-Bold-65" transform="translate(127.799973 0)"/>
      <use xlink:href="#NimbusRoman-Bold-72" transform="translate(172.199966 0)"/>
      <use xlink:href="#NimbusRoman-Bold-65" transform="translate(216.59996 0)"/>
      <use xlink:href="#NimbusRoman-Bold-6e" transform="translate(260.999954 0)"/>
      <use xlink:href="#NimbusRoman-Bold-63" transform="translate(316.599945 0)"/>
      <use xlink:href="#NimbusRoman-Bold-65" transform="translate(360.999939 0)"/>
      <use xlink:href="#NimbusRoman-Bold-20" transform="translate(405.399933 0)"/>
      <use xlink:href="#NimbusRoman-Bold-44" transform="translate(430.399918 0)"/>
      <use xlink:href="#NimbusRoman-Bold-65" transform="translate(502.599899 0)"/>
      <use xlink:href="#NimbusRoman-Bold-6c" transform="translate(546.999893 0)"/>
      <use xlink:href="#NimbusRoman-Bold-61" transform="translate(574.799881 0)"/>
      <use xlink:href="#NimbusRoman-Bold-79" transform="translate(624.799866 0)"/>
      <use xlink:href="#NimbusRoman-Bold-2c" transform="translate(674.79985 0)"/>
      <use xlink:href="#NimbusRoman-Bold-20" transform="translate(699.799835 0)"/>
      <use xlink:href="#NimbusRoman-Bold-64" transform="translate(724.79982 0)"/>
     </g>
    </g>
   </g>
   <g id="matplotlib.axis_4">
    <g id="ytick_6">
     <g id="line2d_28">
      <path d="M 598.329375 345.887091 
L 1045.374375 345.887091 
" clip-path="url(#p814f4f7d18)" style="fill: none; stroke: #cccccc; stroke-opacity: 0.3; stroke-width: 1.5; stroke-linecap: round"/>
     </g>
     <g id="text_26">
      <!-- 3.2 -->
      <g style="fill: #262626" transform="translate(560.829375 352.646466) scale(0.2 -0.2)">
       <use xlink:href="#NimbusRoman-Bold-33"/>
       <use xlink:href="#NimbusRoman-Bold-2e" transform="translate(49.999985 0)"/>
       <use xlink:href="#NimbusRoman-Bold-32" transform="translate(74.999969 0)"/>
      </g>
     </g>
    </g>
    <g id="ytick_7">
     <g id="line2d_29">
      <path d="M 598.329375 293.299399 
L 1045.374375 293.299399 
" clip-path="url(#p814f4f7d18)" style="fill: none; stroke: #cccccc; stroke-opacity: 0.3; stroke-width: 1.5; stroke-linecap: round"/>
     </g>
     <g id="text_27">
      <!-- 3.4 -->
      <g style="fill: #262626" transform="translate(560.829375 300.058774) scale(0.2 -0.2)">
       <use xlink:href="#NimbusRoman-Bold-33"/>
       <use xlink:href="#NimbusRoman-Bold-2e" transform="translate(49.999985 0)"/>
       <use xlink:href="#NimbusRoman-Bold-34" transform="translate(74.999969 0)"/>
      </g>
     </g>
    </g>
    <g id="ytick_8">
     <g id="line2d_30">
      <path d="M 598.329375 240.711707 
L 1045.374375 240.711707 
" clip-path="url(#p814f4f7d18)" style="fill: none; stroke: #cccccc; stroke-opacity: 0.3; stroke-width: 1.5; stroke-linecap: round"/>
     </g>
     <g id="text_28">
      <!-- 3.6 -->
      <g style="fill: #262626" transform="translate(560.829375 247.471082) scale(0.2 -0.2)">
       <use xlink:href="#NimbusRoman-Bold-33"/>
       <use xlink:href="#NimbusRoman-Bold-2e" transform="translate(49.999985 0)"/>
       <use xlink:href="#NimbusRoman-Bold-36" transform="translate(74.999969 0)"/>
      </g>
     </g>
    </g>
    <g id="ytick_9">
     <g id="line2d_31">
      <path d="M 598.329375 188.124014 
L 1045.374375 188.124014 
" clip-path="url(#p814f4f7d18)" style="fill: none; stroke: #cccccc; stroke-opacity: 0.3; stroke-width: 1.5; stroke-linecap: round"/>
     </g>
     <g id="text_29">
      <!-- 3.8 -->
      <g style="fill: #262626" transform="translate(560.829375 194.883389) scale(0.2 -0.2)">
       <use xlink:href="#NimbusRoman-Bold-33"/>
       <use xlink:href="#NimbusRoman-Bold-2e" transform="translate(49.999985 0)"/>
       <use xlink:href="#NimbusRoman-Bold-38" transform="translate(74.999969 0)"/>
      </g>
     </g>
    </g>
    <g id="ytick_10">
     <g id="line2d_32">
      <path d="M 598.329375 135.536322 
L 1045.374375 135.536322 
" clip-path="url(#p814f4f7d18)" style="fill: none; stroke: #cccccc; stroke-opacity: 0.3; stroke-width: 1.5; stroke-linecap: round"/>
     </g>
     <g id="text_30">
      <!-- 4.0 -->
      <g style="fill: #262626" transform="translate(560.829375 142.295697) scale(0.2 -0.2)">
       <use xlink:href="#NimbusRoman-Bold-34"/>
       <use xlink:href="#NimbusRoman-Bold-2e" transform="translate(49.999985 0)"/>
       <use xlink:href="#NimbusRoman-Bold-30" transform="translate(74.999969 0)"/>
      </g>
     </g>
    </g>
    <g id="ytick_11">
     <g id="line2d_33">
      <path d="M 598.329375 82.94863 
L 1045.374375 82.94863 
" clip-path="url(#p814f4f7d18)" style="fill: none; stroke: #cccccc; stroke-opacity: 0.3; stroke-width: 1.5; stroke-linecap: round"/>
     </g>
     <g id="text_31">
      <!-- 4.2 -->
      <g style="fill: #262626" transform="translate(560.829375 89.708005) scale(0.2 -0.2)">
       <use xlink:href="#NimbusRoman-Bold-34"/>
       <use xlink:href="#NimbusRoman-Bold-2e" transform="translate(49.999985 0)"/>
       <use xlink:href="#NimbusRoman-Bold-32" transform="translate(74.999969 0)"/>
      </g>
     </g>
    </g>
    <g id="ytick_12">
     <g id="line2d_34">
      <path d="M 598.329375 30.360937 
L 1045.374375 30.360937 
" clip-path="url(#p814f4f7d18)" style="fill: none; stroke: #cccccc; stroke-opacity: 0.3; stroke-width: 1.5; stroke-linecap: round"/>
     </g>
     <g id="text_32">
      <!-- 4.4 -->
      <g style="fill: #262626" transform="translate(560.829375 37.120312) scale(0.2 -0.2)">
       <use xlink:href="#NimbusRoman-Bold-34"/>
       <use xlink:href="#NimbusRoman-Bold-2e" transform="translate(49.999985 0)"/>
       <use xlink:href="#NimbusRoman-Bold-34" transform="translate(74.999969 0)"/>
      </g>
     </g>
    </g>
    <g id="text_33">
     <!-- Throughput -->
     <g style="fill: #262626" transform="translate(551.475 269.179687) rotate(-90) scale(0.26 -0.26)">
      <defs>
       <path id="NimbusRoman-Bold-68" d="M 3418 154 
C 3194 160 3104 275 3104 538 
L 3104 2125 
C 3104 2675 2765 3027 2240 3027 
C 1901 3027 1664 2899 1331 2528 
L 1331 4326 
L 102 4326 
L 102 4173 
C 397 4115 435 4077 442 3802 
L 442 538 
C 435 262 384 205 102 154 
L 102 0 
L 1645 0 
L 1645 154 
C 1414 179 1331 282 1331 518 
L 1331 2227 
C 1331 2253 1376 2317 1440 2381 
C 1581 2522 1734 2598 1882 2598 
C 2106 2598 2214 2426 2214 2067 
L 2214 518 
C 2208 275 2125 173 1914 154 
L 1914 0 
L 3418 0 
L 3418 154 
z
" transform="scale(0.015625)"/>
       <path id="NimbusRoman-Bold-70" d="M 1869 -1178 
C 1485 -1165 1382 -1043 1370 -602 
L 1370 301 
C 1677 0 1837 -83 2125 -83 
C 2848 -83 3354 582 3354 1530 
C 3354 2426 2874 3027 2163 3027 
C 1786 3027 1555 2880 1357 2509 
L 1357 2950 
L 134 2950 
L 134 2797 
C 416 2758 480 2688 480 2419 
L 480 -787 
C 474 -1056 422 -1107 122 -1158 
L 122 -1312 
L 1869 -1312 
L 1869 -1178 
z
M 1370 2214 
C 1370 2259 1427 2362 1504 2445 
C 1632 2586 1779 2662 1920 2662 
C 2253 2662 2406 2278 2406 1440 
C 2406 646 2234 269 1862 269 
C 1651 269 1466 416 1370 659 
L 1370 2214 
z
" transform="scale(0.015625)"/>
      </defs>
      <use xlink:href="#NimbusRoman-Bold-54"/>
      <use xlink:href="#NimbusRoman-Bold-68" transform="translate(66.699997 0)"/>
      <use xlink:href="#NimbusRoman-Bold-72" transform="translate(122.299988 0)"/>
      <use xlink:href="#NimbusRoman-Bold-6f" transform="translate(166.699982 0)"/>
      <use xlink:href="#NimbusRoman-Bold-75" transform="translate(216.699966 0)"/>
      <use xlink:href="#NimbusRoman-Bold-67" transform="translate(272.299957 0)"/>
      <use xlink:href="#NimbusRoman-Bold-68" transform="translate(322.299942 0)"/>
      <use xlink:href="#NimbusRoman-Bold-70" transform="translate(377.899933 0)"/>
      <use xlink:href="#NimbusRoman-Bold-75" transform="translate(433.499924 0)"/>
      <use xlink:href="#NimbusRoman-Bold-74" transform="translate(489.099915 0)"/>
     </g>
    </g>
   </g>
   <g id="line2d_35">
    <path d="M 618.649602 176.492689 
L 720.250739 221.88135 
L 821.851875 261.170891 
L 923.453011 317.726547 
L 1025.054148 330.761153 
" clip-path="url(#p814f4f7d18)" style="fill: none; stroke: #cc9900; stroke-width: 3; stroke-linecap: round"/>
    <g clip-path="url(#p814f4f7d18)">
     <use xlink:href="#m6a19338e78" x="618.649602" y="176.492689" style="fill: #cc9900; stroke: #ffffff; stroke-width: 1.5"/>
     <use xlink:href="#m6a19338e78" x="720.250739" y="221.88135" style="fill: #cc9900; stroke: #ffffff; stroke-width: 1.5"/>
     <use xlink:href="#m6a19338e78" x="821.851875" y="261.170891" style="fill: #cc9900; stroke: #ffffff; stroke-width: 1.5"/>
     <use xlink:href="#m6a19338e78" x="923.453011" y="317.726547" style="fill: #cc9900; stroke: #ffffff; stroke-width: 1.5"/>
     <use xlink:href="#m6a19338e78" x="1025.054148" y="330.761153" style="fill: #cc9900; stroke: #ffffff; stroke-width: 1.5"/>
    </g>
   </g>
   <g id="line2d_36">
    <path d="M 618.649602 171.310656 
L 720.250739 236.252885 
L 821.851875 273.674141 
L 923.453011 318.007261 
L 1025.054148 340.759321 
" clip-path="url(#p814f4f7d18)" style="fill: none; stroke-dasharray: 10,4; stroke-dashoffset: 0; stroke: #b59126; stroke-opacity: 0.7; stroke-width: 2"/>
    <g clip-path="url(#p814f4f7d18)">
     <use xlink:href="#m113db768d6" x="618.649602" y="171.310656" style="fill: #b59126; fill-opacity: 0.7; stroke: #ffffff; stroke-opacity: 0.7; stroke-width: 1.5"/>
     <use xlink:href="#m113db768d6" x="720.250739" y="236.252885" style="fill: #b59126; fill-opacity: 0.7; stroke: #ffffff; stroke-opacity: 0.7; stroke-width: 1.5"/>
     <use xlink:href="#m113db768d6" x="821.851875" y="273.674141" style="fill: #b59126; fill-opacity: 0.7; stroke: #ffffff; stroke-opacity: 0.7; stroke-width: 1.5"/>
     <use xlink:href="#m113db768d6" x="923.453011" y="318.007261" style="fill: #b59126; fill-opacity: 0.7; stroke: #ffffff; stroke-opacity: 0.7; stroke-width: 1.5"/>
     <use xlink:href="#m113db768d6" x="1025.054148" y="340.759321" style="fill: #b59126; fill-opacity: 0.7; stroke: #ffffff; stroke-opacity: 0.7; stroke-width: 1.5"/>
    </g>
   </g>
   <g id="line2d_37">
    <path d="M 618.649602 180.440197 
L 720.250739 285.051683 
L 821.851875 297.890325 
L 923.453011 330.162372 
L 1025.054148 351.448825 
" clip-path="url(#p814f4f7d18)" style="fill: none; stroke-dasharray: 2,3; stroke-dashoffset: 0; stroke: #9e8a4c; stroke-opacity: 0.4; stroke-width: 2"/>
    <g clip-path="url(#p814f4f7d18)">
     <use xlink:href="#m45fea72259" x="618.649602" y="180.440197" style="fill: #9e8a4c; fill-opacity: 0.4; stroke: #ffffff; stroke-opacity: 0.4; stroke-width: 1.5"/>
     <use xlink:href="#m45fea72259" x="720.250739" y="285.051683" style="fill: #9e8a4c; fill-opacity: 0.4; stroke: #ffffff; stroke-opacity: 0.4; stroke-width: 1.5"/>
     <use xlink:href="#m45fea72259" x="821.851875" y="297.890325" style="fill: #9e8a4c; fill-opacity: 0.4; stroke: #ffffff; stroke-opacity: 0.4; stroke-width: 1.5"/>
     <use xlink:href="#m45fea72259" x="923.453011" y="330.162372" style="fill: #9e8a4c; fill-opacity: 0.4; stroke: #ffffff; stroke-opacity: 0.4; stroke-width: 1.5"/>
     <use xlink:href="#m45fea72259" x="1025.054148" y="351.448825" style="fill: #9e8a4c; fill-opacity: 0.4; stroke: #ffffff; stroke-opacity: 0.4; stroke-width: 1.5"/>
    </g>
   </g>
   <g id="line2d_38">
    <path d="M 618.649602 69.778893 
L 720.250739 101.148838 
L 821.851875 157.221272 
L 923.453011 214.080793 
L 1025.054148 267.033323 
" clip-path="url(#p814f4f7d18)" style="fill: none; stroke: #1a8c1a; stroke-width: 3; stroke-linecap: round"/>
    <g clip-path="url(#p814f4f7d18)">
     <use xlink:href="#m09f0cf9b5a" x="618.649602" y="69.778893" style="fill: #1a8c1a; stroke: #ffffff; stroke-width: 1.5"/>
     <use xlink:href="#m09f0cf9b5a" x="720.250739" y="101.148838" style="fill: #1a8c1a; stroke: #ffffff; stroke-width: 1.5"/>
     <use xlink:href="#m09f0cf9b5a" x="821.851875" y="157.221272" style="fill: #1a8c1a; stroke: #ffffff; stroke-width: 1.5"/>
     <use xlink:href="#m09f0cf9b5a" x="923.453011" y="214.080793" style="fill: #1a8c1a; stroke: #ffffff; stroke-width: 1.5"/>
     <use xlink:href="#m09f0cf9b5a" x="1025.054148" y="267.033323" style="fill: #1a8c1a; stroke: #ffffff; stroke-width: 1.5"/>
    </g>
   </g>
   <g id="line2d_39">
    <path d="M 618.649602 82.214794 
L 720.250739 158.855901 
L 821.851875 206.788537 
L 923.453011 264.107827 
L 1025.054148 267.820919 
" clip-path="url(#p814f4f7d18)" style="fill: none; stroke-dasharray: 10,4; stroke-dashoffset: 0; stroke: #388838; stroke-opacity: 0.7; stroke-width: 2"/>
    <g clip-path="url(#p814f4f7d18)">
     <use xlink:href="#m70920e898a" x="618.649602" y="82.214794" style="fill: #388838; fill-opacity: 0.7; stroke: #ffffff; stroke-opacity: 0.7; stroke-width: 1.5"/>
     <use xlink:href="#m70920e898a" x="720.250739" y="158.855901" style="fill: #388838; fill-opacity: 0.7; stroke: #ffffff; stroke-opacity: 0.7; stroke-width: 1.5"/>
     <use xlink:href="#m70920e898a" x="821.851875" y="206.788537" style="fill: #388838; fill-opacity: 0.7; stroke: #ffffff; stroke-opacity: 0.7; stroke-width: 1.5"/>
     <use xlink:href="#m70920e898a" x="923.453011" y="264.107827" style="fill: #388838; fill-opacity: 0.7; stroke: #ffffff; stroke-opacity: 0.7; stroke-width: 1.5"/>
     <use xlink:href="#m70920e898a" x="1025.054148" y="267.820919" style="fill: #388838; fill-opacity: 0.7; stroke: #ffffff; stroke-opacity: 0.7; stroke-width: 1.5"/>
    </g>
   </g>
   <g id="line2d_40">
    <path d="M 618.649602 69.770037 
L 720.250739 157.52877 
L 821.851875 214.955238 
L 923.453011 273.235914 
L 1025.054148 276.555375 
" clip-path="url(#p814f4f7d18)" style="fill: none; stroke-dasharray: 2,3; stroke-dashoffset: 0; stroke: #578457; stroke-opacity: 0.4; stroke-width: 2"/>
    <g clip-path="url(#p814f4f7d18)">
     <use xlink:href="#md6b4c1d5a9" x="618.649602" y="69.770037" style="fill: #578457; fill-opacity: 0.4; stroke: #ffffff; stroke-opacity: 0.4; stroke-width: 1.5"/>
     <use xlink:href="#md6b4c1d5a9" x="720.250739" y="157.52877" style="fill: #578457; fill-opacity: 0.4; stroke: #ffffff; stroke-opacity: 0.4; stroke-width: 1.5"/>
     <use xlink:href="#md6b4c1d5a9" x="821.851875" y="214.955238" style="fill: #578457; fill-opacity: 0.4; stroke: #ffffff; stroke-opacity: 0.4; stroke-width: 1.5"/>
     <use xlink:href="#md6b4c1d5a9" x="923.453011" y="273.235914" style="fill: #578457; fill-opacity: 0.4; stroke: #ffffff; stroke-opacity: 0.4; stroke-width: 1.5"/>
     <use xlink:href="#md6b4c1d5a9" x="1025.054148" y="276.555375" style="fill: #578457; fill-opacity: 0.4; stroke: #ffffff; stroke-opacity: 0.4; stroke-width: 1.5"/>
    </g>
   </g>
   <g id="patch_8">
    <path d="M 598.329375 372.180937 
L 598.329375 30.360937 
" style="fill: none; stroke: #cccccc; stroke-width: 1.875; stroke-linejoin: miter; stroke-linecap: square"/>
   </g>
   <g id="patch_9">
    <path d="M 1045.374375 372.180937 
L 1045.374375 30.360937 
" style="fill: none; stroke: #cccccc; stroke-width: 1.875; stroke-linejoin: miter; stroke-linecap: square"/>
   </g>
   <g id="patch_10">
    <path d="M 598.329375 372.180937 
L 1045.374375 372.180937 
" style="fill: none; stroke: #cccccc; stroke-width: 1.875; stroke-linejoin: miter; stroke-linecap: square"/>
   </g>
   <g id="patch_11">
    <path d="M 598.329375 30.360937 
L 1045.374375 30.360937 
" style="fill: none; stroke: #cccccc; stroke-width: 1.875; stroke-linejoin: miter; stroke-linecap: square"/>
   </g>
   <g id="text_34">
    <!-- Average Throughput in Kinetix -->
    <g style="fill: #262626" transform="translate(618.920625 24.360937) scale(0.3 -0.3)">
     <use xlink:href="#NimbusRoman-Bold-41"/>
     <use xlink:href="#NimbusRoman-Bold-76" transform="translate(72.199982 0)"/>
     <use xlink:href="#NimbusRoman-Bold-65" transform="translate(122.199966 0)"/>
     <use xlink:href="#NimbusRoman-Bold-72" transform="translate(166.59996 0)"/>
     <use xlink:href="#NimbusRoman-Bold-61" transform="translate(210.999954 0)"/>
     <use xlink:href="#NimbusRoman-Bold-67" transform="translate(260.999939 0)"/>
     <use xlink:href="#NimbusRoman-Bold-65" transform="translate(310.999924 0)"/>
     <use xlink:href="#NimbusRoman-Bold-20" transform="translate(355.399918 0)"/>
     <use xlink:href="#NimbusRoman-Bold-54" transform="translate(380.399902 0)"/>
     <use xlink:href="#NimbusRoman-Bold-68" transform="translate(447.099899 0)"/>
     <use xlink:href="#NimbusRoman-Bold-72" transform="translate(502.69989 0)"/>
     <use xlink:href="#NimbusRoman-Bold-6f" transform="translate(547.099884 0)"/>
     <use xlink:href="#NimbusRoman-Bold-75" transform="translate(597.099869 0)"/>
     <use xlink:href="#NimbusRoman-Bold-67" transform="translate(652.69986 0)"/>
     <use xlink:href="#NimbusRoman-Bold-68" transform="translate(702.699844 0)"/>
     <use xlink:href="#NimbusRoman-Bold-70" transform="translate(758.299835 0)"/>
     <use xlink:href="#NimbusRoman-Bold-75" transform="translate(813.899826 0)"/>
     <use xlink:href="#NimbusRoman-Bold-74" transform="translate(869.499817 0)"/>
     <use xlink:href="#NimbusRoman-Bold-20" transform="translate(902.799805 0)"/>
     <use xlink:href="#NimbusRoman-Bold-69" transform="translate(927.799789 0)"/>
     <use xlink:href="#NimbusRoman-Bold-6e" transform="translate(955.599777 0)"/>
     <use xlink:href="#NimbusRoman-Bold-20" transform="translate(1011.199768 0)"/>
     <use xlink:href="#NimbusRoman-Bold-4b" transform="translate(1036.199753 0)"/>
     <use xlink:href="#NimbusRoman-Bold-69" transform="translate(1113.999741 0)"/>
     <use xlink:href="#NimbusRoman-Bold-6e" transform="translate(1141.799728 0)"/>
     <use xlink:href="#NimbusRoman-Bold-65" transform="translate(1197.399719 0)"/>
     <use xlink:href="#NimbusRoman-Bold-74" transform="translate(1241.799713 0)"/>
     <use xlink:href="#NimbusRoman-Bold-69" transform="translate(1275.099701 0)"/>
     <use xlink:href="#NimbusRoman-Bold-78" transform="translate(1302.899689 0)"/>
    </g>
   </g>
  </g>
 </g>
 <defs>
  <clipPath id="p229c5a5219">
   <rect x="68.004375" y="30.360937" width="447.045" height="341.82"/>
  </clipPath>
  <clipPath id="p814f4f7d18">
   <rect x="598.329375" y="30.360937" width="447.045" height="341.82"/>
  </clipPath>
 </defs>
</svg>
