<?xml version='1.0' encoding='utf-8'?>
<svg xmlns="http://www.w3.org/2000/svg" viewBox="50 74 766 254" font-family="'DejaVu Sans', 'Helvetica Neue', Helvetica, Arial, sans-serif" style="background:white">
  <rect x="50" y="74" width="766" height="254" fill="white" />

  
  
  
  <svg x="0" y="0" width="470" height="420" viewBox="130 15 444 265" preserveAspectRatio="xMidYMid meet">
    <defs>
      <marker id="arrowhead" markerWidth="7" markerHeight="5" refX="4" refY="2.5" orient="auto">
        <polygon points="0 0, 7 2.5, 0 5" fill="#555" />
      </marker>
    </defs>

    <g transform="translate(0, 8)">
    
    <text x="213.323" y="50.000" font-size="20.00" font-family="'DejaVu Sans', 'Helvetica Neue', Helvetica, Arial, sans-serif" font-weight="bold" fill="#333">????????????????????????</text><rect x="190" y="72" width="48" height="48" fill="#2e8b57" />
    <rect x="238" y="72" width="48" height="48" fill="#2e8b57" />
    <rect x="286" y="72" width="48" height="48" fill="#5a9e45" />
    <rect x="334" y="72" width="48" height="48" fill="#8bb832" />
    <rect x="382" y="72" width="48" height="48" fill="#bdd01e" />
    <rect x="430" y="72" width="48" height="48" fill="#e8d810" />
    <rect x="478" y="72" width="48" height="48" fill="#e8d810" />
    <rect x="526" y="72" width="48" height="48" fill="#e8d810" />
    <rect x="190" y="72" width="384" height="48" fill="none" stroke="#888" stroke-width="1.5" />
    <line x1="238" y1="72" x2="238" y2="120" stroke="#888" stroke-width="1.2" />
    <line x1="286" y1="72" x2="286" y2="120" stroke="#888" stroke-width="1.2" />
    <line x1="334" y1="72" x2="334" y2="120" stroke="#888" stroke-width="1.2" />
    <line x1="382" y1="72" x2="382" y2="120" stroke="#888" stroke-width="1.2" />
    <line x1="430" y1="72" x2="430" y2="120" stroke="#888" stroke-width="1.2" />
    <line x1="478" y1="72" x2="478" y2="120" stroke="#888" stroke-width="1.2" />
    <line x1="526" y1="72" x2="526" y2="120" stroke="#888" stroke-width="1.2" />

    <line x1="342" y1="130" x2="342" y2="150" stroke="#555" stroke-width="1.8" marker-end="url(#arrowhead)" />
    <text x="362.000" y="146.000" font-size="17.00" font-family="'DejaVu Sans', 'Helvetica Neue', Helvetica, Arial, sans-serif" font-weight="bold" fill="#444">? ???</text><rect x="190" y="158" width="48" height="48" fill="#2e8b57" />
    <rect x="238" y="158" width="48" height="48" fill="#2e8b57" />
    <rect x="286" y="158" width="48" height="48" fill="#2e8b57" />
    <rect x="334" y="158" width="48" height="48" fill="#2e8b57" />
    <rect x="382" y="158" width="48" height="48" fill="#2e8b57" />
    <rect x="430" y="158" width="48" height="48" fill="#2e8b57" />
    <rect x="478" y="158" width="48" height="48" fill="#2e8b57" />
    <rect x="526" y="158" width="48" height="48" fill="#2e8b57" />
    <rect x="190" y="158" width="384" height="48" fill="none" stroke="#888" stroke-width="1.5" />
    <line x1="238" y1="158" x2="238" y2="206" stroke="#888" stroke-width="1.2" />
    <line x1="286" y1="158" x2="286" y2="206" stroke="#888" stroke-width="1.2" />
    <line x1="334" y1="158" x2="334" y2="206" stroke="#888" stroke-width="1.2" />
    <line x1="382" y1="158" x2="382" y2="206" stroke="#888" stroke-width="1.2" />
    <line x1="430" y1="158" x2="430" y2="206" stroke="#888" stroke-width="1.2" />
    <line x1="478" y1="158" x2="478" y2="206" stroke="#888" stroke-width="1.2" />
    <line x1="526" y1="158" x2="526" y2="206" stroke="#888" stroke-width="1.2" />

    <line x1="286" y1="62" x2="286" y2="220" stroke="#aaa" stroke-width="1.2" stroke-dasharray="5,4" />
    <line x1="430" y1="62" x2="430" y2="220" stroke="#aaa" stroke-width="1.2" stroke-dasharray="5,4" />

    <text x="234.063" y="227.000" font-size="11.00" font-family="'DejaVu Sans', 'Helvetica Neue', Helvetica, Arial, sans-serif" font-weight="bold" fill="#333">?</text><text x="329.310" y="227.000" font-size="11.00" font-family="'DejaVu Sans', 'Helvetica Neue', Helvetica, Arial, sans-serif" font-weight="bold" fill="#333">?????</text><text x="498.726" y="227.000" font-size="11.00" font-family="'DejaVu Sans', 'Helvetica Neue', Helvetica, Arial, sans-serif" font-weight="bold" fill="#333">?</text><line x1="194" y1="230" x2="282" y2="230" stroke="#333" stroke-width="1" />
    <line x1="194" y1="226" x2="194" y2="234" stroke="#333" stroke-width="1" />
    <line x1="282" y1="226" x2="282" y2="234" stroke="#333" stroke-width="1" />
    <text x="193.613" y="244.000" font-size="10.00" font-family="'DejaVu Sans', 'Helvetica Neue', Helvetica, Arial, sans-serif" font-weight="bold" fill="#333">??????????????</text><line x1="290" y1="230" x2="426" y2="230" stroke="#333" stroke-width="1" />
    <line x1="290" y1="226" x2="290" y2="234" stroke="#333" stroke-width="1" />
    <line x1="426" y1="226" x2="426" y2="234" stroke="#333" stroke-width="1" />
    <text x="300.014" y="244.000" font-size="10.00" font-family="'DejaVu Sans', 'Helvetica Neue', Helvetica, Arial, sans-serif" font-weight="bold" fill="#333">??????????????????</text><line x1="434" y1="230" x2="570" y2="230" stroke="#333" stroke-width="1" />
    <line x1="434" y1="226" x2="434" y2="234" stroke="#333" stroke-width="1" />
    <line x1="570" y1="226" x2="570" y2="234" stroke="#333" stroke-width="1" />
    <text x="450.901" y="244.000" font-size="10.00" font-family="'DejaVu Sans', 'Helvetica Neue', Helvetica, Arial, sans-serif" font-weight="bold" fill="#333">????????????????</text></g>
  </svg>

  
  
  
  
  

  
  <svg x="480" y="94" width="335" height="108" viewBox="0 0 520 168" preserveAspectRatio="xMidYMid meet">
    <defs>
      <marker id="arrow" markerWidth="7" markerHeight="5" refX="4" refY="2.5" orient="auto">
        <polygon points="0 0, 7 2.5, 0 5" fill="#555" />
      </marker>
    </defs>

    <rect x="2" y="2" width="516" height="164" rx="8" fill="#fdf5e0" stroke="#aaa" stroke-width="1.2" />
    <line x1="262" y1="20" x2="262" y2="152" stroke="#aaa" stroke-width="1" stroke-dasharray="5,4" />

    <text x="22.000" y="28.000" font-size="17.00" font-family="'DejaVu Sans', 'Helvetica Neue', Helvetica, Arial, sans-serif" font-weight="bold" fill="#333" transform="translate(22,28) scale(0.82) translate(-22,-28)">???????????????????????????</text><rect x="30" y="52" width="26" height="26" fill="#8bb832" />
    <rect x="56" y="52" width="26" height="26" fill="#8bb832" />
    <rect x="82" y="52" width="26" height="26" fill="#8bb832" />
    <rect x="108" y="52" width="26" height="26" fill="#8bb832" />
    <rect x="134" y="52" width="26" height="26" fill="#8bb832" />
    <rect x="160" y="52" width="26" height="26" fill="#8bb832" />
    <rect x="186" y="52" width="26" height="26" fill="#8bb832" />
    <rect x="212" y="52" width="26" height="26" fill="#8bb832" />
    <rect x="30" y="52" width="208" height="26" fill="none" stroke="#888" stroke-width="1.2" />
    <line x1="56" y1="52" x2="56" y2="78" stroke="#888" stroke-width="1" />
    <line x1="82" y1="52" x2="82" y2="78" stroke="#888" stroke-width="1" />
    <line x1="108" y1="52" x2="108" y2="78" stroke="#888" stroke-width="1" />
    <line x1="134" y1="52" x2="134" y2="78" stroke="#888" stroke-width="1" />
    <line x1="160" y1="52" x2="160" y2="78" stroke="#888" stroke-width="1" />
    <line x1="186" y1="52" x2="186" y2="78" stroke="#888" stroke-width="1" />
    <line x1="212" y1="52" x2="212" y2="78" stroke="#888" stroke-width="1" />

    <line x1="134" y1="84" x2="134" y2="108" stroke="#555" stroke-width="1.8" marker-end="url(#arrow)" />

    <rect x="30" y="116" width="26" height="26" fill="#2e8b57" />
    <rect x="56" y="116" width="26" height="26" fill="#2e8b57" />
    <rect x="82" y="116" width="26" height="26" fill="#2e8b57" />
    <rect x="108" y="116" width="26" height="26" fill="#2e8b57" />
    <rect x="134" y="116" width="26" height="26" fill="#2e8b57" />
    <rect x="160" y="116" width="26" height="26" fill="#2e8b57" />
    <rect x="186" y="116" width="26" height="26" fill="#2e8b57" />
    <rect x="212" y="116" width="26" height="26" fill="#2e8b57" />
    <rect x="30" y="116" width="208" height="26" fill="none" stroke="#888" stroke-width="1.2" />
    <line x1="56" y1="116" x2="56" y2="142" stroke="#888" stroke-width="1" />
    <line x1="82" y1="116" x2="82" y2="142" stroke="#888" stroke-width="1" />
    <line x1="108" y1="116" x2="108" y2="142" stroke="#888" stroke-width="1" />
    <line x1="134" y1="116" x2="134" y2="142" stroke="#888" stroke-width="1" />
    <line x1="160" y1="116" x2="160" y2="142" stroke="#888" stroke-width="1" />
    <line x1="186" y1="116" x2="186" y2="142" stroke="#888" stroke-width="1" />
    <line x1="212" y1="116" x2="212" y2="142" stroke="#888" stroke-width="1" />

    <g transform="translate(6, 0)">
    <text x="274.000" y="28.000" font-size="17.00" font-family="'DejaVu Sans', 'Helvetica Neue', Helvetica, Arial, sans-serif" font-weight="bold" fill="#333" transform="translate(274,28) scale(0.82) translate(-274,-28)">?????????????????????</text><rect x="280" y="52" width="26" height="26" fill="#2e8b57" />
    <rect x="306" y="52" width="26" height="26" fill="#2e8b57" />
    <rect x="332" y="52" width="26" height="26" fill="#8bb832" />
    <rect x="358" y="52" width="26" height="26" fill="#8bb832" />
    <rect x="384" y="52" width="26" height="26" fill="#8bb832" />
    <rect x="410" y="52" width="26" height="26" fill="#8bb832" />
    <rect x="436" y="52" width="26" height="26" fill="#8bb832" />
    <rect x="462" y="52" width="26" height="26" fill="#8bb832" />
    <rect x="280" y="52" width="208" height="26" fill="none" stroke="#888" stroke-width="1.2" />
    <line x1="306" y1="52" x2="306" y2="78" stroke="#888" stroke-width="1" />
    <line x1="332" y1="52" x2="332" y2="78" stroke="#888" stroke-width="1" />
    <line x1="358" y1="52" x2="358" y2="78" stroke="#888" stroke-width="1" />
    <line x1="384" y1="52" x2="384" y2="78" stroke="#888" stroke-width="1" />
    <line x1="410" y1="52" x2="410" y2="78" stroke="#888" stroke-width="1" />
    <line x1="436" y1="52" x2="436" y2="78" stroke="#888" stroke-width="1" />
    <line x1="462" y1="52" x2="462" y2="78" stroke="#888" stroke-width="1" />

    <line x1="384" y1="84" x2="384" y2="108" stroke="#555" stroke-width="1.8" marker-end="url(#arrow)" />

    <rect x="280" y="116" width="26" height="26" fill="#2e8b57" />
    <rect x="306" y="116" width="26" height="26" fill="#2e8b57" />
    <rect x="332" y="116" width="26" height="26" fill="#2e8b57" />
    <rect x="358" y="116" width="26" height="26" fill="#2e8b57" />
    <rect x="384" y="116" width="26" height="26" fill="#2e8b57" />
    <rect x="410" y="116" width="26" height="26" fill="#2e8b57" />
    <rect x="436" y="116" width="26" height="26" fill="#2e8b57" />
    <rect x="462" y="116" width="26" height="26" fill="#2e8b57" />
    <rect x="280" y="116" width="208" height="26" fill="none" stroke="#888" stroke-width="1.2" />
    <line x1="306" y1="116" x2="306" y2="142" stroke="#888" stroke-width="1" />
    <line x1="332" y1="116" x2="332" y2="142" stroke="#888" stroke-width="1" />
    <line x1="358" y1="116" x2="358" y2="142" stroke="#888" stroke-width="1" />
    <line x1="384" y1="116" x2="384" y2="142" stroke="#888" stroke-width="1" />
    <line x1="410" y1="116" x2="410" y2="142" stroke="#888" stroke-width="1" />
    <line x1="436" y1="116" x2="436" y2="142" stroke="#888" stroke-width="1" />
    <line x1="462" y1="116" x2="462" y2="142" stroke="#888" stroke-width="1" />
    </g>
  </svg>

  
  
  <svg x="480" y="213" width="165" height="115" viewBox="0 0 260 181" preserveAspectRatio="xMidYMid meet">
    <defs>
      <marker id="axisArrow" markerWidth="6" markerHeight="4" refX="3" refY="2" orient="auto">
        <polygon points="0 0, 6 2, 0 4" fill="#333" />
      </marker>
    </defs>

    <rect x="2" y="2" width="256" height="177" rx="8" fill="#fdf5e0" stroke="#aaa" stroke-width="1.2" />
    <text x="20.000" y="26.000" font-size="17.00" font-family="'DejaVu Sans', 'Helvetica Neue', Helvetica, Arial, sans-serif" font-weight="bold" fill="#333" transform="translate(20,26) scale(0.82) translate(-20,-26)">????????????????????</text><g transform="translate(-10, 6) scale(1.1)">
    <line x1="58" y1="138" x2="58" y2="36" stroke="#333" stroke-width="1.2" marker-end="url(#axisArrow)" />
    <line x1="58" y1="138" x2="230" y2="138" stroke="#333" stroke-width="1.2" marker-end="url(#axisArrow)" />

    <text x="-2.135" y="90.000" font-size="10.00" font-family="'DejaVu Sans', 'Helvetica Neue', Helvetica, Arial, sans-serif" font-weight="bold" fill="#333" transform="rotate(-90, 46, 90)">??????????????</text><line x1="115" y1="40" x2="115" y2="138" stroke="#888" stroke-width="1" stroke-dasharray="4,3" />
    <line x1="185" y1="40" x2="185" y2="138" stroke="#888" stroke-width="1" stroke-dasharray="4,3" />

    <path d="M 58,48 L 115,48 L 115,48 C 118,48 120,50 122,55 C 126,68 130,85 135,98 C 140,110 146,120 152,128 C 158,133 165,136 175,137.5 C 180,138 185,138 185,138 L 224,138" fill="none" stroke="#4A7DC0" stroke-width="2" stroke-linecap="round" />
    </g>
  </svg>

  
  <svg x="650" y="213" width="165" height="115" viewBox="0 0 260 181" preserveAspectRatio="xMidYMid meet">
    <defs>
      <marker id="axisArrow2" markerWidth="6" markerHeight="4" refX="3" refY="2" orient="auto">
        <polygon points="0 0, 6 2, 0 4" fill="#333" />
      </marker>
      <marker id="curveArrow" markerWidth="7" markerHeight="5" refX="4" refY="2.5" orient="auto">
        <polygon points="0 0, 7 2.5, 0 5" fill="#555" />
      </marker>
    </defs>

    <rect x="2" y="2" width="256" height="177" rx="8" fill="#fdf5e0" stroke="#aaa" stroke-width="1.2" />
    <text x="20.000" y="26.000" font-size="17.00" font-family="'DejaVu Sans', 'Helvetica Neue', Helvetica, Arial, sans-serif" font-weight="bold" fill="#333" transform="translate(20,26) scale(0.82) translate(-20,-26)">?????????????????????</text><g transform="translate(-10, 6) scale(1.1)">
    <line x1="65" y1="138" x2="65" y2="36" stroke="#333" stroke-width="1.2" marker-end="url(#axisArrow2)" />
    <line x1="65" y1="138" x2="235" y2="138" stroke="#333" stroke-width="1.2" />

    <text x="11.776" y="90.000" font-size="10.00" font-family="'DejaVu Sans', 'Helvetica Neue', Helvetica, Arial, sans-serif" font-weight="bold" fill="#333" transform="rotate(-90, 54, 90)">?????????????</text><rect x="85" y="105" width="40" height="33" fill="#a0a8a0" rx="2" />
    <rect x="170" y="55" width="40" height="83" fill="#e8d810" rx="2" />

    <text x="84.867" y="152.000" font-size="9.00" font-family="'DejaVu Sans', 'Helvetica Neue', Helvetica, Arial, sans-serif" font-weight="bold" fill="#333">????????</text><text x="180.163" y="152.000" font-size="9.00" font-family="'DejaVu Sans', 'Helvetica Neue', Helvetica, Arial, sans-serif" font-weight="bold" fill="#333">???</text><path d="M 115,95 C 155,95 160,70 170,58" fill="none" stroke="#555" stroke-width="1.5" marker-end="url(#curveArrow)" />
    </g>
  </svg>

</svg>