<?xml version='1.0' encoding='utf-8'?>
<svg xmlns="http://www.w3.org/2000/svg" viewBox="0 0 780 340"
     font-family="'Times New Roman', 'CMU Serif', Georgia, serif"
     font-weight="bold"
     style="background:white">
  <rect x="0" y="0" width="780" height="340" fill="white" />

  <defs>
    <marker id="arrowhead" markerWidth="7" markerHeight="5" refX="4" refY="2.5" orient="auto">
      <polygon points="0 0, 7 2.5, 0 5" fill="#888" />
    </marker>
    <marker id="arrowSub" markerWidth="7" markerHeight="5" refX="4" refY="2.5" orient="auto">
      <polygon points="0 0, 7 2.5, 0 5" fill="#555" />
    </marker>
    <marker id="axisArrow" markerWidth="6" markerHeight="4" refX="3" refY="2" orient="auto">
      <polygon points="0 0, 6 2, 0 4" fill="#333" />
    </marker>
    <marker id="curveArrow" markerWidth="7" markerHeight="5" refX="4" refY="2.5" orient="auto">
      <polygon points="0 0, 7 2.5, 0 5" fill="#555" />
    </marker>
  </defs>

  <!-- Grid frame (for reference — remove if unwanted):
       3 cols × 2 rows of 250×160 tiles with 10px gaps,
       content area x=10..770  y=10..330                        -->

  <!-- =========================================================== -->
  <!-- (1,1)-(1,2)  BIG CHUNKS panel  — 500×160                     -->
  <!-- =========================================================== -->
  <g id="main-chunks">
    <!-- Panel space: x=10..520 (width 510) , y=10..170 (height 160)     -->
    <!-- Left margin x=10..95 reserved for Before/After Inference labels. -->
    <!-- Cells square 40×40 , 10 cells = 400 wide , x=100..500.          -->
    <text x="300" y="24" font-size="20" font-weight="bold"
          text-anchor="middle" fill="#333">RTC with Flow-Matching Head</text>

    <!-- Before Inference label -->
    <text x="55" y="58" font-size="14" font-weight="bold"
          text-anchor="middle" fill="#888">Before</text>
    <text x="55" y="76" font-size="14" font-weight="bold"
          text-anchor="middle" fill="#888">Inference</text>

    <!-- BEFORE chunk : 10 cells , d=2 green · 4 mixed · s=4 yellow -->
    <rect x="100" y="44" width="40" height="40" fill="#2e8b57" />
    <rect x="140" y="44" width="40" height="40" fill="#2e8b57" />
    <rect x="180" y="44" width="40" height="40" fill="#5a9e45" />
    <rect x="220" y="44" width="40" height="40" fill="#8bb832" />
    <rect x="260" y="44" width="40" height="40" fill="#bdd01e" />
    <rect x="300" y="44" width="40" height="40" fill="#d8d018" />
    <rect x="340" y="44" width="40" height="40" fill="#e8d810" />
    <rect x="380" y="44" width="40" height="40" fill="#e8d810" />
    <rect x="420" y="44" width="40" height="40" fill="#e8d810" />
    <rect x="460" y="44" width="40" height="40" fill="#e8d810" />
    <rect x="100" y="44" width="400" height="40" fill="none" stroke="#888" stroke-width="1.5" />
    <line x1="140" y1="44" x2="140" y2="84" stroke="#888" stroke-width="1.2" />
    <line x1="180" y1="44" x2="180" y2="84" stroke="#888" stroke-width="1.2" />
    <line x1="220" y1="44" x2="220" y2="84" stroke="#888" stroke-width="1.2" />
    <line x1="260" y1="44" x2="260" y2="84" stroke="#888" stroke-width="1.2" />
    <line x1="300" y1="44" x2="300" y2="84" stroke="#888" stroke-width="1.2" />
    <line x1="340" y1="44" x2="340" y2="84" stroke="#888" stroke-width="1.2" />
    <line x1="380" y1="44" x2="380" y2="84" stroke="#888" stroke-width="1.2" />
    <line x1="420" y1="44" x2="420" y2="84" stroke="#888" stroke-width="1.2" />
    <line x1="460" y1="44" x2="460" y2="84" stroke="#888" stroke-width="1.2" />

    <!-- Gray dashed region dividers spanning both chunks -->
    <line x1="180" y1="38" x2="180" y2="166" stroke="#aaa"
          stroke-width="1.2" stroke-dasharray="5,4" />
    <line x1="340" y1="38" x2="340" y2="166" stroke="#aaa"
          stroke-width="1.2" stroke-dasharray="5,4" />

<!-- Region titles and letters in the gap between the two chunks -->
    <text x="140" y="102" font-size="11" font-weight="bold"
          text-anchor="middle" fill="#333">Inference Delay</text>
    <text x="260" y="102" font-size="11" font-weight="bold"
          text-anchor="middle" fill="#333">Intermediate Region</text>
    <text x="420" y="102" font-size="11" font-weight="bold"
          text-anchor="middle" fill="#333">Execution Horizon</text>

    <text x="139" y="117" font-size="13" font-weight="bold" font-style="italic"
          text-anchor="middle" fill="#333">d</text>
    <text x="260" y="117" font-size="13" font-weight="bold" font-style="italic"
          text-anchor="middle" fill="#333">H &#8722; d &#8722; s</text>
    <text x="421" y="117" font-size="13" font-weight="bold" font-style="italic"
          text-anchor="middle" fill="#333">s</text>

    <!-- After Inference label -->
    <text x="55" y="140" font-size="14" font-weight="bold"
          text-anchor="middle" fill="#888">After</text>
    <text x="55" y="158" font-size="14" font-weight="bold"
          text-anchor="middle" fill="#888">Inference</text>

    <!-- AFTER chunk : all green -->
    <rect x="100" y="126" width="40" height="40" fill="#2e8b57" />
    <rect x="140" y="126" width="40" height="40" fill="#2e8b57" />
    <rect x="180" y="126" width="40" height="40" fill="#2e8b57" />
    <rect x="220" y="126" width="40" height="40" fill="#2e8b57" />
    <rect x="260" y="126" width="40" height="40" fill="#2e8b57" />
    <rect x="300" y="126" width="40" height="40" fill="#2e8b57" />
    <rect x="340" y="126" width="40" height="40" fill="#2e8b57" />
    <rect x="380" y="126" width="40" height="40" fill="#2e8b57" />
    <rect x="420" y="126" width="40" height="40" fill="#2e8b57" />
    <rect x="460" y="126" width="40" height="40" fill="#2e8b57" />
    <rect x="100" y="126" width="400" height="40" fill="none" stroke="#888" stroke-width="1.5" />
    <line x1="140" y1="126" x2="140" y2="166" stroke="#888" stroke-width="1.2" />
    <line x1="180" y1="126" x2="180" y2="166" stroke="#888" stroke-width="1.2" />
    <line x1="220" y1="126" x2="220" y2="166" stroke="#888" stroke-width="1.2" />
    <line x1="260" y1="126" x2="260" y2="166" stroke="#888" stroke-width="1.2" />
    <line x1="300" y1="126" x2="300" y2="166" stroke="#888" stroke-width="1.2" />
    <line x1="340" y1="126" x2="340" y2="166" stroke="#888" stroke-width="1.2" />
    <line x1="380" y1="126" x2="380" y2="166" stroke="#888" stroke-width="1.2" />
    <line x1="420" y1="126" x2="420" y2="166" stroke="#888" stroke-width="1.2" />
    <line x1="460" y1="126" x2="460" y2="166" stroke="#888" stroke-width="1.2" />
  </g>

  <!-- =========================================================== -->
  <!-- (1,3)  Panel (a)  — Pre-training Data   250×160              -->
  <!-- =========================================================== -->
  <g id="panel-a">
    <rect x="530" y="10" width="250" height="160" rx="8" fill="#fdf5e0"
          stroke="#aaa" stroke-width="1.2" />
    <text x="544" y="30" font-size="15" font-weight="bold"
          fill="#333">(a) Pre-training w/o Inpainting</text>

    <!-- Description above top chunk -->
    <text x="655" y="58" font-size="14" font-weight="bold"
          text-anchor="middle" fill="#333">Consistent Noise Pattern</text>

    <!-- Uniform "mixed" chunk : 10 cells 22×22 , single mixed color (x=545..765) -->
    <rect x="545" y="68"  width="22" height="22" fill="#8bb832" />
    <rect x="567" y="68"  width="22" height="22" fill="#8bb832" />
    <rect x="589" y="68"  width="22" height="22" fill="#8bb832" />
    <rect x="611" y="68"  width="22" height="22" fill="#8bb832" />
    <rect x="633" y="68"  width="22" height="22" fill="#8bb832" />
    <rect x="655" y="68"  width="22" height="22" fill="#8bb832" />
    <rect x="677" y="68"  width="22" height="22" fill="#8bb832" />
    <rect x="699" y="68"  width="22" height="22" fill="#8bb832" />
    <rect x="721" y="68"  width="22" height="22" fill="#8bb832" />
    <rect x="743" y="68"  width="22" height="22" fill="#8bb832" />
    <rect x="545" y="68"  width="220" height="22" fill="none" stroke="#888" stroke-width="1.2" />
    <line x1="567" y1="68" x2="567" y2="90" stroke="#888" stroke-width="1" />
    <line x1="589" y1="68" x2="589" y2="90" stroke="#888" stroke-width="1" />
    <line x1="611" y1="68" x2="611" y2="90" stroke="#888" stroke-width="1" />
    <line x1="633" y1="68" x2="633" y2="90" stroke="#888" stroke-width="1" />
    <line x1="655" y1="68" x2="655" y2="90" stroke="#888" stroke-width="1" />
    <line x1="677" y1="68" x2="677" y2="90" stroke="#888" stroke-width="1" />
    <line x1="699" y1="68" x2="699" y2="90" stroke="#888" stroke-width="1" />
    <line x1="721" y1="68" x2="721" y2="90" stroke="#888" stroke-width="1" />
    <line x1="743" y1="68" x2="743" y2="90" stroke="#888" stroke-width="1" />

    <line x1="580" y1="101" x2="580" y2="125" stroke="#555" stroke-width="1.2"
          marker-end="url(#arrowSub)" />
    <text x="655" y="117" font-size="11" font-weight="bold" text-anchor="middle" fill="#555">Pre-train with Forward</text>

    <rect x="545" y="136" width="22" height="22" fill="#2e8b57" />
    <rect x="567" y="136" width="22" height="22" fill="#2e8b57" />
    <rect x="589" y="136" width="22" height="22" fill="#2e8b57" />
    <rect x="611" y="136" width="22" height="22" fill="#2e8b57" />
    <rect x="633" y="136" width="22" height="22" fill="#2e8b57" />
    <rect x="655" y="136" width="22" height="22" fill="#2e8b57" />
    <rect x="677" y="136" width="22" height="22" fill="#2e8b57" />
    <rect x="699" y="136" width="22" height="22" fill="#2e8b57" />
    <rect x="721" y="136" width="22" height="22" fill="#2e8b57" />
    <rect x="743" y="136" width="22" height="22" fill="#2e8b57" />
    <rect x="545" y="136" width="220" height="22" fill="none" stroke="#888" stroke-width="1.2" />
    <line x1="567" y1="136" x2="567" y2="158" stroke="#888" stroke-width="1" />
    <line x1="589" y1="136" x2="589" y2="158" stroke="#888" stroke-width="1" />
    <line x1="611" y1="136" x2="611" y2="158" stroke="#888" stroke-width="1" />
    <line x1="633" y1="136" x2="633" y2="158" stroke="#888" stroke-width="1" />
    <line x1="655" y1="136" x2="655" y2="158" stroke="#888" stroke-width="1" />
    <line x1="677" y1="136" x2="677" y2="158" stroke="#888" stroke-width="1" />
    <line x1="699" y1="136" x2="699" y2="158" stroke="#888" stroke-width="1" />
    <line x1="721" y1="136" x2="721" y2="158" stroke="#888" stroke-width="1" />
    <line x1="743" y1="136" x2="743" y2="158" stroke="#888" stroke-width="1" />
  </g>

  <!-- =========================================================== -->
  <!-- (2,1)  Panel (b)  — Fine-tuning Data   250×160              -->
  <!-- =========================================================== -->
  <g id="panel-b">
    <rect x="10" y="180" width="250" height="160" rx="8" fill="#fdf5e0"
          stroke="#aaa" stroke-width="1.2" />
    <text x="24" y="200" font-size="15" font-weight="bold"
          fill="#333">(b) Fine-tuning Required</text>

    <!-- Description above top chunk -->
    <text x="135" y="228" font-size="14" font-weight="bold"
          text-anchor="middle" fill="#333">Inconsistent Noise Pattern</text>

    <!-- Mixed chunk : 10 cells 22×22 , inpainting pattern , centred (x=25..245) -->
    <rect x="25"  y="238" width="22" height="22" fill="#2e8b57" />
    <rect x="47"  y="238" width="22" height="22" fill="#2e8b57" />
    <rect x="69"  y="238" width="22" height="22" fill="#e8d810" />
    <rect x="91"  y="238" width="22" height="22" fill="#e8d810" />
    <rect x="113" y="238" width="22" height="22" fill="#e8d810" />
    <rect x="135" y="238" width="22" height="22" fill="#e8d810" />
    <rect x="157" y="238" width="22" height="22" fill="#e8d810" />
    <rect x="179" y="238" width="22" height="22" fill="#e8d810" />
    <rect x="201" y="238" width="22" height="22" fill="#e8d810" />
    <rect x="223" y="238" width="22" height="22" fill="#e8d810" />
    <rect x="25"  y="238" width="220" height="22" fill="none" stroke="#888" stroke-width="1.2" />
    <line x1="47"  y1="238" x2="47"  y2="260" stroke="#888" stroke-width="1" />
    <line x1="69"  y1="238" x2="69"  y2="260" stroke="#888" stroke-width="1" />
    <line x1="91"  y1="238" x2="91"  y2="260" stroke="#888" stroke-width="1" />
    <line x1="113" y1="238" x2="113" y2="260" stroke="#888" stroke-width="1" />
    <line x1="135" y1="238" x2="135" y2="260" stroke="#888" stroke-width="1" />
    <line x1="157" y1="238" x2="157" y2="260" stroke="#888" stroke-width="1" />
    <line x1="179" y1="238" x2="179" y2="260" stroke="#888" stroke-width="1" />
    <line x1="201" y1="238" x2="201" y2="260" stroke="#888" stroke-width="1" />
    <line x1="223" y1="238" x2="223" y2="260" stroke="#888" stroke-width="1" />

    <line x1="60" y1="271" x2="60" y2="293" stroke="#555" stroke-width="1.2"
          marker-end="url(#arrowSub)" />
    <text x="135" y="287" font-size="11" font-weight="bold" text-anchor="middle" fill="#555">Inference with <tspan font-style="italic">&#928;</tspan><tspan dy="2" font-size="9">GDM</tspan></text>

    <rect x="25"  y="304" width="22" height="22" fill="#2e8b57" />
    <rect x="47"  y="304" width="22" height="22" fill="#2e8b57" />
    <rect x="69"  y="304" width="22" height="22" fill="#2e8b57" />
    <rect x="91"  y="304" width="22" height="22" fill="#2e8b57" />
    <rect x="113" y="304" width="22" height="22" fill="#2e8b57" />
    <rect x="135" y="304" width="22" height="22" fill="#2e8b57" />
    <rect x="157" y="304" width="22" height="22" fill="#2e8b57" />
    <rect x="179" y="304" width="22" height="22" fill="#2e8b57" />
    <rect x="201" y="304" width="22" height="22" fill="#2e8b57" />
    <rect x="223" y="304" width="22" height="22" fill="#2e8b57" />
    <rect x="25"  y="304" width="220" height="22" fill="none" stroke="#888" stroke-width="1.2" />
    <line x1="47"  y1="304" x2="47"  y2="326" stroke="#888" stroke-width="1" />
    <line x1="69"  y1="304" x2="69"  y2="326" stroke="#888" stroke-width="1" />
    <line x1="91"  y1="304" x2="91"  y2="326" stroke="#888" stroke-width="1" />
    <line x1="113" y1="304" x2="113" y2="326" stroke="#888" stroke-width="1" />
    <line x1="135" y1="304" x2="135" y2="326" stroke="#888" stroke-width="1" />
    <line x1="157" y1="304" x2="157" y2="326" stroke="#888" stroke-width="1" />
    <line x1="179" y1="304" x2="179" y2="326" stroke="#888" stroke-width="1" />
    <line x1="201" y1="304" x2="201" y2="326" stroke="#888" stroke-width="1" />
    <line x1="223" y1="304" x2="223" y2="326" stroke="#888" stroke-width="1" />
  </g>

  <!-- =========================================================== -->
  <!-- (2,2)  Panel (c)  — Guidance Weight   250×160                -->
  <!-- =========================================================== -->
  <g id="panel-c">
    <rect x="270" y="180" width="250" height="160" rx="8" fill="#fdf5e0"
          stroke="#aaa" stroke-width="1.2" />
    <text x="284" y="200" font-size="15" font-weight="bold" fill="#333">(c) Heuristic Guidance</text>

    <line x1="300" y1="318" x2="300" y2="218" stroke="#333" stroke-width="1.2"
          marker-end="url(#axisArrow)" />
    <line x1="300" y1="318" x2="505" y2="318" stroke="#333" stroke-width="1.2"
          marker-end="url(#axisArrow)" />

    <text x="293" y="268" font-size="12" font-weight="bold" fill="#333"
          text-anchor="middle" transform="rotate(-90, 293, 268)">Guidance Weight</text>
    <text x="402" y="336" font-size="12" font-weight="bold" fill="#333"
          text-anchor="middle">Action Index</text>

    <line x1="360" y1="228" x2="360" y2="318" stroke="#888"
          stroke-width="1" stroke-dasharray="4,3" />
    <line x1="440" y1="298" x2="440" y2="318" stroke="#888"
          stroke-width="1" stroke-dasharray="4,3" />

    <!-- Equations (stacked) , left-aligned at x=410 -->
    <g id="c-eq">
      <!-- W_i = c_i · (e^{c_i} - 1) / (e - 1) -->
      <text x="410" y="236" font-size="15" font-style="italic"
            text-anchor="start" fill="#333">W<tspan dy="3" font-size="11">i</tspan><tspan dy="-3"> = c</tspan><tspan dy="3" font-size="11">i</tspan></text>
      <text x="476" y="230" font-size="13" font-style="italic"
            text-anchor="middle" fill="#333">e<tspan dy="-4" font-size="10">c&#7522;</tspan><tspan dy="4"> &#8722; 1</tspan></text>
      <line x1="456" y1="234" x2="496" y2="234" stroke="#333" stroke-width="0.8" />
      <text x="476" y="247" font-size="13" font-style="italic"
            text-anchor="middle" fill="#333">e &#8722; 1</text>

      <!-- c_i = (H-s-i) / (H-s-d+1) -->
      <text x="410" y="270" font-size="14" font-style="italic"
            text-anchor="start" fill="#333">c<tspan dy="3" font-size="10">i</tspan><tspan dy="-3"> =</tspan></text>
      <text x="472" y="264" font-size="12" font-style="italic"
            text-anchor="middle" fill="#333">H &#8722; s &#8722; i</text>
      <line x1="437" y1="268" x2="507" y2="268" stroke="#333" stroke-width="0.8" />
      <text x="472" y="281" font-size="12" font-style="italic"
            text-anchor="middle" fill="#333">H &#8722; s &#8722; d + 1</text>
    </g>

    <!-- W(τ): 1 in first region · exp decay in intermediate · 0 in last region -->
    <path d="M 300,230 L 360,230
             C 372,230 374,316 440,318
             L 500,318"
          fill="none" stroke="#c9a11a" stroke-width="2" stroke-linecap="round" />
  </g>

  <!-- =========================================================== -->
  <!-- (2,3)  Panel (d)  — Compute Cost   250×160                   -->
  <!-- =========================================================== -->
  <g id="panel-d">
    <rect x="530" y="180" width="250" height="160" rx="8" fill="#fdf5e0"
          stroke="#aaa" stroke-width="1.2" />
    <text x="544" y="200" font-size="15" font-weight="bold" fill="#333">(d) Extra Inference Cost</text>

    <line x1="565" y1="318" x2="565" y2="220" stroke="#333" stroke-width="1.2"
          marker-end="url(#axisArrow)" />
    <line x1="565" y1="318" x2="770" y2="318" stroke="#333" stroke-width="1.2" />

    <text x="558" y="269" font-size="12" font-weight="bold" fill="#333"
          text-anchor="middle" transform="rotate(-90, 558, 269)">Denoising Time</text>

    <rect x="600" y="290" width="50" height="28" fill="#a0a8a0" rx="2" />
    <rect x="695" y="238" width="50" height="80" fill="#e8d810" rx="2" />

    <text x="625" y="334" font-size="12" font-weight="bold" fill="#333"
          text-anchor="middle">Original</text>
    <text x="720" y="334" font-size="12" font-weight="bold" fill="#333"
          text-anchor="middle">Continuous RTC</text>

    <text x="625" y="285" font-size="14" font-weight="bold" fill="#333"
          text-anchor="middle">1&#215;</text>
    <text x="720" y="233" font-size="14" font-weight="bold" fill="#333"
          text-anchor="middle">~2.5&#215;</text>
  </g>
</svg>
